{"glyphs":{"0":{"ha":890,"x_min":93,"x_max":960,"o":"m 336 -8 q 153 47 214 -8 q 93 206 93 101 q 99 272 93 240 l 174 746 q 282 965 196 889 q 504 1040 368 1040 l 729 1040 q 901 983 842 1040 q 960 819 960 926 q 953 746 960 790 l 878 272 q 774 66 857 140 q 561 -8 692 -8 l 336 -8 m 525 233 q 586 252 564 233 q 615 314 608 271 l 679 718 q 681 743 681 728 q 666 786 681 774 q 625 799 651 799 l 521 799 q 465 779 485 799 q 439 718 446 760 l 375 315 q 372 290 372 296 q 390 247 372 260 q 442 233 407 233 l 525 233 z "},"1":{"ha":526,"x_min":154,"x_max":628,"o":"m 319 790 l 154 776 l 181 949 l 389 1032 l 628 1032 l 464 0 l 194 0 l 319 790 z "},"2":{"ha":808,"x_min":56,"x_max":839,"o":"m 89 214 l 463 542 q 542 635 514 588 q 569 721 569 682 q 503 785 569 785 l 196 785 l 231 999 q 398 1030 329 1019 q 557 1040 467 1040 q 772 976 704 1040 q 839 801 839 913 q 799 597 839 689 q 669 424 760 504 l 464 242 l 808 242 l 769 0 l 56 0 l 89 214 z "},"3":{"ha":799,"x_min":51,"x_max":869,"o":"m 454 -8 q 51 29 235 -8 l 83 232 l 386 232 q 497 247 467 232 q 533 300 526 261 l 539 336 q 505 388 539 368 q 410 411 471 408 l 199 421 l 229 615 l 467 631 q 586 701 575 636 l 589 731 q 558 784 589 769 q 471 799 528 799 l 188 799 l 219 1001 q 594 1040 450 1040 q 801 996 732 1040 q 869 835 869 951 q 854 708 869 808 q 807 588 842 635 q 707 518 772 540 q 782 458 757 501 q 807 351 807 415 q 796 251 807 333 q 686 59 776 126 q 454 -8 596 -8 z "},"4":{"ha":882,"x_min":78,"x_max":925,"o":"m 536 190 l 107 190 l 78 311 l 492 1032 l 767 1032 l 417 418 l 572 418 l 596 571 l 668 704 l 886 704 l 842 418 l 925 418 l 894 232 l 806 190 l 775 0 l 506 0 l 536 190 z "},"5":{"ha":822,"x_min":63,"x_max":899,"o":"m 413 -8 q 265 -1 351 -8 q 99 15 179 7 l 63 19 l 97 233 l 464 233 q 523 247 503 233 q 549 276 543 260 q 558 317 556 293 l 565 360 q 568 385 568 376 q 556 421 568 408 q 513 433 543 433 l 451 433 q 405 422 419 433 q 382 385 390 411 l 124 385 l 256 1032 l 899 1032 l 860 790 l 475 790 l 444 633 q 543 661 490 661 l 649 661 q 798 608 749 661 q 847 467 847 556 q 843 410 847 439 l 818 258 q 698 55 796 118 q 413 -8 600 -8 z "},"6":{"ha":829,"x_min":110,"x_max":883,"o":"m 375 -8 q 227 19 285 -8 q 140 112 169 46 q 110 293 110 178 q 622 1040 110 1040 q 883 1013 782 1040 l 850 799 l 615 799 q 478 753 524 799 q 418 618 433 708 q 501 642 458 636 q 622 647 543 647 q 801 599 749 647 q 854 465 854 551 q 847 397 854 436 l 824 247 q 724 54 804 117 q 518 -8 644 -8 l 375 -8 m 493 233 q 542 251 526 233 q 564 304 557 268 l 569 343 q 572 374 572 365 q 558 410 572 400 q 507 419 543 419 l 388 419 q 378 329 378 357 q 399 254 378 275 q 469 233 421 233 l 493 233 z "},"7":{"ha":779,"x_min":125,"x_max":903,"o":"m 529 763 l 144 763 l 188 1032 l 856 1032 l 903 924 l 439 0 l 125 0 l 529 763 z "},"8":{"ha":858,"x_min":88,"x_max":915,"o":"m 329 -8 q 88 160 88 -8 q 93 221 88 185 l 117 367 q 157 469 125 424 q 244 528 189 515 q 197 573 210 547 q 183 632 183 599 q 192 708 183 656 l 210 828 q 305 994 229 947 q 496 1040 381 1040 l 713 1040 q 865 1003 814 1040 q 915 882 915 965 q 910 825 915 867 l 892 708 q 856 606 882 657 q 782 547 831 554 q 863 421 863 528 q 858 367 863 413 l 836 229 q 739 41 814 90 q 544 -8 664 -8 l 329 -8 m 567 642 q 613 657 601 642 q 631 715 624 672 l 636 758 l 639 776 q 628 806 639 800 q 594 813 617 813 l 522 813 q 480 803 493 813 q 461 758 467 794 l 456 715 q 451 679 451 693 q 461 649 451 656 q 494 642 471 642 l 567 642 m 500 219 q 556 235 542 219 q 575 283 571 250 l 586 349 l 588 361 q 574 399 588 385 q 533 414 560 414 l 458 414 q 407 396 426 414 q 383 349 388 378 l 372 283 q 371 261 371 275 q 384 229 371 239 q 428 219 397 219 l 500 219 z "},"9":{"ha":829,"x_min":107,"x_max":881,"o":"m 615 1040 q 763 1013 706 1040 q 851 920 821 986 q 881 739 881 854 q 368 -8 881 -8 q 107 19 208 -8 l 140 233 l 375 233 q 512 278 467 233 q 572 414 557 324 q 490 390 532 396 q 368 385 447 385 q 189 433 242 385 q 136 567 136 481 q 143 635 136 596 l 167 785 q 266 978 186 915 q 472 1040 346 1040 l 615 1040 m 497 799 q 449 781 464 799 q 426 728 433 764 l 421 689 q 418 658 418 667 q 433 622 418 632 q 483 613 447 613 l 603 613 q 613 703 613 676 q 591 778 613 757 q 521 799 569 799 l 497 799 z "},"\u0000":{"ha":0,"x_min":0,"x_max":0,"o":""},"\r":{"ha":347,"x_min":0,"x_max":0,"o":""}," ":{"ha":347,"x_min":0,"x_max":0,"o":""},"A":{"ha":985,"x_min":21,"x_max":968,"o":"m 490 1032 l 826 1032 l 968 0 l 689 0 l 674 164 l 364 164 l 297 0 l 21 0 l 490 1032 m 649 406 l 619 803 l 464 406 l 649 406 z "},"Á":{"ha":985,"x_min":21,"x_max":968,"o":"m 490 1032 l 826 1032 l 968 0 l 689 0 l 674 164 l 364 164 l 297 0 l 21 0 l 490 1032 m 649 406 l 619 803 l 464 406 l 649 406 m 682 1297 l 910 1297 l 742 1099 l 569 1099 l 682 1297 z "},"Ă":{"ha":985,"x_min":21,"x_max":968,"o":"m 490 1032 l 826 1032 l 968 0 l 689 0 l 674 164 l 364 164 l 297 0 l 21 0 l 490 1032 m 649 406 l 619 803 l 464 406 l 649 406 m 654 1083 q 526 1124 569 1083 q 483 1243 483 1164 q 489 1301 483 1260 l 613 1301 q 610 1274 610 1282 q 628 1221 610 1238 q 674 1204 646 1204 q 765 1301 750 1204 l 892 1301 q 815 1138 875 1193 q 654 1083 756 1083 z "},"Ắ":{"ha":985,"x_min":21,"x_max":968,"o":"m 490 1032 l 826 1032 l 968 0 l 689 0 l 674 164 l 364 164 l 297 0 l 21 0 l 490 1032 m 649 406 l 619 803 l 464 406 l 649 406 m 696 1478 l 924 1478 l 756 1279 l 583 1279 l 696 1478 m 643 1056 q 468 1193 468 1056 q 471 1232 468 1218 l 594 1232 q 593 1217 593 1226 q 612 1175 593 1188 q 660 1163 631 1163 q 747 1232 736 1163 l 874 1232 q 643 1056 846 1056 z "},"Ặ":{"ha":985,"x_min":21,"x_max":968,"o":"m 490 1032 l 826 1032 l 968 0 l 689 0 l 674 164 l 364 164 l 297 0 l 21 0 l 490 1032 m 649 406 l 619 803 l 464 406 l 649 406 m 654 1083 q 526 1124 569 1083 q 483 1243 483 1164 q 489 1301 483 1260 l 613 1301 q 610 1274 610 1282 q 628 1221 610 1238 q 674 1204 646 1204 q 765 1301 750 1204 l 892 1301 q 815 1138 875 1193 q 654 1083 756 1083 m 365 -328 q 345 -321 353 -328 q 338 -301 338 -314 l 338 -296 l 363 -142 q 400 -107 367 -107 l 525 -107 q 553 -135 553 -107 l 553 -142 l 528 -296 q 516 -319 526 -311 q 490 -328 506 -328 l 365 -328 z "},"Ằ":{"ha":985,"x_min":21,"x_max":968,"o":"m 490 1032 l 826 1032 l 968 0 l 689 0 l 674 164 l 364 164 l 297 0 l 21 0 l 490 1032 m 649 406 l 619 803 l 464 406 l 649 406 m 476 1478 l 690 1478 l 753 1279 l 594 1279 l 476 1478 m 643 1056 q 468 1193 468 1056 q 471 1232 468 1218 l 594 1232 q 593 1217 593 1226 q 612 1175 593 1188 q 660 1163 631 1163 q 747 1232 736 1163 l 874 1232 q 643 1056 846 1056 z "},"Ẳ":{"ha":985,"x_min":21,"x_max":968,"o":"m 490 1032 l 826 1032 l 968 0 l 689 0 l 674 164 l 364 164 l 297 0 l 21 0 l 490 1032 m 649 406 l 619 803 l 464 406 l 649 406 m 646 1336 q 693 1379 693 1349 q 663 1397 693 1397 q 619 1389 650 1397 l 636 1492 q 717 1504 676 1504 q 836 1403 836 1504 q 628 1219 836 1276 l 646 1336 m 643 1056 q 468 1193 468 1056 q 471 1232 468 1218 l 594 1232 q 593 1217 593 1226 q 612 1175 593 1188 q 660 1163 631 1163 q 747 1232 736 1163 l 874 1232 q 643 1056 846 1056 z "},"Ẵ":{"ha":985,"x_min":21,"x_max":968,"o":"m 490 1032 l 826 1032 l 968 0 l 689 0 l 674 164 l 364 164 l 297 0 l 21 0 l 490 1032 m 649 406 l 619 803 l 464 406 l 649 406 m 446 1285 q 512 1409 469 1378 q 624 1440 554 1440 q 711 1425 656 1440 q 761 1414 747 1414 q 807 1450 803 1414 l 940 1450 q 877 1321 917 1354 q 765 1288 838 1288 q 706 1295 736 1288 q 671 1304 676 1303 q 626 1314 639 1314 q 595 1305 607 1314 q 579 1285 583 1296 l 446 1285 m 647 1056 q 516 1090 561 1056 q 471 1192 471 1124 q 475 1232 471 1211 l 599 1232 q 597 1215 597 1226 q 616 1175 597 1188 q 664 1163 635 1163 q 751 1232 740 1163 l 878 1232 q 647 1056 849 1056 z "},"Â":{"ha":985,"x_min":21,"x_max":968,"o":"m 490 1032 l 826 1032 l 968 0 l 689 0 l 674 164 l 364 164 l 297 0 l 21 0 l 490 1032 m 649 406 l 619 803 l 464 406 l 649 406 m 594 1301 l 776 1301 l 871 1099 l 717 1099 l 663 1183 l 579 1099 l 424 1099 l 594 1301 z "},"Ấ":{"ha":985,"x_min":21,"x_max":1074,"o":"m 490 1032 l 826 1032 l 968 0 l 689 0 l 674 164 l 364 164 l 297 0 l 21 0 l 490 1032 m 649 406 l 619 803 l 464 406 l 649 406 m 874 1394 l 1074 1394 l 965 1224 l 821 1224 l 874 1394 m 601 1260 l 783 1260 l 885 1099 l 731 1099 l 669 1142 l 593 1099 l 438 1099 l 601 1260 z "},"Ậ":{"ha":985,"x_min":21,"x_max":968,"o":"m 490 1032 l 826 1032 l 968 0 l 689 0 l 674 164 l 364 164 l 297 0 l 21 0 l 490 1032 m 649 406 l 619 803 l 464 406 l 649 406 m 594 1301 l 776 1301 l 871 1099 l 717 1099 l 663 1183 l 579 1099 l 424 1099 l 594 1301 m 365 -328 q 345 -321 353 -328 q 338 -301 338 -314 l 338 -296 l 363 -142 q 400 -107 367 -107 l 525 -107 q 553 -135 553 -107 l 553 -142 l 528 -296 q 516 -319 526 -311 q 490 -328 506 -328 l 365 -328 z "},"Ầ":{"ha":985,"x_min":21,"x_max":968,"o":"m 490 1032 l 826 1032 l 968 0 l 689 0 l 674 164 l 364 164 l 297 0 l 21 0 l 490 1032 m 649 406 l 619 803 l 464 406 l 649 406 m 349 1394 l 549 1394 l 546 1224 l 401 1224 l 349 1394 m 601 1260 l 783 1260 l 885 1099 l 731 1099 l 669 1142 l 593 1099 l 438 1099 l 601 1260 z "},"Ẩ":{"ha":985,"x_min":21,"x_max":1028,"o":"m 490 1032 l 826 1032 l 968 0 l 689 0 l 674 164 l 364 164 l 297 0 l 21 0 l 490 1032 m 649 406 l 619 803 l 464 406 l 649 406 m 865 1281 q 890 1299 883 1290 q 897 1318 897 1307 q 881 1331 897 1331 q 836 1322 864 1331 l 853 1425 q 932 1438 893 1438 q 1004 1417 981 1438 q 1028 1353 1028 1396 q 985 1248 1028 1292 q 849 1178 943 1204 l 865 1281 m 601 1260 l 783 1260 l 885 1099 l 731 1099 l 669 1142 l 593 1099 l 438 1099 l 601 1260 z "},"Ẫ":{"ha":985,"x_min":21,"x_max":968,"o":"m 490 1032 l 826 1032 l 968 0 l 689 0 l 674 164 l 364 164 l 297 0 l 21 0 l 490 1032 m 649 406 l 619 803 l 464 406 l 649 406 m 450 1313 q 516 1437 474 1406 q 628 1468 558 1468 q 715 1453 660 1468 q 765 1442 751 1442 q 813 1478 806 1442 l 946 1478 q 881 1349 921 1382 q 769 1315 842 1315 q 710 1323 740 1315 q 675 1332 681 1331 q 631 1342 643 1342 q 599 1333 611 1342 q 583 1313 588 1324 l 450 1313 m 603 1260 l 785 1260 l 885 1099 l 731 1099 l 669 1142 l 593 1099 l 438 1099 l 603 1260 z "},"Ȁ":{"ha":985,"x_min":21,"x_max":968,"o":"m 490 1032 l 826 1032 l 968 0 l 689 0 l 674 164 l 364 164 l 297 0 l 21 0 l 490 1032 m 649 406 l 619 803 l 464 406 l 649 406 m 338 1297 l 551 1297 l 614 1099 l 456 1099 l 338 1297 m 615 1297 l 829 1297 l 892 1099 l 733 1099 l 615 1297 z "},"Ä":{"ha":985,"x_min":21,"x_max":968,"o":"m 490 1032 l 826 1032 l 968 0 l 689 0 l 674 164 l 364 164 l 297 0 l 21 0 l 490 1032 m 649 406 l 619 803 l 464 406 l 649 406 m 458 1093 q 438 1100 446 1093 q 431 1119 431 1107 l 457 1279 q 493 1314 461 1314 l 618 1314 q 646 1286 646 1314 l 621 1125 q 609 1101 619 1110 q 583 1093 599 1093 l 458 1093 m 732 1093 q 712 1100 719 1093 q 704 1119 704 1107 l 731 1279 q 767 1314 735 1314 l 892 1314 q 919 1286 919 1314 l 894 1125 q 883 1101 893 1110 q 857 1093 872 1093 l 732 1093 z "},"Ạ":{"ha":985,"x_min":21,"x_max":968,"o":"m 490 1032 l 826 1032 l 968 0 l 689 0 l 674 164 l 364 164 l 297 0 l 21 0 l 490 1032 m 649 406 l 619 803 l 464 406 l 649 406 m 365 -328 q 345 -321 353 -328 q 338 -301 338 -314 l 338 -296 l 363 -142 q 400 -107 367 -107 l 525 -107 q 553 -135 553 -107 l 553 -142 l 528 -296 q 516 -319 526 -311 q 490 -328 506 -328 l 365 -328 z "},"À":{"ha":985,"x_min":21,"x_max":968,"o":"m 490 1032 l 826 1032 l 968 0 l 689 0 l 674 164 l 364 164 l 297 0 l 21 0 l 490 1032 m 649 406 l 619 803 l 464 406 l 649 406 m 490 1297 l 704 1297 l 767 1099 l 608 1099 l 490 1297 z "},"Ả":{"ha":985,"x_min":21,"x_max":968,"o":"m 490 1032 l 826 1032 l 968 0 l 689 0 l 674 164 l 364 164 l 297 0 l 21 0 l 490 1032 m 649 406 l 619 803 l 464 406 l 649 406 m 651 1169 q 699 1213 699 1182 q 668 1231 699 1231 q 625 1222 656 1231 l 642 1325 q 722 1338 682 1338 q 842 1236 842 1338 q 633 1053 842 1110 l 651 1169 z "},"Ȃ":{"ha":985,"x_min":21,"x_max":968,"o":"m 490 1032 l 826 1032 l 968 0 l 689 0 l 674 164 l 364 164 l 297 0 l 21 0 l 490 1032 m 649 406 l 619 803 l 464 406 l 649 406 m 467 1088 q 543 1251 483 1196 q 704 1306 603 1306 q 832 1265 789 1306 q 875 1146 875 1225 q 869 1088 875 1129 l 746 1088 q 749 1115 749 1107 q 731 1168 749 1151 q 685 1185 713 1185 q 593 1088 608 1185 l 467 1088 z "},"Ā":{"ha":985,"x_min":21,"x_max":968,"o":"m 490 1032 l 826 1032 l 968 0 l 689 0 l 674 164 l 364 164 l 297 0 l 21 0 l 490 1032 m 649 406 l 619 803 l 464 406 l 649 406 m 482 1257 l 888 1257 l 863 1099 l 457 1099 l 482 1257 z "},"Ą":{"ha":985,"x_min":21,"x_max":968,"o":"m 490 1032 l 826 1032 l 968 0 l 689 0 l 674 164 l 364 164 l 297 0 l 21 0 l 490 1032 m 649 406 l 619 803 l 464 406 l 649 406 m 710 -272 q 610 -242 640 -272 q 579 -167 579 -211 q 609 -69 579 -111 q 689 0 639 -26 l 785 0 q 733 -47 749 -22 q 717 -92 717 -72 q 731 -127 717 -114 q 767 -140 746 -140 l 781 -140 l 761 -265 q 710 -272 744 -272 z "},"Å":{"ha":985,"x_min":21,"x_max":968,"o":"m 490 1032 l 826 1032 l 968 0 l 689 0 l 674 164 l 364 164 l 297 0 l 21 0 l 490 1032 m 649 406 l 619 803 l 464 406 l 649 406 m 663 1056 q 537 1089 578 1056 q 496 1199 496 1122 q 551 1330 496 1278 q 703 1382 606 1382 q 828 1349 788 1382 q 868 1239 868 1315 q 814 1107 868 1158 q 663 1056 760 1056 m 675 1151 q 727 1175 710 1151 q 744 1235 744 1199 q 692 1286 744 1286 q 638 1262 656 1286 q 619 1203 619 1238 q 675 1151 619 1151 z "},"Ǻ":{"ha":985,"x_min":21,"x_max":968,"o":"m 663 1056 q 537 1089 578 1056 q 496 1199 496 1122 q 530 1306 496 1260 q 626 1371 564 1353 l 710 1519 l 938 1519 l 806 1363 q 868 1239 868 1333 q 814 1107 868 1158 q 663 1056 760 1056 m 675 1151 q 727 1175 710 1151 q 744 1235 744 1199 q 692 1286 744 1286 q 638 1262 656 1286 q 619 1203 619 1238 q 675 1151 619 1151 m 968 0 l 689 0 l 674 164 l 364 164 l 297 0 l 21 0 l 490 1032 l 826 1032 l 968 0 m 649 406 l 619 803 l 464 406 l 649 406 z "},"Ã":{"ha":985,"x_min":21,"x_max":968,"o":"m 490 1032 l 826 1032 l 968 0 l 689 0 l 674 164 l 364 164 l 297 0 l 21 0 l 490 1032 m 649 406 l 619 803 l 464 406 l 649 406 m 390 1090 q 463 1237 415 1193 q 575 1281 510 1281 q 633 1274 607 1281 q 696 1257 660 1268 q 765 1240 739 1240 q 814 1290 804 1240 l 947 1290 q 876 1139 919 1185 q 765 1093 833 1093 q 706 1099 735 1093 q 636 1118 678 1106 q 574 1133 590 1133 q 524 1090 540 1133 l 390 1090 z "},"Æ":{"ha":1404,"x_min":8,"x_max":1489,"o":"m 910 -8 q 728 26 785 -8 q 671 143 671 60 l 671 164 l 390 164 l 271 0 l 8 0 l 522 767 q 765 976 625 921 q 1076 1032 904 1032 q 1489 1010 1258 1032 l 1453 783 l 1093 783 q 1022 764 1040 783 q 994 689 1003 744 l 986 636 l 1358 622 l 1325 408 l 949 394 l 936 317 q 935 299 935 310 q 958 253 935 263 q 1024 244 982 244 l 1368 244 l 1332 19 q 1098 0 1240 7 q 910 -8 956 -7 m 707 392 l 760 732 l 544 392 l 707 392 z "},"Ǽ":{"ha":1404,"x_min":8,"x_max":1489,"o":"m 910 -8 q 728 26 785 -8 q 671 143 671 60 l 671 164 l 390 164 l 271 0 l 8 0 l 522 767 q 765 976 625 921 q 1076 1032 904 1032 q 1489 1010 1258 1032 l 1453 783 l 1093 783 q 1022 764 1040 783 q 994 689 1003 744 l 986 636 l 1358 622 l 1325 408 l 949 394 l 936 317 q 935 299 935 310 q 958 253 935 263 q 1024 244 982 244 l 1368 244 l 1332 19 q 1098 0 1240 7 q 910 -8 956 -7 m 707 392 l 760 732 l 544 392 l 707 392 m 960 1297 l 1188 1297 l 1019 1099 l 847 1099 l 960 1297 z "},"B":{"ha":901,"x_min":79,"x_max":943,"o":"m 240 1032 l 665 1032 q 883 975 822 1032 q 943 813 943 918 q 938 739 943 774 q 876 609 925 665 q 749 536 826 553 q 865 467 829 514 q 900 333 900 421 q 892 243 900 292 q 774 55 871 110 q 500 0 678 0 l 79 0 l 240 1032 m 590 626 q 645 644 628 626 q 669 690 663 661 q 676 738 676 722 q 660 778 676 767 q 608 790 643 790 l 472 790 l 446 626 l 590 626 m 535 242 q 615 261 590 242 q 646 333 639 281 q 647 361 647 343 q 627 408 647 394 q 558 422 607 422 l 414 422 l 386 242 l 535 242 z "},"Ḃ":{"ha":901,"x_min":79,"x_max":943,"o":"m 240 1032 l 665 1032 q 883 975 822 1032 q 943 813 943 918 q 938 739 943 774 q 876 609 925 665 q 749 536 826 553 q 865 467 829 514 q 900 333 900 421 q 892 243 900 292 q 774 55 871 110 q 500 0 678 0 l 79 0 l 240 1032 m 590 626 q 645 644 628 626 q 669 690 663 661 q 676 738 676 722 q 660 778 676 767 q 608 790 643 790 l 472 790 l 446 626 l 590 626 m 535 242 q 615 261 590 242 q 646 333 639 281 q 647 361 647 343 q 627 408 647 394 q 558 422 607 422 l 414 422 l 386 242 l 535 242 m 497 1103 q 477 1110 485 1103 q 469 1129 469 1117 l 469 1135 l 494 1289 q 532 1324 499 1324 l 657 1324 q 685 1296 685 1324 l 685 1289 l 660 1135 q 648 1111 658 1119 q 622 1103 638 1103 l 497 1103 z "},"C":{"ha":822,"x_min":119,"x_max":928,"o":"m 483 -8 q 210 88 301 -8 q 119 358 119 185 q 136 554 119 449 q 279 922 175 804 q 583 1040 383 1040 q 785 1020 699 1040 q 928 972 871 1000 l 893 758 q 764 788 835 776 q 633 799 693 799 q 524 781 564 799 q 453 701 483 764 q 403 508 424 639 q 386 356 386 399 q 424 262 386 290 q 556 233 461 233 q 685 237 633 233 q 813 249 738 240 l 779 36 q 483 -8 667 -8 z "},"Ć":{"ha":822,"x_min":119,"x_max":928,"o":"m 483 -8 q 210 88 301 -8 q 119 358 119 185 q 136 554 119 449 q 279 922 175 804 q 583 1040 383 1040 q 785 1020 699 1040 q 928 972 871 1000 l 893 758 q 764 788 835 776 q 633 799 693 799 q 524 781 564 799 q 453 701 483 764 q 403 508 424 639 q 386 356 386 399 q 424 262 386 290 q 556 233 461 233 q 685 237 633 233 q 813 249 738 240 l 779 36 q 483 -8 667 -8 m 654 1297 l 882 1297 l 714 1099 l 542 1099 l 654 1297 z "},"Č":{"ha":822,"x_min":119,"x_max":928,"o":"m 483 -8 q 210 88 301 -8 q 119 358 119 185 q 136 554 119 449 q 279 922 175 804 q 583 1040 383 1040 q 785 1020 699 1040 q 928 972 871 1000 l 893 758 q 764 788 835 776 q 633 799 693 799 q 524 781 564 799 q 453 701 483 764 q 403 508 424 639 q 386 356 386 399 q 424 262 386 290 q 556 233 461 233 q 685 237 633 233 q 813 249 738 240 l 779 36 q 483 -8 667 -8 m 463 1301 l 617 1301 l 671 1217 l 754 1301 l 910 1301 l 739 1099 l 557 1099 l 463 1301 z "},"Ç":{"ha":822,"x_min":119,"x_max":928,"o":"m 633 799 q 524 781 564 799 q 453 701 483 764 q 403 508 424 639 q 386 356 386 399 q 424 262 386 290 q 556 233 461 233 q 685 237 633 233 q 813 249 738 240 l 779 36 q 501 -8 672 -6 l 456 -68 q 510 -95 489 -74 q 531 -157 531 -117 q 486 -247 531 -211 q 353 -282 442 -282 l 271 -282 l 288 -172 l 310 -168 q 360 -124 360 -160 q 322 -86 360 -97 l 388 0 q 187 117 254 24 q 119 358 119 210 q 136 554 119 449 q 279 922 175 804 q 583 1040 383 1040 q 785 1020 699 1040 q 928 972 871 1000 l 893 758 q 764 788 835 776 q 633 799 693 799 z "},"Ḉ":{"ha":822,"x_min":119,"x_max":928,"o":"m 714 1099 l 542 1099 l 654 1297 l 882 1297 l 714 1099 m 633 799 q 524 781 564 799 q 453 701 483 764 q 403 508 424 639 q 386 356 386 399 q 424 262 386 290 q 556 233 461 233 q 685 237 633 233 q 813 249 738 240 l 779 36 q 501 -8 672 -6 l 456 -68 q 510 -95 489 -74 q 531 -157 531 -117 q 486 -247 531 -211 q 353 -282 442 -282 l 271 -282 l 288 -172 l 310 -168 q 360 -124 360 -160 q 322 -86 360 -97 l 388 0 q 187 117 254 24 q 119 358 119 210 q 136 554 119 449 q 279 922 175 804 q 583 1040 383 1040 q 785 1020 699 1040 q 928 972 871 1000 l 893 758 q 764 788 835 776 q 633 799 693 799 z "},"Ĉ":{"ha":822,"x_min":119,"x_max":928,"o":"m 483 -8 q 210 88 301 -8 q 119 358 119 185 q 136 554 119 449 q 279 922 175 804 q 583 1040 383 1040 q 785 1020 699 1040 q 928 972 871 1000 l 893 758 q 764 788 835 776 q 633 799 693 799 q 524 781 564 799 q 453 701 483 764 q 403 508 424 639 q 386 356 386 399 q 424 262 386 290 q 556 233 461 233 q 685 237 633 233 q 813 249 738 240 l 779 36 q 483 -8 667 -8 m 567 1301 l 749 1301 l 843 1099 l 689 1099 l 635 1183 l 551 1099 l 396 1099 l 567 1301 z "},"Ċ":{"ha":822,"x_min":119,"x_max":928,"o":"m 483 -8 q 210 88 301 -8 q 119 358 119 185 q 136 554 119 449 q 279 922 175 804 q 583 1040 383 1040 q 785 1020 699 1040 q 928 972 871 1000 l 893 758 q 764 788 835 776 q 633 799 693 799 q 524 781 564 799 q 453 701 483 764 q 403 508 424 639 q 386 356 386 399 q 424 262 386 290 q 556 233 461 233 q 685 237 633 233 q 813 249 738 240 l 779 36 q 483 -8 667 -8 m 565 1103 q 545 1110 553 1103 q 538 1129 538 1117 l 538 1135 l 563 1289 q 600 1324 567 1324 l 725 1324 q 753 1296 753 1324 l 753 1289 l 728 1135 q 716 1111 726 1119 q 690 1103 706 1103 l 565 1103 z "},"D":{"ha":967,"x_min":76,"x_max":1008,"o":"m 240 1032 l 644 1032 q 928 939 847 1032 q 1008 671 1008 846 q 993 478 1008 571 q 900 195 965 300 q 731 45 835 90 q 472 0 626 0 l 76 0 l 240 1032 m 501 242 q 649 306 597 242 q 724 521 700 371 q 739 658 739 621 q 702 762 739 733 q 578 790 665 790 l 471 790 l 385 242 l 501 242 z "},"Ð":{"ha":967,"x_min":75,"x_max":1008,"o":"m 644 1032 q 928 939 847 1032 q 1008 671 1008 846 q 993 478 1008 571 q 900 195 965 300 q 731 45 835 90 q 472 0 626 0 l 76 0 l 144 432 l 75 432 l 103 604 l 172 604 l 240 1032 l 644 1032 m 724 521 q 739 658 739 621 q 702 762 739 733 q 578 790 665 790 l 471 790 l 442 604 l 553 604 l 525 432 l 415 432 l 385 242 l 501 242 q 649 306 597 242 q 724 521 700 371 z "},"Ď":{"ha":967,"x_min":76,"x_max":1008,"o":"m 240 1032 l 644 1032 q 928 939 847 1032 q 1008 671 1008 846 q 993 478 1008 571 q 900 195 965 300 q 731 45 835 90 q 472 0 626 0 l 76 0 l 240 1032 m 501 242 q 649 306 597 242 q 724 521 700 371 q 739 658 739 621 q 702 762 739 733 q 578 790 665 790 l 471 790 l 385 242 l 501 242 m 449 1301 l 603 1301 l 657 1217 l 740 1301 l 896 1301 l 725 1099 l 543 1099 l 449 1301 z "},"Đ":{"ha":967,"x_min":75,"x_max":1008,"o":"m 644 1032 q 928 939 847 1032 q 1008 671 1008 846 q 993 478 1008 571 q 900 195 965 300 q 731 45 835 90 q 472 0 626 0 l 76 0 l 144 432 l 75 432 l 103 604 l 172 604 l 240 1032 l 644 1032 m 724 521 q 739 658 739 621 q 702 762 739 733 q 578 790 665 790 l 471 790 l 442 604 l 553 604 l 525 432 l 415 432 l 385 242 l 501 242 q 649 306 597 242 q 724 521 700 371 z "},"Ḋ":{"ha":967,"x_min":76,"x_max":1008,"o":"m 240 1032 l 644 1032 q 928 939 847 1032 q 1008 671 1008 846 q 993 478 1008 571 q 900 195 965 300 q 731 45 835 90 q 472 0 626 0 l 76 0 l 240 1032 m 501 242 q 649 306 597 242 q 724 521 700 371 q 739 658 739 621 q 702 762 739 733 q 578 790 665 790 l 471 790 l 385 242 l 501 242 m 551 1103 q 531 1110 539 1103 q 524 1129 524 1117 l 524 1135 l 549 1289 q 586 1324 553 1324 l 711 1324 q 739 1296 739 1324 l 739 1289 l 714 1135 q 702 1111 713 1119 q 676 1103 692 1103 l 551 1103 z "},"Ḍ":{"ha":967,"x_min":76,"x_max":1008,"o":"m 240 1032 l 644 1032 q 928 939 847 1032 q 1008 671 1008 846 q 993 478 1008 571 q 900 195 965 300 q 731 45 835 90 q 472 0 626 0 l 76 0 l 240 1032 m 501 242 q 649 306 597 242 q 724 521 700 371 q 739 658 739 621 q 702 762 739 733 q 578 790 665 790 l 471 790 l 385 242 l 501 242 m 324 -328 q 303 -321 311 -328 q 296 -301 296 -314 l 296 -296 l 321 -142 q 358 -107 325 -107 l 483 -107 q 511 -135 511 -107 l 511 -142 l 486 -296 q 474 -319 485 -311 q 449 -328 464 -328 l 324 -328 z "},"Ḏ":{"ha":967,"x_min":76,"x_max":1008,"o":"m 240 1032 l 644 1032 q 928 939 847 1032 q 1008 671 1008 846 q 993 478 1008 571 q 900 195 965 300 q 731 45 835 90 q 472 0 626 0 l 76 0 l 240 1032 m 501 242 q 649 306 597 242 q 724 521 700 371 q 739 658 739 621 q 702 762 739 733 q 578 790 665 790 l 471 790 l 385 242 l 501 242 m 199 -160 l 604 -160 l 579 -318 l 174 -318 l 199 -160 z "},"E":{"ha":839,"x_min":110,"x_max":922,"o":"m 349 -8 q 183 35 256 -8 q 110 188 110 78 q 114 240 110 211 l 199 772 q 500 1032 239 1032 q 922 1011 676 1032 l 886 783 l 542 783 q 482 765 500 783 q 457 704 464 746 l 447 639 l 789 625 l 756 411 l 408 397 l 396 317 q 394 299 394 310 q 460 244 394 244 l 801 244 l 765 17 q 545 -2 638 4 q 349 -8 453 -8 z "},"É":{"ha":839,"x_min":110,"x_max":922,"o":"m 349 -8 q 183 35 256 -8 q 110 188 110 78 q 114 240 110 211 l 199 772 q 500 1032 239 1032 q 922 1011 676 1032 l 886 783 l 542 783 q 482 765 500 783 q 457 704 464 746 l 447 639 l 789 625 l 756 411 l 408 397 l 396 317 q 394 299 394 310 q 460 244 394 244 l 801 244 l 765 17 q 545 -2 638 4 q 349 -8 453 -8 m 613 1297 l 840 1297 l 672 1099 l 500 1099 l 613 1297 z "},"Ĕ":{"ha":839,"x_min":110,"x_max":922,"o":"m 349 -8 q 183 35 256 -8 q 110 188 110 78 q 114 240 110 211 l 199 772 q 500 1032 239 1032 q 922 1011 676 1032 l 886 783 l 542 783 q 482 765 500 783 q 457 704 464 746 l 447 639 l 789 625 l 756 411 l 408 397 l 396 317 q 394 299 394 310 q 460 244 394 244 l 801 244 l 765 17 q 545 -2 638 4 q 349 -8 453 -8 m 585 1083 q 457 1124 500 1083 q 414 1243 414 1164 q 419 1301 414 1260 l 543 1301 q 540 1274 540 1282 q 558 1221 540 1238 q 604 1204 576 1204 q 696 1301 681 1204 l 822 1301 q 746 1138 806 1193 q 585 1083 686 1083 z "},"Ě":{"ha":839,"x_min":110,"x_max":922,"o":"m 349 -8 q 183 35 256 -8 q 110 188 110 78 q 114 240 110 211 l 199 772 q 500 1032 239 1032 q 922 1011 676 1032 l 886 783 l 542 783 q 482 765 500 783 q 457 704 464 746 l 447 639 l 789 625 l 756 411 l 408 397 l 396 317 q 394 299 394 310 q 460 244 394 244 l 801 244 l 765 17 q 545 -2 638 4 q 349 -8 453 -8 m 421 1301 l 575 1301 l 629 1217 l 713 1301 l 868 1301 l 697 1099 l 515 1099 l 421 1301 z "},"Ḝ":{"ha":839,"x_min":110,"x_max":922,"o":"m 585 1083 q 457 1124 500 1083 q 414 1243 414 1164 q 419 1301 414 1260 l 543 1301 q 540 1274 540 1282 q 558 1221 540 1238 q 604 1204 576 1204 q 696 1301 681 1204 l 822 1301 q 746 1138 806 1193 q 585 1083 686 1083 m 542 783 q 482 765 500 783 q 457 704 464 746 l 447 639 l 789 625 l 756 411 l 408 397 l 396 317 q 394 299 394 310 q 460 244 394 244 l 801 244 l 765 17 q 461 -6 594 0 l 414 -68 q 468 -95 447 -74 q 489 -157 489 -117 q 444 -247 489 -211 q 311 -282 400 -282 l 229 -282 l 246 -172 l 268 -168 q 318 -124 318 -160 q 281 -86 318 -97 l 340 -8 q 179 36 249 -7 q 110 188 110 79 q 114 240 110 214 l 199 772 q 500 1032 239 1032 q 922 1011 676 1032 l 886 783 l 542 783 z "},"Ê":{"ha":839,"x_min":110,"x_max":922,"o":"m 349 -8 q 183 35 256 -8 q 110 188 110 78 q 114 240 110 211 l 199 772 q 500 1032 239 1032 q 922 1011 676 1032 l 886 783 l 542 783 q 482 765 500 783 q 457 704 464 746 l 447 639 l 789 625 l 756 411 l 408 397 l 396 317 q 394 299 394 310 q 460 244 394 244 l 801 244 l 765 17 q 545 -2 638 4 q 349 -8 453 -8 m 525 1301 l 707 1301 l 801 1099 l 647 1099 l 593 1183 l 510 1099 l 354 1099 l 525 1301 z "},"Ế":{"ha":839,"x_min":110,"x_max":1004,"o":"m 349 -8 q 183 35 256 -8 q 110 188 110 78 q 114 240 110 211 l 199 772 q 500 1032 239 1032 q 922 1011 676 1032 l 886 783 l 542 783 q 482 765 500 783 q 457 704 464 746 l 447 639 l 789 625 l 756 411 l 408 397 l 396 317 q 394 299 394 310 q 460 244 394 244 l 801 244 l 765 17 q 545 -2 638 4 q 349 -8 453 -8 m 804 1394 l 1004 1394 l 896 1224 l 751 1224 l 804 1394 m 532 1260 l 714 1260 l 815 1099 l 661 1099 l 600 1142 l 524 1099 l 368 1099 l 532 1260 z "},"Ệ":{"ha":839,"x_min":110,"x_max":922,"o":"m 349 -8 q 183 35 256 -8 q 110 188 110 78 q 114 240 110 211 l 199 772 q 500 1032 239 1032 q 922 1011 676 1032 l 886 783 l 542 783 q 482 765 500 783 q 457 704 464 746 l 447 639 l 789 625 l 756 411 l 408 397 l 396 317 q 394 299 394 310 q 460 244 394 244 l 801 244 l 765 17 q 545 -2 638 4 q 349 -8 453 -8 m 525 1301 l 707 1301 l 801 1099 l 647 1099 l 593 1183 l 510 1099 l 354 1099 l 525 1301 m 296 -328 q 276 -321 283 -328 q 268 -301 268 -314 l 268 -296 l 293 -142 q 331 -107 297 -107 l 456 -107 q 483 -135 483 -107 l 483 -142 l 458 -296 q 447 -319 457 -311 q 421 -328 436 -328 l 296 -328 z "},"Ề":{"ha":839,"x_min":110,"x_max":922,"o":"m 349 -8 q 183 35 256 -8 q 110 188 110 78 q 114 240 110 211 l 199 772 q 500 1032 239 1032 q 922 1011 676 1032 l 886 783 l 542 783 q 482 765 500 783 q 457 704 464 746 l 447 639 l 789 625 l 756 411 l 408 397 l 396 317 q 394 299 394 310 q 460 244 394 244 l 801 244 l 765 17 q 545 -2 638 4 q 349 -8 453 -8 m 279 1394 l 479 1394 l 476 1224 l 332 1224 l 279 1394 m 532 1260 l 714 1260 l 815 1099 l 661 1099 l 600 1142 l 524 1099 l 368 1099 l 532 1260 z "},"Ể":{"ha":839,"x_min":110,"x_max":958,"o":"m 349 -8 q 183 35 256 -8 q 110 188 110 78 q 114 240 110 211 l 199 772 q 500 1032 239 1032 q 922 1011 676 1032 l 886 783 l 542 783 q 482 765 500 783 q 457 704 464 746 l 447 639 l 789 625 l 756 411 l 408 397 l 396 317 q 394 299 394 310 q 460 244 394 244 l 801 244 l 765 17 q 545 -2 638 4 q 349 -8 453 -8 m 796 1281 q 821 1299 814 1290 q 828 1318 828 1307 q 811 1331 828 1331 q 767 1322 794 1331 l 783 1425 q 863 1438 824 1438 q 935 1417 911 1438 q 958 1353 958 1396 q 916 1248 958 1292 q 779 1178 874 1204 l 796 1281 m 532 1260 l 714 1260 l 815 1099 l 661 1099 l 600 1142 l 524 1099 l 368 1099 l 532 1260 z "},"Ễ":{"ha":839,"x_min":110,"x_max":922,"o":"m 349 -8 q 183 35 256 -8 q 110 188 110 78 q 114 240 110 211 l 199 772 q 500 1032 239 1032 q 922 1011 676 1032 l 886 783 l 542 783 q 482 765 500 783 q 457 704 464 746 l 447 639 l 789 625 l 756 411 l 408 397 l 396 317 q 394 299 394 310 q 460 244 394 244 l 801 244 l 765 17 q 545 -2 638 4 q 349 -8 453 -8 m 381 1313 q 447 1437 404 1406 q 558 1468 489 1468 q 646 1453 590 1468 q 696 1442 682 1442 q 743 1478 736 1442 l 876 1478 q 812 1349 851 1382 q 700 1315 772 1315 q 641 1323 671 1315 q 606 1332 611 1331 q 561 1342 574 1342 q 530 1333 542 1342 q 514 1313 518 1324 l 381 1313 m 533 1260 l 715 1260 l 815 1099 l 661 1099 l 600 1142 l 524 1099 l 368 1099 l 533 1260 z "},"Ȅ":{"ha":839,"x_min":110,"x_max":922,"o":"m 349 -8 q 183 35 256 -8 q 110 188 110 78 q 114 240 110 211 l 199 772 q 500 1032 239 1032 q 922 1011 676 1032 l 886 783 l 542 783 q 482 765 500 783 q 457 704 464 746 l 447 639 l 789 625 l 756 411 l 408 397 l 396 317 q 394 299 394 310 q 460 244 394 244 l 801 244 l 765 17 q 545 -2 638 4 q 349 -8 453 -8 m 268 1297 l 482 1297 l 544 1099 l 386 1099 l 268 1297 m 546 1297 l 760 1297 l 822 1099 l 664 1099 l 546 1297 z "},"Ë":{"ha":839,"x_min":110,"x_max":922,"o":"m 349 -8 q 183 35 256 -8 q 110 188 110 78 q 114 240 110 211 l 199 772 q 500 1032 239 1032 q 922 1011 676 1032 l 886 783 l 542 783 q 482 765 500 783 q 457 704 464 746 l 447 639 l 789 625 l 756 411 l 408 397 l 396 317 q 394 299 394 310 q 460 244 394 244 l 801 244 l 765 17 q 545 -2 638 4 q 349 -8 453 -8 m 389 1093 q 369 1100 376 1093 q 361 1119 361 1107 l 388 1279 q 424 1314 392 1314 l 549 1314 q 576 1286 576 1314 l 551 1125 q 540 1101 550 1110 q 514 1093 529 1093 l 389 1093 m 663 1093 q 642 1100 650 1093 q 635 1119 635 1107 l 661 1279 q 697 1314 665 1314 l 822 1314 q 850 1286 850 1314 l 825 1125 q 813 1101 824 1110 q 788 1093 803 1093 l 663 1093 z "},"Ė":{"ha":839,"x_min":110,"x_max":922,"o":"m 349 -8 q 183 35 256 -8 q 110 188 110 78 q 114 240 110 211 l 199 772 q 500 1032 239 1032 q 922 1011 676 1032 l 886 783 l 542 783 q 482 765 500 783 q 457 704 464 746 l 447 639 l 789 625 l 756 411 l 408 397 l 396 317 q 394 299 394 310 q 460 244 394 244 l 801 244 l 765 17 q 545 -2 638 4 q 349 -8 453 -8 m 524 1103 q 503 1110 511 1103 q 496 1129 496 1117 l 496 1135 l 521 1289 q 558 1324 525 1324 l 683 1324 q 711 1296 711 1324 l 711 1289 l 686 1135 q 674 1111 685 1119 q 649 1103 664 1103 l 524 1103 z "},"Ẹ":{"ha":839,"x_min":110,"x_max":922,"o":"m 349 -8 q 183 35 256 -8 q 110 188 110 78 q 114 240 110 211 l 199 772 q 500 1032 239 1032 q 922 1011 676 1032 l 886 783 l 542 783 q 482 765 500 783 q 457 704 464 746 l 447 639 l 789 625 l 756 411 l 408 397 l 396 317 q 394 299 394 310 q 460 244 394 244 l 801 244 l 765 17 q 545 -2 638 4 q 349 -8 453 -8 m 296 -328 q 276 -321 283 -328 q 268 -301 268 -314 l 268 -296 l 293 -142 q 331 -107 297 -107 l 456 -107 q 483 -135 483 -107 l 483 -142 l 458 -296 q 447 -319 457 -311 q 421 -328 436 -328 l 296 -328 z "},"È":{"ha":839,"x_min":110,"x_max":922,"o":"m 349 -8 q 183 35 256 -8 q 110 188 110 78 q 114 240 110 211 l 199 772 q 500 1032 239 1032 q 922 1011 676 1032 l 886 783 l 542 783 q 482 765 500 783 q 457 704 464 746 l 447 639 l 789 625 l 756 411 l 408 397 l 396 317 q 394 299 394 310 q 460 244 394 244 l 801 244 l 765 17 q 545 -2 638 4 q 349 -8 453 -8 m 421 1297 l 635 1297 l 697 1099 l 539 1099 l 421 1297 z "},"Ẻ":{"ha":839,"x_min":110,"x_max":922,"o":"m 349 -8 q 183 35 256 -8 q 110 188 110 78 q 114 240 110 211 l 199 772 q 500 1032 239 1032 q 922 1011 676 1032 l 886 783 l 542 783 q 482 765 500 783 q 457 704 464 746 l 447 639 l 789 625 l 756 411 l 408 397 l 396 317 q 394 299 394 310 q 460 244 394 244 l 801 244 l 765 17 q 545 -2 638 4 q 349 -8 453 -8 m 582 1169 q 629 1213 629 1182 q 599 1231 629 1231 q 556 1222 586 1231 l 572 1325 q 653 1338 613 1338 q 772 1236 772 1338 q 564 1053 772 1110 l 582 1169 z "},"Ȇ":{"ha":839,"x_min":110,"x_max":922,"o":"m 349 -8 q 183 35 256 -8 q 110 188 110 78 q 114 240 110 211 l 199 772 q 500 1032 239 1032 q 922 1011 676 1032 l 886 783 l 542 783 q 482 765 500 783 q 457 704 464 746 l 447 639 l 789 625 l 756 411 l 408 397 l 396 317 q 394 299 394 310 q 460 244 394 244 l 801 244 l 765 17 q 545 -2 638 4 q 349 -8 453 -8 m 397 1088 q 474 1251 414 1196 q 635 1306 533 1306 q 763 1265 719 1306 q 806 1146 806 1225 q 800 1088 806 1129 l 676 1088 q 679 1115 679 1107 q 661 1168 679 1151 q 615 1185 643 1185 q 524 1088 539 1185 l 397 1088 z "},"Ē":{"ha":839,"x_min":110,"x_max":922,"o":"m 349 -8 q 183 35 256 -8 q 110 188 110 78 q 114 240 110 211 l 199 772 q 500 1032 239 1032 q 922 1011 676 1032 l 886 783 l 542 783 q 482 765 500 783 q 457 704 464 746 l 447 639 l 789 625 l 756 411 l 408 397 l 396 317 q 394 299 394 310 q 460 244 394 244 l 801 244 l 765 17 q 545 -2 638 4 q 349 -8 453 -8 m 413 1257 l 818 1257 l 793 1099 l 388 1099 l 413 1257 z "},"Ḗ":{"ha":839,"x_min":110,"x_max":922,"o":"m 349 -8 q 183 35 256 -8 q 110 188 110 78 q 114 240 110 211 l 199 772 q 500 1032 239 1032 q 922 1011 676 1032 l 886 783 l 542 783 q 482 765 500 783 q 457 704 464 746 l 447 639 l 789 625 l 756 411 l 408 397 l 396 317 q 394 299 394 310 q 460 244 394 244 l 801 244 l 765 17 q 545 -2 638 4 q 349 -8 453 -8 m 413 1257 l 818 1257 l 793 1099 l 388 1099 l 413 1257 m 626 1519 l 854 1519 l 686 1321 l 514 1321 l 626 1519 z "},"Ḕ":{"ha":839,"x_min":110,"x_max":922,"o":"m 349 -8 q 183 35 256 -8 q 110 188 110 78 q 114 240 110 211 l 199 772 q 500 1032 239 1032 q 922 1011 676 1032 l 886 783 l 542 783 q 482 765 500 783 q 457 704 464 746 l 447 639 l 789 625 l 756 411 l 408 397 l 396 317 q 394 299 394 310 q 460 244 394 244 l 801 244 l 765 17 q 545 -2 638 4 q 349 -8 453 -8 m 413 1257 l 818 1257 l 793 1099 l 388 1099 l 413 1257 m 407 1519 l 621 1519 l 683 1321 l 525 1321 l 407 1519 z "},"Ę":{"ha":839,"x_min":110,"x_max":922,"o":"m 542 783 q 482 765 500 783 q 457 704 464 746 l 447 639 l 789 625 l 756 411 l 408 397 l 396 317 q 394 299 394 310 q 460 244 394 244 l 801 244 l 765 17 q 713 -31 729 -6 q 697 -75 697 -56 q 712 -110 697 -97 q 747 -124 726 -124 l 761 -124 l 742 -249 q 690 -256 725 -256 q 590 -225 621 -256 q 560 -150 560 -194 q 585 -60 560 -100 q 651 6 610 -21 q 349 -8 463 -8 q 183 35 256 -8 q 110 188 110 78 q 114 240 110 211 l 199 772 q 500 1032 239 1032 q 922 1011 676 1032 l 886 783 l 542 783 z "},"Ẽ":{"ha":839,"x_min":110,"x_max":922,"o":"m 349 -8 q 183 35 256 -8 q 110 188 110 78 q 114 240 110 211 l 199 772 q 500 1032 239 1032 q 922 1011 676 1032 l 886 783 l 542 783 q 482 765 500 783 q 457 704 464 746 l 447 639 l 789 625 l 756 411 l 408 397 l 396 317 q 394 299 394 310 q 460 244 394 244 l 801 244 l 765 17 q 545 -2 638 4 q 349 -8 453 -8 m 321 1090 q 393 1237 346 1193 q 506 1281 440 1281 q 564 1274 538 1281 q 626 1257 590 1268 q 696 1240 669 1240 q 744 1290 735 1240 l 878 1290 q 807 1139 850 1185 q 696 1093 764 1093 q 637 1099 665 1093 q 567 1118 608 1106 q 504 1133 521 1133 q 454 1090 471 1133 l 321 1090 z "},"F":{"ha":794,"x_min":76,"x_max":919,"o":"m 200 782 q 304 976 222 919 q 497 1032 386 1032 q 919 1010 708 1032 l 883 782 l 542 782 q 481 763 500 782 q 457 706 463 744 l 440 596 l 785 583 l 750 369 l 403 356 l 346 0 l 76 0 l 200 782 z "},"Ḟ":{"ha":794,"x_min":76,"x_max":919,"o":"m 200 782 q 304 976 222 919 q 497 1032 386 1032 q 919 1010 708 1032 l 883 782 l 542 782 q 481 763 500 782 q 457 706 463 744 l 440 596 l 785 583 l 750 369 l 403 356 l 346 0 l 76 0 l 200 782 m 538 1103 q 517 1110 525 1103 q 510 1129 510 1117 l 510 1135 l 535 1289 q 572 1324 539 1324 l 697 1324 q 725 1296 725 1324 l 725 1289 l 700 1135 q 688 1111 699 1119 q 663 1103 678 1103 l 538 1103 z "},"G":{"ha":925,"x_min":114,"x_max":968,"o":"m 382 -8 q 176 70 238 -8 q 114 321 114 149 q 139 569 114 411 q 292 925 176 810 q 600 1040 407 1040 q 810 1027 726 1040 q 968 990 894 1014 l 935 779 q 635 800 828 800 q 511 775 554 800 q 444 690 468 750 q 403 511 421 631 q 386 347 386 406 q 479 240 386 240 q 570 244 521 240 q 644 254 619 249 l 665 388 l 522 388 l 557 601 l 608 606 q 788 615 715 615 q 960 613 896 615 l 863 0 l 660 0 l 635 68 q 513 16 592 40 q 382 -8 435 -8 z "},"Ğ":{"ha":925,"x_min":114,"x_max":968,"o":"m 382 -8 q 176 70 238 -8 q 114 321 114 149 q 139 569 114 411 q 292 925 176 810 q 600 1040 407 1040 q 810 1027 726 1040 q 968 990 894 1014 l 935 779 q 635 800 828 800 q 511 775 554 800 q 444 690 468 750 q 403 511 421 631 q 386 347 386 406 q 479 240 386 240 q 570 244 521 240 q 644 254 619 249 l 665 388 l 522 388 l 557 601 l 608 606 q 788 615 715 615 q 960 613 896 615 l 863 0 l 660 0 l 635 68 q 513 16 592 40 q 382 -8 435 -8 m 613 1083 q 485 1124 528 1083 q 442 1243 442 1164 q 447 1301 442 1260 l 571 1301 q 568 1274 568 1282 q 586 1221 568 1238 q 632 1204 604 1204 q 724 1301 708 1204 l 850 1301 q 774 1138 833 1193 q 613 1083 714 1083 z "},"Ǧ":{"ha":925,"x_min":114,"x_max":968,"o":"m 382 -8 q 176 70 238 -8 q 114 321 114 149 q 139 569 114 411 q 292 925 176 810 q 600 1040 407 1040 q 810 1027 726 1040 q 968 990 894 1014 l 935 779 q 635 800 828 800 q 511 775 554 800 q 444 690 468 750 q 403 511 421 631 q 386 347 386 406 q 479 240 386 240 q 570 244 521 240 q 644 254 619 249 l 665 388 l 522 388 l 557 601 l 608 606 q 788 615 715 615 q 960 613 896 615 l 863 0 l 660 0 l 635 68 q 513 16 592 40 q 382 -8 435 -8 m 449 1301 l 603 1301 l 657 1217 l 740 1301 l 896 1301 l 725 1099 l 543 1099 l 449 1301 z "},"Ĝ":{"ha":925,"x_min":114,"x_max":968,"o":"m 382 -8 q 176 70 238 -8 q 114 321 114 149 q 139 569 114 411 q 292 925 176 810 q 600 1040 407 1040 q 810 1027 726 1040 q 968 990 894 1014 l 935 779 q 635 800 828 800 q 511 775 554 800 q 444 690 468 750 q 403 511 421 631 q 386 347 386 406 q 479 240 386 240 q 570 244 521 240 q 644 254 619 249 l 665 388 l 522 388 l 557 601 l 608 606 q 788 615 715 615 q 960 613 896 615 l 863 0 l 660 0 l 635 68 q 513 16 592 40 q 382 -8 435 -8 m 553 1301 l 735 1301 l 829 1099 l 675 1099 l 621 1183 l 538 1099 l 382 1099 l 553 1301 z "},"Ģ":{"ha":925,"x_min":114,"x_max":968,"o":"m 382 -8 q 176 70 238 -8 q 114 321 114 149 q 139 569 114 411 q 292 925 176 810 q 600 1040 407 1040 q 810 1027 726 1040 q 968 990 894 1014 l 935 779 q 635 800 828 800 q 511 775 554 800 q 444 690 468 750 q 403 511 421 631 q 386 347 386 406 q 479 240 386 240 q 570 244 521 240 q 644 254 619 249 l 665 388 l 522 388 l 557 601 l 608 606 q 788 615 715 615 q 960 613 896 615 l 863 0 l 660 0 l 635 68 q 513 16 592 40 q 382 -8 435 -8 m 254 -203 l 292 -190 q 340 -164 328 -179 q 358 -110 353 -149 l 521 -110 q 460 -265 504 -218 q 321 -312 415 -312 l 236 -312 l 254 -203 z "},"Ġ":{"ha":925,"x_min":114,"x_max":968,"o":"m 382 -8 q 176 70 238 -8 q 114 321 114 149 q 139 569 114 411 q 292 925 176 810 q 600 1040 407 1040 q 810 1027 726 1040 q 968 990 894 1014 l 935 779 q 635 800 828 800 q 511 775 554 800 q 444 690 468 750 q 403 511 421 631 q 386 347 386 406 q 479 240 386 240 q 570 244 521 240 q 644 254 619 249 l 665 388 l 522 388 l 557 601 l 608 606 q 788 615 715 615 q 960 613 896 615 l 863 0 l 660 0 l 635 68 q 513 16 592 40 q 382 -8 435 -8 m 551 1103 q 531 1110 539 1103 q 524 1129 524 1117 l 524 1135 l 549 1289 q 586 1324 553 1324 l 711 1324 q 739 1296 739 1324 l 739 1289 l 714 1135 q 702 1111 713 1119 q 676 1103 692 1103 l 551 1103 z "},"Ḡ":{"ha":925,"x_min":114,"x_max":968,"o":"m 382 -8 q 176 70 238 -8 q 114 321 114 149 q 139 569 114 411 q 292 925 176 810 q 600 1040 407 1040 q 810 1027 726 1040 q 968 990 894 1014 l 935 779 q 635 800 828 800 q 511 775 554 800 q 444 690 468 750 q 403 511 421 631 q 386 347 386 406 q 479 240 386 240 q 570 244 521 240 q 644 254 619 249 l 665 388 l 522 388 l 557 601 l 608 606 q 788 615 715 615 q 960 613 896 615 l 863 0 l 660 0 l 635 68 q 513 16 592 40 q 382 -8 435 -8 m 440 1257 l 846 1257 l 821 1099 l 415 1099 l 440 1257 z "},"H":{"ha":983,"x_min":76,"x_max":1085,"o":"m 240 1032 l 510 1032 l 446 635 l 751 635 l 815 1032 l 1085 1032 l 921 0 l 651 0 l 714 393 l 408 393 l 346 0 l 76 0 l 240 1032 z "},"Ħ":{"ha":983,"x_min":76,"x_max":1117,"o":"m 1096 713 l 1033 713 l 921 0 l 651 0 l 714 393 l 408 393 l 346 0 l 76 0 l 189 713 l 126 713 l 147 843 l 210 843 l 240 1032 l 510 1032 l 479 843 l 785 843 l 815 1032 l 1085 1032 l 1054 843 l 1117 843 l 1096 713 m 764 713 l 458 713 l 446 635 l 751 635 l 764 713 z "},"Ḫ":{"ha":983,"x_min":76,"x_max":1085,"o":"m 240 1032 l 510 1032 l 446 635 l 751 635 l 815 1032 l 1085 1032 l 921 0 l 651 0 l 714 393 l 408 393 l 346 0 l 76 0 l 240 1032 m 440 -319 q 313 -279 356 -319 q 269 -160 269 -239 q 275 -101 269 -143 l 399 -101 q 396 -129 396 -121 q 414 -182 396 -165 q 460 -199 432 -199 q 551 -101 536 -199 l 678 -101 q 601 -265 661 -210 q 440 -319 542 -319 z "},"Ĥ":{"ha":983,"x_min":76,"x_max":1085,"o":"m 240 1032 l 510 1032 l 446 635 l 751 635 l 815 1032 l 1085 1032 l 921 0 l 651 0 l 714 393 l 408 393 l 346 0 l 76 0 l 240 1032 m 597 1301 l 779 1301 l 874 1099 l 719 1099 l 665 1183 l 582 1099 l 426 1099 l 597 1301 z "},"Ḥ":{"ha":983,"x_min":76,"x_max":1085,"o":"m 240 1032 l 510 1032 l 446 635 l 751 635 l 815 1032 l 1085 1032 l 921 0 l 651 0 l 714 393 l 408 393 l 346 0 l 76 0 l 240 1032 m 368 -328 q 348 -321 356 -328 q 340 -301 340 -314 l 340 -296 l 365 -142 q 403 -107 369 -107 l 528 -107 q 556 -135 556 -107 l 556 -142 l 531 -296 q 519 -319 529 -311 q 493 -328 508 -328 l 368 -328 z "},"I":{"ha":422,"x_min":76,"x_max":510,"o":"m 240 1032 l 510 1032 l 346 0 l 76 0 l 240 1032 z "},"Í":{"ha":422,"x_min":76,"x_max":632,"o":"m 240 1032 l 510 1032 l 346 0 l 76 0 l 240 1032 m 404 1297 l 632 1297 l 464 1099 l 292 1099 l 404 1297 z "},"Ĭ":{"ha":422,"x_min":76,"x_max":614,"o":"m 240 1032 l 510 1032 l 346 0 l 76 0 l 240 1032 m 376 1083 q 249 1124 292 1083 q 206 1243 206 1164 q 211 1301 206 1260 l 335 1301 q 332 1274 332 1282 q 350 1221 332 1238 q 396 1204 368 1204 q 488 1301 472 1204 l 614 1301 q 538 1138 597 1193 q 376 1083 478 1083 z "},"Î":{"ha":422,"x_min":76,"x_max":593,"o":"m 240 1032 l 510 1032 l 346 0 l 76 0 l 240 1032 m 317 1301 l 499 1301 l 593 1099 l 439 1099 l 385 1183 l 301 1099 l 146 1099 l 317 1301 z "},"Ȉ":{"ha":422,"x_min":60,"x_max":614,"o":"m 240 1032 l 510 1032 l 346 0 l 76 0 l 240 1032 m 60 1297 l 274 1297 l 336 1099 l 178 1099 l 60 1297 m 338 1297 l 551 1297 l 614 1099 l 456 1099 l 338 1297 z "},"Ï":{"ha":422,"x_min":76,"x_max":642,"o":"m 240 1032 l 510 1032 l 346 0 l 76 0 l 240 1032 m 181 1093 q 160 1100 168 1093 q 153 1119 153 1107 l 179 1279 q 215 1314 183 1314 l 340 1314 q 368 1286 368 1314 l 343 1125 q 331 1101 342 1110 q 306 1093 321 1093 l 181 1093 m 454 1093 q 434 1100 442 1093 q 426 1119 426 1107 l 453 1279 q 489 1314 457 1314 l 614 1314 q 642 1286 642 1314 l 617 1125 q 605 1101 615 1110 q 579 1093 594 1093 l 454 1093 z "},"Ḯ":{"ha":422,"x_min":76,"x_max":660,"o":"m 240 1032 l 510 1032 l 346 0 l 76 0 l 240 1032 m 181 1093 q 160 1100 168 1093 q 153 1119 153 1107 l 179 1279 q 215 1314 183 1314 l 340 1314 q 368 1286 368 1314 l 343 1125 q 331 1101 342 1110 q 306 1093 321 1093 l 181 1093 m 454 1093 q 434 1100 442 1093 q 426 1119 426 1107 l 453 1279 q 489 1314 457 1314 l 614 1314 q 642 1286 642 1314 l 617 1125 q 605 1101 615 1110 q 579 1093 594 1093 l 454 1093 m 432 1547 l 660 1547 l 492 1349 l 319 1349 l 432 1547 z "},"İ":{"ha":422,"x_min":76,"x_max":510,"o":"m 240 1032 l 510 1032 l 346 0 l 76 0 l 240 1032 m 315 1103 q 295 1110 303 1103 q 288 1129 288 1117 l 288 1135 l 313 1289 q 350 1324 317 1324 l 475 1324 q 503 1296 503 1324 l 503 1289 l 478 1135 q 466 1111 476 1119 q 440 1103 456 1103 l 315 1103 z "},"Ị":{"ha":422,"x_min":60,"x_max":510,"o":"m 240 1032 l 510 1032 l 346 0 l 76 0 l 240 1032 m 88 -328 q 67 -321 75 -328 q 60 -301 60 -314 l 60 -296 l 85 -142 q 122 -107 89 -107 l 247 -107 q 275 -135 275 -107 l 275 -142 l 250 -296 q 238 -319 249 -311 q 213 -328 228 -328 l 88 -328 z "},"Ì":{"ha":422,"x_min":76,"x_max":510,"o":"m 240 1032 l 510 1032 l 346 0 l 76 0 l 240 1032 m 213 1297 l 426 1297 l 489 1099 l 331 1099 l 213 1297 z "},"Ỉ":{"ha":422,"x_min":76,"x_max":564,"o":"m 240 1032 l 510 1032 l 346 0 l 76 0 l 240 1032 m 374 1169 q 421 1213 421 1182 q 390 1231 421 1231 q 347 1222 378 1231 l 364 1325 q 444 1338 404 1338 q 564 1236 564 1338 q 356 1053 564 1110 l 374 1169 z "},"Ȋ":{"ha":422,"x_min":76,"x_max":597,"o":"m 240 1032 l 510 1032 l 346 0 l 76 0 l 240 1032 m 189 1088 q 265 1251 206 1196 q 426 1306 325 1306 q 554 1265 511 1306 q 597 1146 597 1225 q 592 1088 597 1129 l 468 1088 q 471 1115 471 1107 q 453 1168 471 1151 q 407 1185 435 1185 q 315 1088 331 1185 l 189 1088 z "},"Ī":{"ha":422,"x_min":76,"x_max":610,"o":"m 240 1032 l 510 1032 l 346 0 l 76 0 l 240 1032 m 204 1257 l 610 1257 l 585 1099 l 179 1099 l 204 1257 z "},"Į":{"ha":422,"x_min":76,"x_max":510,"o":"m 240 1032 l 510 1032 l 346 0 l 76 0 l 240 1032 m 271 -272 q 171 -242 201 -272 q 140 -167 140 -211 q 170 -69 140 -111 q 250 0 200 -26 l 346 0 q 294 -47 310 -22 q 278 -92 278 -72 q 292 -127 278 -114 q 328 -140 307 -140 l 342 -140 l 322 -265 q 271 -272 306 -272 z "},"Ĩ":{"ha":422,"x_min":76,"x_max":669,"o":"m 240 1032 l 510 1032 l 346 0 l 76 0 l 240 1032 m 113 1090 q 185 1237 138 1193 q 297 1281 232 1281 q 356 1274 329 1281 q 418 1257 382 1268 q 488 1240 461 1240 q 536 1290 526 1240 l 669 1290 q 599 1139 642 1185 q 488 1093 556 1093 q 428 1099 457 1093 q 358 1118 400 1106 q 296 1133 313 1133 q 246 1090 263 1133 l 113 1090 z "},"J":{"ha":579,"x_min":47,"x_max":667,"o":"m 218 -8 q 126 0 175 -8 q 47 21 78 8 l 82 236 l 171 236 q 252 258 226 236 q 285 322 278 279 l 397 1032 l 667 1032 l 544 263 q 446 53 521 115 q 218 -8 371 -8 z "},"Ĵ":{"ha":579,"x_min":47,"x_max":747,"o":"m 218 -8 q 126 0 175 -8 q 47 21 78 8 l 82 236 l 171 236 q 252 258 226 236 q 285 322 278 279 l 397 1032 l 667 1032 l 544 263 q 446 53 521 115 q 218 -8 371 -8 m 471 1301 l 653 1301 l 747 1099 l 593 1099 l 539 1183 l 456 1099 l 300 1099 l 471 1301 z "},"K":{"ha":932,"x_min":76,"x_max":1068,"o":"m 240 1032 l 510 1032 l 447 639 l 553 639 l 794 1032 l 1068 1032 l 750 513 l 932 0 l 665 0 l 529 397 l 408 397 l 346 0 l 76 0 l 240 1032 z "},"Ķ":{"ha":932,"x_min":76,"x_max":1068,"o":"m 240 1032 l 510 1032 l 447 639 l 553 639 l 794 1032 l 1068 1032 l 750 513 l 932 0 l 665 0 l 529 397 l 408 397 l 346 0 l 76 0 l 240 1032 m 268 -203 l 306 -190 q 354 -164 342 -179 q 372 -110 367 -149 l 535 -110 q 474 -265 518 -218 q 335 -312 429 -312 l 250 -312 l 268 -203 z "},"L":{"ha":746,"x_min":115,"x_max":757,"o":"m 338 0 q 174 52 232 0 q 115 208 115 104 q 121 278 115 244 l 240 1032 l 510 1032 l 396 314 q 394 296 394 307 q 460 242 394 242 l 757 242 l 718 0 l 338 0 z "},"Ĺ":{"ha":746,"x_min":115,"x_max":757,"o":"m 338 0 q 174 52 232 0 q 115 208 115 104 q 121 278 115 244 l 240 1032 l 510 1032 l 396 314 q 394 296 394 307 q 460 242 394 242 l 757 242 l 718 0 l 338 0 m 404 1297 l 632 1297 l 464 1099 l 292 1099 l 404 1297 z "},"Ľ":{"ha":746,"x_min":115,"x_max":851,"o":"m 338 0 q 174 52 232 0 q 115 208 115 104 q 121 278 115 244 l 240 1032 l 510 1032 l 396 314 q 394 296 394 307 q 460 242 394 242 l 757 242 l 718 0 l 338 0 m 593 967 l 608 1060 l 851 1060 l 836 967 l 793 781 l 579 781 l 593 967 z "},"Ļ":{"ha":746,"x_min":115,"x_max":757,"o":"m 338 0 q 174 52 232 0 q 115 208 115 104 q 121 278 115 244 l 240 1032 l 510 1032 l 396 314 q 394 296 394 307 q 460 242 394 242 l 757 242 l 718 0 l 338 0 m 185 -203 l 222 -190 q 271 -164 258 -179 q 289 -110 283 -149 l 451 -110 q 390 -265 435 -218 q 251 -312 346 -312 l 167 -312 l 185 -203 z "},"Ŀ":{"ha":746,"x_min":115,"x_max":781,"o":"m 338 0 q 174 52 232 0 q 115 208 115 104 q 121 278 115 244 l 240 1032 l 510 1032 l 396 314 q 394 296 394 307 q 460 242 394 242 l 757 242 l 718 0 l 338 0 m 557 493 q 534 502 542 493 q 528 525 526 511 l 554 688 q 567 713 557 703 q 593 722 576 722 l 750 722 q 779 688 786 722 l 753 525 q 714 493 747 493 l 557 493 z "},"Ḷ":{"ha":746,"x_min":115,"x_max":757,"o":"m 338 0 q 174 52 232 0 q 115 208 115 104 q 121 278 115 244 l 240 1032 l 510 1032 l 396 314 q 394 296 394 307 q 460 242 394 242 l 757 242 l 718 0 l 338 0 m 254 -328 q 234 -321 242 -328 q 226 -301 226 -314 l 226 -296 l 251 -142 q 289 -107 256 -107 l 414 -107 q 442 -135 442 -107 l 442 -142 l 417 -296 q 405 -319 415 -311 q 379 -328 394 -328 l 254 -328 z "},"Ḻ":{"ha":746,"x_min":104,"x_max":757,"o":"m 338 0 q 174 52 232 0 q 115 208 115 104 q 121 278 115 244 l 240 1032 l 510 1032 l 396 314 q 394 296 394 307 q 460 242 394 242 l 757 242 l 718 0 l 338 0 m 129 -160 l 535 -160 l 510 -318 l 104 -318 l 129 -160 z "},"Ł":{"ha":746,"x_min":65,"x_max":757,"o":"m 757 242 l 718 0 l 338 0 q 174 52 232 0 q 115 208 115 104 q 121 278 115 244 l 147 446 l 65 413 l 88 553 l 169 586 l 240 1032 l 510 1032 l 453 669 l 644 749 l 622 608 l 431 529 l 396 314 q 394 296 394 307 q 460 242 394 242 l 757 242 z "},"M":{"ha":1258,"x_min":42,"x_max":1263,"o":"m 335 1032 l 588 1032 l 685 307 l 1013 1032 l 1263 1032 l 1222 0 l 963 0 l 985 556 l 760 0 l 507 0 l 458 544 l 308 0 l 42 0 l 335 1032 z "},"Ṁ":{"ha":1258,"x_min":42,"x_max":1263,"o":"m 335 1032 l 588 1032 l 685 307 l 1013 1032 l 1263 1032 l 1222 0 l 963 0 l 985 556 l 760 0 l 507 0 l 458 544 l 308 0 l 42 0 l 335 1032 m 718 1103 q 698 1110 706 1103 q 690 1129 690 1117 l 690 1135 l 715 1289 q 753 1324 719 1324 l 878 1324 q 906 1296 906 1324 l 906 1289 l 881 1135 q 869 1111 879 1119 q 843 1103 858 1103 l 718 1103 z "},"Ṃ":{"ha":1258,"x_min":42,"x_max":1263,"o":"m 335 1032 l 588 1032 l 685 307 l 1013 1032 l 1263 1032 l 1222 0 l 963 0 l 985 556 l 760 0 l 507 0 l 458 544 l 308 0 l 42 0 l 335 1032 m 490 -328 q 470 -321 478 -328 q 463 -301 463 -314 l 463 -296 l 488 -142 q 525 -107 492 -107 l 650 -107 q 678 -135 678 -107 l 678 -142 l 653 -296 q 641 -319 651 -311 q 615 -328 631 -328 l 490 -328 z "},"N":{"ha":985,"x_min":76,"x_max":1086,"o":"m 240 1032 l 454 1032 l 725 457 l 817 1032 l 1086 1032 l 922 0 l 708 0 l 438 575 l 346 0 l 76 0 l 240 1032 z "},"Ń":{"ha":985,"x_min":76,"x_max":1086,"o":"m 240 1032 l 454 1032 l 725 457 l 817 1032 l 1086 1032 l 922 0 l 708 0 l 438 575 l 346 0 l 76 0 l 240 1032 m 657 1297 l 885 1297 l 717 1099 l 544 1099 l 657 1297 z "},"Ň":{"ha":985,"x_min":76,"x_max":1086,"o":"m 240 1032 l 454 1032 l 725 457 l 817 1032 l 1086 1032 l 922 0 l 708 0 l 438 575 l 346 0 l 76 0 l 240 1032 m 465 1301 l 619 1301 l 674 1217 l 757 1301 l 913 1301 l 742 1099 l 560 1099 l 465 1301 z "},"Ņ":{"ha":985,"x_min":76,"x_max":1086,"o":"m 240 1032 l 454 1032 l 725 457 l 817 1032 l 1086 1032 l 922 0 l 708 0 l 438 575 l 346 0 l 76 0 l 240 1032 m 271 -203 l 308 -190 q 357 -164 344 -179 q 375 -110 369 -149 l 538 -110 q 476 -265 521 -218 q 338 -312 432 -312 l 253 -312 l 271 -203 z "},"Ṅ":{"ha":985,"x_min":76,"x_max":1086,"o":"m 240 1032 l 454 1032 l 725 457 l 817 1032 l 1086 1032 l 922 0 l 708 0 l 438 575 l 346 0 l 76 0 l 240 1032 m 340 -328 q 320 -321 328 -328 q 313 -301 313 -314 l 313 -296 l 338 -142 q 375 -107 342 -107 l 500 -107 q 528 -135 528 -107 l 528 -142 l 503 -296 q 491 -319 501 -311 q 465 -328 481 -328 l 340 -328 z "},"Ṇ":{"ha":985,"x_min":76,"x_max":1086,"o":"m 240 1032 l 454 1032 l 725 457 l 817 1032 l 1086 1032 l 922 0 l 708 0 l 438 575 l 346 0 l 76 0 l 240 1032 m 340 -328 q 320 -321 328 -328 q 313 -301 313 -314 l 313 -296 l 338 -142 q 375 -107 342 -107 l 500 -107 q 528 -135 528 -107 l 528 -142 l 503 -296 q 491 -319 501 -311 q 465 -328 481 -328 l 340 -328 z "},"Ŋ":{"ha":985,"x_min":76,"x_max":1086,"o":"m 914 -54 q 812 -265 892 -193 q 579 -337 732 -337 q 407 -312 488 -337 l 442 -96 l 564 -96 q 651 -12 638 -96 l 667 88 l 438 575 l 346 0 l 76 0 l 240 1032 l 454 1032 l 725 457 l 817 1032 l 1086 1032 l 914 -54 z "},"Ṉ":{"ha":985,"x_min":76,"x_max":1086,"o":"m 240 1032 l 454 1032 l 725 457 l 817 1032 l 1086 1032 l 922 0 l 708 0 l 438 575 l 346 0 l 76 0 l 240 1032 m 215 -160 l 621 -160 l 596 -318 l 190 -318 l 215 -160 z "},"Ñ":{"ha":985,"x_min":76,"x_max":1086,"o":"m 240 1032 l 454 1032 l 725 457 l 817 1032 l 1086 1032 l 922 0 l 708 0 l 438 575 l 346 0 l 76 0 l 240 1032 m 365 1090 q 438 1237 390 1193 q 550 1281 485 1281 q 608 1274 582 1281 q 671 1257 635 1268 q 740 1240 714 1240 q 789 1290 779 1240 l 922 1290 q 851 1139 894 1185 q 740 1093 808 1093 q 681 1099 710 1093 q 611 1118 653 1106 q 549 1133 565 1133 q 499 1090 515 1133 l 365 1090 z "},"O":{"ha":978,"x_min":115,"x_max":1024,"o":"m 486 -8 q 287 19 367 -8 q 161 122 207 47 q 115 332 115 197 q 136 553 115 428 q 227 846 167 740 q 390 996 288 951 q 653 1040 492 1040 q 849 1012 769 1040 q 976 905 929 983 q 1024 683 1024 826 q 1003 467 1024 594 q 912 172 972 274 q 752 31 851 69 q 486 -8 653 -8 m 528 235 q 635 264 594 235 q 697 349 675 293 q 735 501 719 406 q 754 681 754 624 q 723 774 754 750 q 615 799 692 799 q 509 774 549 799 q 446 690 469 750 q 404 518 422 631 q 385 346 385 401 q 417 259 385 283 q 528 235 449 235 z "},"Ó":{"ha":978,"x_min":115,"x_max":1024,"o":"m 486 -8 q 287 19 367 -8 q 161 122 207 47 q 115 332 115 197 q 136 553 115 428 q 227 846 167 740 q 390 996 288 951 q 653 1040 492 1040 q 849 1012 769 1040 q 976 905 929 983 q 1024 683 1024 826 q 1003 467 1024 594 q 912 172 972 274 q 752 31 851 69 q 486 -8 653 -8 m 528 235 q 635 264 594 235 q 697 349 675 293 q 735 501 719 406 q 754 681 754 624 q 723 774 754 750 q 615 799 692 799 q 509 774 549 799 q 446 690 469 750 q 404 518 422 631 q 385 346 385 401 q 417 259 385 283 q 528 235 449 235 m 683 1297 l 911 1297 l 743 1099 l 571 1099 l 683 1297 z "},"Ŏ":{"ha":978,"x_min":115,"x_max":1024,"o":"m 486 -8 q 287 19 367 -8 q 161 122 207 47 q 115 332 115 197 q 136 553 115 428 q 227 846 167 740 q 390 996 288 951 q 653 1040 492 1040 q 849 1012 769 1040 q 976 905 929 983 q 1024 683 1024 826 q 1003 467 1024 594 q 912 172 972 274 q 752 31 851 69 q 486 -8 653 -8 m 528 235 q 635 264 594 235 q 697 349 675 293 q 735 501 719 406 q 754 681 754 624 q 723 774 754 750 q 615 799 692 799 q 509 774 549 799 q 446 690 469 750 q 404 518 422 631 q 385 346 385 401 q 417 259 385 283 q 528 235 449 235 m 656 1083 q 528 1124 571 1083 q 485 1243 485 1164 q 490 1301 485 1260 l 614 1301 q 611 1274 611 1282 q 629 1221 611 1238 q 675 1204 647 1204 q 767 1301 751 1204 l 893 1301 q 817 1138 876 1193 q 656 1083 757 1083 z "},"Ô":{"ha":978,"x_min":115,"x_max":1024,"o":"m 486 -8 q 287 19 367 -8 q 161 122 207 47 q 115 332 115 197 q 136 553 115 428 q 227 846 167 740 q 390 996 288 951 q 653 1040 492 1040 q 849 1012 769 1040 q 976 905 929 983 q 1024 683 1024 826 q 1003 467 1024 594 q 912 172 972 274 q 752 31 851 69 q 486 -8 653 -8 m 528 235 q 635 264 594 235 q 697 349 675 293 q 735 501 719 406 q 754 681 754 624 q 723 774 754 750 q 615 799 692 799 q 509 774 549 799 q 446 690 469 750 q 404 518 422 631 q 385 346 385 401 q 417 259 385 283 q 528 235 449 235 m 596 1301 l 778 1301 l 872 1099 l 718 1099 l 664 1183 l 581 1099 l 425 1099 l 596 1301 z "},"Ố":{"ha":978,"x_min":115,"x_max":1075,"o":"m 486 -8 q 287 19 367 -8 q 161 122 207 47 q 115 332 115 197 q 136 553 115 428 q 227 846 167 740 q 390 996 288 951 q 653 1040 492 1040 q 849 1012 769 1040 q 976 905 929 983 q 1024 683 1024 826 q 1003 467 1024 594 q 912 172 972 274 q 752 31 851 69 q 486 -8 653 -8 m 528 235 q 635 264 594 235 q 697 349 675 293 q 735 501 719 406 q 754 681 754 624 q 723 774 754 750 q 615 799 692 799 q 509 774 549 799 q 446 690 469 750 q 404 518 422 631 q 385 346 385 401 q 417 259 385 283 q 528 235 449 235 m 875 1394 l 1075 1394 l 967 1224 l 822 1224 l 875 1394 m 603 1260 l 785 1260 l 886 1099 l 732 1099 l 671 1142 l 594 1099 l 439 1099 l 603 1260 z "},"Ộ":{"ha":978,"x_min":115,"x_max":1024,"o":"m 486 -8 q 287 19 367 -8 q 161 122 207 47 q 115 332 115 197 q 136 553 115 428 q 227 846 167 740 q 390 996 288 951 q 653 1040 492 1040 q 849 1012 769 1040 q 976 905 929 983 q 1024 683 1024 826 q 1003 467 1024 594 q 912 172 972 274 q 752 31 851 69 q 486 -8 653 -8 m 528 235 q 635 264 594 235 q 697 349 675 293 q 735 501 719 406 q 754 681 754 624 q 723 774 754 750 q 615 799 692 799 q 509 774 549 799 q 446 690 469 750 q 404 518 422 631 q 385 346 385 401 q 417 259 385 283 q 528 235 449 235 m 596 1301 l 778 1301 l 872 1099 l 718 1099 l 664 1183 l 581 1099 l 425 1099 l 596 1301 m 367 -328 q 347 -321 354 -328 q 339 -301 339 -314 l 339 -296 l 364 -142 q 401 -107 368 -107 l 526 -107 q 554 -135 554 -107 l 554 -142 l 529 -296 q 517 -319 528 -311 q 492 -328 507 -328 l 367 -328 z "},"Ồ":{"ha":978,"x_min":115,"x_max":1024,"o":"m 486 -8 q 287 19 367 -8 q 161 122 207 47 q 115 332 115 197 q 136 553 115 428 q 227 846 167 740 q 390 996 288 951 q 653 1040 492 1040 q 849 1012 769 1040 q 976 905 929 983 q 1024 683 1024 826 q 1003 467 1024 594 q 912 172 972 274 q 752 31 851 69 q 486 -8 653 -8 m 528 235 q 635 264 594 235 q 697 349 675 293 q 735 501 719 406 q 754 681 754 624 q 723 774 754 750 q 615 799 692 799 q 509 774 549 799 q 446 690 469 750 q 404 518 422 631 q 385 346 385 401 q 417 259 385 283 q 528 235 449 235 m 350 1394 l 550 1394 l 547 1224 l 403 1224 l 350 1394 m 603 1260 l 785 1260 l 886 1099 l 732 1099 l 671 1142 l 594 1099 l 439 1099 l 603 1260 z "},"Ổ":{"ha":978,"x_min":115,"x_max":1029,"o":"m 486 -8 q 287 19 367 -8 q 161 122 207 47 q 115 332 115 197 q 136 553 115 428 q 227 846 167 740 q 390 996 288 951 q 653 1040 492 1040 q 849 1012 769 1040 q 976 905 929 983 q 1024 683 1024 826 q 1003 467 1024 594 q 912 172 972 274 q 752 31 851 69 q 486 -8 653 -8 m 528 235 q 635 264 594 235 q 697 349 675 293 q 735 501 719 406 q 754 681 754 624 q 723 774 754 750 q 615 799 692 799 q 509 774 549 799 q 446 690 469 750 q 404 518 422 631 q 385 346 385 401 q 417 259 385 283 q 528 235 449 235 m 867 1281 q 892 1299 885 1290 q 899 1318 899 1307 q 882 1331 899 1331 q 838 1322 865 1331 l 854 1425 q 933 1438 894 1438 q 1006 1417 982 1438 q 1029 1353 1029 1396 q 987 1248 1029 1292 q 850 1178 944 1204 l 867 1281 m 603 1260 l 785 1260 l 886 1099 l 732 1099 l 671 1142 l 594 1099 l 439 1099 l 603 1260 z "},"Ỗ":{"ha":978,"x_min":115,"x_max":1024,"o":"m 486 -8 q 287 19 367 -8 q 161 122 207 47 q 115 332 115 197 q 136 553 115 428 q 227 846 167 740 q 390 996 288 951 q 653 1040 492 1040 q 849 1012 769 1040 q 976 905 929 983 q 1024 683 1024 826 q 1003 467 1024 594 q 912 172 972 274 q 752 31 851 69 q 486 -8 653 -8 m 528 235 q 635 264 594 235 q 697 349 675 293 q 735 501 719 406 q 754 681 754 624 q 723 774 754 750 q 615 799 692 799 q 509 774 549 799 q 446 690 469 750 q 404 518 422 631 q 385 346 385 401 q 417 259 385 283 q 528 235 449 235 m 451 1313 q 517 1437 475 1406 q 629 1468 560 1468 q 717 1453 661 1468 q 767 1442 753 1442 q 814 1478 807 1442 l 947 1478 q 883 1349 922 1382 q 771 1315 843 1315 q 712 1323 742 1315 q 676 1332 682 1331 q 632 1342 644 1342 q 601 1333 613 1342 q 585 1313 589 1324 l 451 1313 m 604 1260 l 786 1260 l 886 1099 l 732 1099 l 671 1142 l 594 1099 l 439 1099 l 604 1260 z "},"Ȍ":{"ha":978,"x_min":115,"x_max":1024,"o":"m 486 -8 q 287 19 367 -8 q 161 122 207 47 q 115 332 115 197 q 136 553 115 428 q 227 846 167 740 q 390 996 288 951 q 653 1040 492 1040 q 849 1012 769 1040 q 976 905 929 983 q 1024 683 1024 826 q 1003 467 1024 594 q 912 172 972 274 q 752 31 851 69 q 486 -8 653 -8 m 528 235 q 635 264 594 235 q 697 349 675 293 q 735 501 719 406 q 754 681 754 624 q 723 774 754 750 q 615 799 692 799 q 509 774 549 799 q 446 690 469 750 q 404 518 422 631 q 385 346 385 401 q 417 259 385 283 q 528 235 449 235 m 339 1297 l 553 1297 l 615 1099 l 457 1099 l 339 1297 m 617 1297 l 831 1297 l 893 1099 l 735 1099 l 617 1297 z "},"Ö":{"ha":978,"x_min":115,"x_max":1024,"o":"m 486 -8 q 287 19 367 -8 q 161 122 207 47 q 115 332 115 197 q 136 553 115 428 q 227 846 167 740 q 390 996 288 951 q 653 1040 492 1040 q 849 1012 769 1040 q 976 905 929 983 q 1024 683 1024 826 q 1003 467 1024 594 q 912 172 972 274 q 752 31 851 69 q 486 -8 653 -8 m 528 235 q 635 264 594 235 q 697 349 675 293 q 735 501 719 406 q 754 681 754 624 q 723 774 754 750 q 615 799 692 799 q 509 774 549 799 q 446 690 469 750 q 404 518 422 631 q 385 346 385 401 q 417 259 385 283 q 528 235 449 235 m 460 1093 q 440 1100 447 1093 q 432 1119 432 1107 l 458 1279 q 494 1314 463 1314 l 619 1314 q 647 1286 647 1314 l 622 1125 q 610 1101 621 1110 q 585 1093 600 1093 l 460 1093 m 733 1093 q 713 1100 721 1093 q 706 1119 706 1107 l 732 1279 q 768 1314 736 1314 l 893 1314 q 921 1286 921 1314 l 896 1125 q 884 1101 894 1110 q 858 1093 874 1093 l 733 1093 z "},"Ȫ":{"ha":978,"x_min":115,"x_max":1024,"o":"m 486 -8 q 287 19 367 -8 q 161 122 207 47 q 115 332 115 197 q 136 553 115 428 q 227 846 167 740 q 390 996 288 951 q 653 1040 492 1040 q 849 1012 769 1040 q 976 905 929 983 q 1024 683 1024 826 q 1003 467 1024 594 q 912 172 972 274 q 752 31 851 69 q 486 -8 653 -8 m 528 235 q 635 264 594 235 q 697 349 675 293 q 735 501 719 406 q 754 681 754 624 q 723 774 754 750 q 615 799 692 799 q 509 774 549 799 q 446 690 469 750 q 404 518 422 631 q 385 346 385 401 q 417 259 385 283 q 528 235 449 235 m 460 1093 q 440 1100 447 1093 q 432 1119 432 1107 l 458 1279 q 494 1314 463 1314 l 619 1314 q 647 1286 647 1314 l 622 1125 q 610 1101 621 1110 q 585 1093 600 1093 l 460 1093 m 733 1093 q 713 1100 721 1093 q 706 1119 706 1107 l 732 1279 q 768 1314 736 1314 l 893 1314 q 921 1286 921 1314 l 896 1125 q 884 1101 894 1110 q 858 1093 874 1093 l 733 1093 m 517 1521 l 922 1521 l 897 1363 l 492 1363 l 517 1521 z "},"Ȱ":{"ha":978,"x_min":115,"x_max":1024,"o":"m 486 -8 q 287 19 367 -8 q 161 122 207 47 q 115 332 115 197 q 136 553 115 428 q 227 846 167 740 q 390 996 288 951 q 653 1040 492 1040 q 849 1012 769 1040 q 976 905 929 983 q 1024 683 1024 826 q 1003 467 1024 594 q 912 172 972 274 q 752 31 851 69 q 486 -8 653 -8 m 528 235 q 635 264 594 235 q 697 349 675 293 q 735 501 719 406 q 754 681 754 624 q 723 774 754 750 q 615 799 692 799 q 509 774 549 799 q 446 690 469 750 q 404 518 422 631 q 385 346 385 401 q 417 259 385 283 q 528 235 449 235 m 594 1103 q 574 1110 582 1103 q 567 1129 567 1117 l 567 1135 l 592 1289 q 629 1324 596 1324 l 754 1324 q 782 1296 782 1324 l 782 1289 l 757 1135 q 745 1111 756 1119 q 719 1103 735 1103 l 594 1103 m 518 1535 l 924 1535 l 899 1376 l 493 1376 l 518 1535 z "},"Ọ":{"ha":978,"x_min":115,"x_max":1024,"o":"m 486 -8 q 287 19 367 -8 q 161 122 207 47 q 115 332 115 197 q 136 553 115 428 q 227 846 167 740 q 390 996 288 951 q 653 1040 492 1040 q 849 1012 769 1040 q 976 905 929 983 q 1024 683 1024 826 q 1003 467 1024 594 q 912 172 972 274 q 752 31 851 69 q 486 -8 653 -8 m 528 235 q 635 264 594 235 q 697 349 675 293 q 735 501 719 406 q 754 681 754 624 q 723 774 754 750 q 615 799 692 799 q 509 774 549 799 q 446 690 469 750 q 404 518 422 631 q 385 346 385 401 q 417 259 385 283 q 528 235 449 235 m 367 -328 q 347 -321 354 -328 q 339 -301 339 -314 l 339 -296 l 364 -142 q 401 -107 368 -107 l 526 -107 q 554 -135 554 -107 l 554 -142 l 529 -296 q 517 -319 528 -311 q 492 -328 507 -328 l 367 -328 z "},"Ò":{"ha":978,"x_min":115,"x_max":1024,"o":"m 486 -8 q 287 19 367 -8 q 161 122 207 47 q 115 332 115 197 q 136 553 115 428 q 227 846 167 740 q 390 996 288 951 q 653 1040 492 1040 q 849 1012 769 1040 q 976 905 929 983 q 1024 683 1024 826 q 1003 467 1024 594 q 912 172 972 274 q 752 31 851 69 q 486 -8 653 -8 m 528 235 q 635 264 594 235 q 697 349 675 293 q 735 501 719 406 q 754 681 754 624 q 723 774 754 750 q 615 799 692 799 q 509 774 549 799 q 446 690 469 750 q 404 518 422 631 q 385 346 385 401 q 417 259 385 283 q 528 235 449 235 m 492 1297 l 706 1297 l 768 1099 l 610 1099 l 492 1297 z "},"Ỏ":{"ha":978,"x_min":115,"x_max":1024,"o":"m 486 -8 q 287 19 367 -8 q 161 122 207 47 q 115 332 115 197 q 136 553 115 428 q 227 846 167 740 q 390 996 288 951 q 653 1040 492 1040 q 849 1012 769 1040 q 976 905 929 983 q 1024 683 1024 826 q 1003 467 1024 594 q 912 172 972 274 q 752 31 851 69 q 486 -8 653 -8 m 528 235 q 635 264 594 235 q 697 349 675 293 q 735 501 719 406 q 754 681 754 624 q 723 774 754 750 q 615 799 692 799 q 509 774 549 799 q 446 690 469 750 q 404 518 422 631 q 385 346 385 401 q 417 259 385 283 q 528 235 449 235 m 653 1169 q 700 1213 700 1182 q 669 1231 700 1231 q 626 1222 657 1231 l 643 1325 q 724 1338 683 1338 q 843 1236 843 1338 q 635 1053 843 1110 l 653 1169 z "},"Ơ":{"ha":983,"x_min":115,"x_max":1144,"o":"m 1144 1182 q 1084 1010 1128 1079 q 974 910 1040 940 q 1024 683 1024 828 q 1003 467 1024 594 q 912 172 972 274 q 752 31 851 69 q 486 -8 653 -8 q 287 19 367 -8 q 161 122 207 47 q 115 332 115 197 q 136 553 115 428 q 227 846 167 740 q 390 996 288 951 q 653 1040 492 1040 q 772 1032 715 1040 l 843 1032 q 919 1066 890 1032 q 961 1182 949 1100 l 1144 1182 m 735 501 q 754 681 754 624 q 723 774 754 750 q 615 799 692 799 q 509 774 549 799 q 446 690 469 750 q 404 518 422 631 q 385 346 385 401 q 417 259 385 283 q 528 235 449 235 q 635 264 594 235 q 697 349 675 293 q 735 501 719 406 z "},"Ớ":{"ha":983,"x_min":115,"x_max":1144,"o":"m 1144 1182 q 1084 1010 1128 1079 q 974 910 1040 940 q 1024 683 1024 828 q 1003 467 1024 594 q 912 172 972 274 q 752 31 851 69 q 486 -8 653 -8 q 287 19 367 -8 q 161 122 207 47 q 115 332 115 197 q 136 553 115 428 q 227 846 167 740 q 390 996 288 951 q 653 1040 492 1040 q 772 1032 715 1040 l 843 1032 q 919 1066 890 1032 q 961 1182 949 1100 l 1144 1182 m 735 501 q 754 681 754 624 q 723 774 754 750 q 615 799 692 799 q 509 774 549 799 q 446 690 469 750 q 404 518 422 631 q 385 346 385 401 q 417 259 385 283 q 528 235 449 235 q 635 264 594 235 q 697 349 675 293 q 735 501 719 406 m 643 1297 l 871 1297 l 703 1099 l 531 1099 l 643 1297 z "},"Ợ":{"ha":983,"x_min":115,"x_max":1144,"o":"m 1144 1182 q 1084 1010 1128 1079 q 974 910 1040 940 q 1024 683 1024 828 q 1003 467 1024 594 q 912 172 972 274 q 752 31 851 69 q 486 -8 653 -8 q 287 19 367 -8 q 161 122 207 47 q 115 332 115 197 q 136 553 115 428 q 227 846 167 740 q 390 996 288 951 q 653 1040 492 1040 q 772 1032 715 1040 l 843 1032 q 919 1066 890 1032 q 961 1182 949 1100 l 1144 1182 m 735 501 q 754 681 754 624 q 723 774 754 750 q 615 799 692 799 q 509 774 549 799 q 446 690 469 750 q 404 518 422 631 q 385 346 385 401 q 417 259 385 283 q 528 235 449 235 q 635 264 594 235 q 697 349 675 293 q 735 501 719 406 m 360 -328 q 340 -321 347 -328 q 332 -301 332 -314 l 332 -296 l 357 -142 q 394 -107 361 -107 l 519 -107 q 547 -135 547 -107 l 547 -142 l 522 -296 q 510 -319 521 -311 q 485 -328 500 -328 l 360 -328 z "},"Ờ":{"ha":983,"x_min":115,"x_max":1144,"o":"m 1144 1182 q 1084 1010 1128 1079 q 974 910 1040 940 q 1024 683 1024 828 q 1003 467 1024 594 q 912 172 972 274 q 752 31 851 69 q 486 -8 653 -8 q 287 19 367 -8 q 161 122 207 47 q 115 332 115 197 q 136 553 115 428 q 227 846 167 740 q 390 996 288 951 q 653 1040 492 1040 q 772 1032 715 1040 l 843 1032 q 919 1066 890 1032 q 961 1182 949 1100 l 1144 1182 m 735 501 q 754 681 754 624 q 723 774 754 750 q 615 799 692 799 q 509 774 549 799 q 446 690 469 750 q 404 518 422 631 q 385 346 385 401 q 417 259 385 283 q 528 235 449 235 q 635 264 594 235 q 697 349 675 293 q 735 501 719 406 m 451 1297 l 665 1297 l 728 1099 l 569 1099 l 451 1297 z "},"Ở":{"ha":983,"x_min":115,"x_max":1144,"o":"m 1144 1182 q 1084 1010 1128 1079 q 974 910 1040 940 q 1024 683 1024 828 q 1003 467 1024 594 q 912 172 972 274 q 752 31 851 69 q 486 -8 653 -8 q 287 19 367 -8 q 161 122 207 47 q 115 332 115 197 q 136 553 115 428 q 227 846 167 740 q 390 996 288 951 q 653 1040 492 1040 q 772 1032 715 1040 l 843 1032 q 919 1066 890 1032 q 961 1182 949 1100 l 1144 1182 m 735 501 q 754 681 754 624 q 723 774 754 750 q 615 799 692 799 q 509 774 549 799 q 446 690 469 750 q 404 518 422 631 q 385 346 385 401 q 417 259 385 283 q 528 235 449 235 q 635 264 594 235 q 697 349 675 293 q 735 501 719 406 m 613 1169 q 660 1213 660 1182 q 629 1231 660 1231 q 586 1222 617 1231 l 603 1325 q 683 1338 643 1338 q 803 1236 803 1338 q 594 1053 803 1110 l 613 1169 z "},"Ỡ":{"ha":983,"x_min":115,"x_max":1144,"o":"m 1144 1182 q 1084 1010 1128 1079 q 974 910 1040 940 q 1024 683 1024 828 q 1003 467 1024 594 q 912 172 972 274 q 752 31 851 69 q 486 -8 653 -8 q 287 19 367 -8 q 161 122 207 47 q 115 332 115 197 q 136 553 115 428 q 227 846 167 740 q 390 996 288 951 q 653 1040 492 1040 q 772 1032 715 1040 l 843 1032 q 919 1066 890 1032 q 961 1182 949 1100 l 1144 1182 m 735 501 q 754 681 754 624 q 723 774 754 750 q 615 799 692 799 q 509 774 549 799 q 446 690 469 750 q 404 518 422 631 q 385 346 385 401 q 417 259 385 283 q 528 235 449 235 q 635 264 594 235 q 697 349 675 293 q 735 501 719 406 m 351 1090 q 424 1237 376 1193 q 536 1281 471 1281 q 594 1274 568 1281 q 657 1257 621 1268 q 726 1240 700 1240 q 775 1290 765 1240 l 908 1290 q 838 1139 881 1185 q 726 1093 794 1093 q 667 1099 696 1093 q 597 1118 639 1106 q 535 1133 551 1133 q 485 1090 501 1133 l 351 1090 z "},"Ő":{"ha":978,"x_min":115,"x_max":1024,"o":"m 486 -8 q 287 19 367 -8 q 161 122 207 47 q 115 332 115 197 q 136 553 115 428 q 227 846 167 740 q 390 996 288 951 q 653 1040 492 1040 q 849 1012 769 1040 q 976 905 929 983 q 1024 683 1024 826 q 1003 467 1024 594 q 912 172 972 274 q 752 31 851 69 q 486 -8 653 -8 m 528 235 q 635 264 594 235 q 697 349 675 293 q 735 501 719 406 q 754 681 754 624 q 723 774 754 750 q 615 799 692 799 q 509 774 549 799 q 446 690 469 750 q 404 518 422 631 q 385 346 385 401 q 417 259 385 283 q 528 235 449 235 m 558 1297 l 758 1297 l 604 1099 l 446 1099 l 558 1297 m 799 1297 l 999 1297 l 844 1099 l 686 1099 l 799 1297 z "},"Ȏ":{"ha":978,"x_min":115,"x_max":1024,"o":"m 486 -8 q 287 19 367 -8 q 161 122 207 47 q 115 332 115 197 q 136 553 115 428 q 227 846 167 740 q 390 996 288 951 q 653 1040 492 1040 q 849 1012 769 1040 q 976 905 929 983 q 1024 683 1024 826 q 1003 467 1024 594 q 912 172 972 274 q 752 31 851 69 q 486 -8 653 -8 m 528 235 q 635 264 594 235 q 697 349 675 293 q 735 501 719 406 q 754 681 754 624 q 723 774 754 750 q 615 799 692 799 q 509 774 549 799 q 446 690 469 750 q 404 518 422 631 q 385 346 385 401 q 417 259 385 283 q 528 235 449 235 m 468 1088 q 544 1251 485 1196 q 706 1306 604 1306 q 833 1265 790 1306 q 876 1146 876 1225 q 871 1088 876 1129 l 747 1088 q 750 1115 750 1107 q 732 1168 750 1151 q 686 1185 714 1185 q 594 1088 610 1185 l 468 1088 z "},"Ō":{"ha":978,"x_min":115,"x_max":1024,"o":"m 486 -8 q 287 19 367 -8 q 161 122 207 47 q 115 332 115 197 q 136 553 115 428 q 227 846 167 740 q 390 996 288 951 q 653 1040 492 1040 q 849 1012 769 1040 q 976 905 929 983 q 1024 683 1024 826 q 1003 467 1024 594 q 912 172 972 274 q 752 31 851 69 q 486 -8 653 -8 m 528 235 q 635 264 594 235 q 697 349 675 293 q 735 501 719 406 q 754 681 754 624 q 723 774 754 750 q 615 799 692 799 q 509 774 549 799 q 446 690 469 750 q 404 518 422 631 q 385 346 385 401 q 417 259 385 283 q 528 235 449 235 m 483 1257 l 889 1257 l 864 1099 l 458 1099 l 483 1257 z "},"Ṓ":{"ha":978,"x_min":115,"x_max":1024,"o":"m 486 -8 q 287 19 367 -8 q 161 122 207 47 q 115 332 115 197 q 136 553 115 428 q 227 846 167 740 q 390 996 288 951 q 653 1040 492 1040 q 849 1012 769 1040 q 976 905 929 983 q 1024 683 1024 826 q 1003 467 1024 594 q 912 172 972 274 q 752 31 851 69 q 486 -8 653 -8 m 528 235 q 635 264 594 235 q 697 349 675 293 q 735 501 719 406 q 754 681 754 624 q 723 774 754 750 q 615 799 692 799 q 509 774 549 799 q 446 690 469 750 q 404 518 422 631 q 385 346 385 401 q 417 259 385 283 q 528 235 449 235 m 483 1257 l 889 1257 l 864 1099 l 458 1099 l 483 1257 m 711 1519 l 939 1519 l 771 1321 l 599 1321 l 711 1519 z "},"Ṑ":{"ha":978,"x_min":115,"x_max":1024,"o":"m 486 -8 q 287 19 367 -8 q 161 122 207 47 q 115 332 115 197 q 136 553 115 428 q 227 846 167 740 q 390 996 288 951 q 653 1040 492 1040 q 849 1012 769 1040 q 976 905 929 983 q 1024 683 1024 826 q 1003 467 1024 594 q 912 172 972 274 q 752 31 851 69 q 486 -8 653 -8 m 528 235 q 635 264 594 235 q 697 349 675 293 q 735 501 719 406 q 754 681 754 624 q 723 774 754 750 q 615 799 692 799 q 509 774 549 799 q 446 690 469 750 q 404 518 422 631 q 385 346 385 401 q 417 259 385 283 q 528 235 449 235 m 483 1257 l 889 1257 l 864 1099 l 458 1099 l 483 1257 m 478 1519 l 692 1519 l 754 1321 l 596 1321 l 478 1519 z "},"Ǫ":{"ha":978,"x_min":115,"x_max":1024,"o":"m 653 1040 q 849 1012 769 1040 q 976 905 929 983 q 1024 683 1024 826 q 1003 467 1024 594 q 932 209 978 306 q 814 64 886 113 q 631 0 742 15 q 578 -47 594 -22 q 563 -92 563 -72 q 577 -127 563 -114 q 613 -140 592 -140 l 626 -140 l 607 -265 q 556 -272 590 -272 q 456 -242 486 -272 q 425 -167 425 -211 q 451 -75 425 -115 q 521 -8 476 -35 l 486 -8 q 287 19 367 -8 q 161 122 207 47 q 115 332 115 197 q 136 553 115 428 q 227 846 167 740 q 390 996 288 951 q 653 1040 492 1040 m 735 501 q 754 681 754 624 q 723 774 754 750 q 615 799 692 799 q 509 774 549 799 q 446 690 469 750 q 404 518 422 631 q 385 346 385 401 q 417 259 385 283 q 528 235 449 235 q 635 264 594 235 q 697 349 675 293 q 735 501 719 406 z "},"Ø":{"ha":983,"x_min":49,"x_max":1097,"o":"m 981 899 q 1024 683 1024 817 q 1003 467 1024 594 q 912 172 972 274 q 752 31 851 69 q 486 -8 653 -8 q 235 46 318 -8 l 194 0 l 49 0 l 158 126 q 115 332 115 201 q 136 553 115 428 q 227 846 167 740 q 390 996 288 951 q 653 1040 492 1040 q 798 1027 735 1040 q 907 982 861 1014 l 951 1032 l 1097 1032 l 981 899 m 404 518 q 386 386 394 467 l 725 774 q 683 793 710 788 q 615 799 656 799 q 509 774 549 799 q 446 690 469 750 q 404 518 422 631 m 735 501 q 751 638 747 571 l 419 257 q 528 235 449 235 q 635 264 594 235 q 697 349 675 293 q 735 501 719 406 z "},"Ǿ":{"ha":983,"x_min":49,"x_max":1097,"o":"m 981 899 q 1024 683 1024 817 q 1003 467 1024 594 q 912 172 972 274 q 752 31 851 69 q 486 -8 653 -8 q 235 46 318 -8 l 194 0 l 49 0 l 158 126 q 115 332 115 201 q 136 553 115 428 q 227 846 167 740 q 390 996 288 951 q 653 1040 492 1040 q 798 1027 735 1040 q 907 982 861 1014 l 951 1032 l 1097 1032 l 981 899 m 404 518 q 386 386 394 467 l 725 774 q 683 793 710 788 q 615 799 656 799 q 509 774 549 799 q 446 690 469 750 q 404 518 422 631 m 735 501 q 751 638 747 571 l 419 257 q 528 235 449 235 q 635 264 594 235 q 697 349 675 293 q 735 501 719 406 m 660 1297 l 888 1297 l 719 1099 l 547 1099 l 660 1297 z "},"Õ":{"ha":978,"x_min":115,"x_max":1024,"o":"m 486 -8 q 287 19 367 -8 q 161 122 207 47 q 115 332 115 197 q 136 553 115 428 q 227 846 167 740 q 390 996 288 951 q 653 1040 492 1040 q 849 1012 769 1040 q 976 905 929 983 q 1024 683 1024 826 q 1003 467 1024 594 q 912 172 972 274 q 752 31 851 69 q 486 -8 653 -8 m 528 235 q 635 264 594 235 q 697 349 675 293 q 735 501 719 406 q 754 681 754 624 q 723 774 754 750 q 615 799 692 799 q 509 774 549 799 q 446 690 469 750 q 404 518 422 631 q 385 346 385 401 q 417 259 385 283 q 528 235 449 235 m 392 1090 q 464 1237 417 1193 q 576 1281 511 1281 q 635 1274 608 1281 q 697 1257 661 1268 q 767 1240 740 1240 q 815 1290 806 1240 l 949 1290 q 878 1139 921 1185 q 767 1093 835 1093 q 708 1099 736 1093 q 638 1118 679 1106 q 575 1133 592 1133 q 525 1090 542 1133 l 392 1090 z "},"Ṍ":{"ha":978,"x_min":115,"x_max":1024,"o":"m 486 -8 q 287 19 367 -8 q 161 122 207 47 q 115 332 115 197 q 136 553 115 428 q 227 846 167 740 q 390 996 288 951 q 653 1040 492 1040 q 849 1012 769 1040 q 976 905 929 983 q 1024 683 1024 826 q 1003 467 1024 594 q 912 172 972 274 q 752 31 851 69 q 486 -8 653 -8 m 528 235 q 635 264 594 235 q 697 349 675 293 q 735 501 719 406 q 754 681 754 624 q 723 774 754 750 q 615 799 692 799 q 509 774 549 799 q 446 690 469 750 q 404 518 422 631 q 385 346 385 401 q 417 259 385 283 q 528 235 449 235 m 392 1090 q 464 1237 417 1193 q 576 1281 511 1281 q 635 1274 608 1281 q 697 1257 661 1268 q 767 1240 740 1240 q 815 1290 806 1240 l 949 1290 q 878 1139 921 1185 q 767 1093 835 1093 q 708 1099 736 1093 q 638 1118 679 1106 q 575 1133 592 1133 q 525 1090 542 1133 l 392 1090 m 711 1533 l 939 1533 l 771 1335 l 599 1335 l 711 1533 z "},"Ṏ":{"ha":978,"x_min":115,"x_max":1024,"o":"m 486 -8 q 287 19 367 -8 q 161 122 207 47 q 115 332 115 197 q 136 553 115 428 q 227 846 167 740 q 390 996 288 951 q 653 1040 492 1040 q 849 1012 769 1040 q 976 905 929 983 q 1024 683 1024 826 q 1003 467 1024 594 q 912 172 972 274 q 752 31 851 69 q 486 -8 653 -8 m 528 235 q 635 264 594 235 q 697 349 675 293 q 735 501 719 406 q 754 681 754 624 q 723 774 754 750 q 615 799 692 799 q 509 774 549 799 q 446 690 469 750 q 404 518 422 631 q 385 346 385 401 q 417 259 385 283 q 528 235 449 235 m 392 1090 q 464 1237 417 1193 q 576 1281 511 1281 q 635 1274 608 1281 q 697 1257 661 1268 q 767 1240 740 1240 q 815 1290 806 1240 l 949 1290 q 878 1139 921 1185 q 767 1093 835 1093 q 708 1099 736 1093 q 638 1118 679 1106 q 575 1133 592 1133 q 525 1090 542 1133 l 392 1090 m 488 1343 q 467 1350 475 1343 q 460 1369 460 1357 l 486 1529 q 522 1564 490 1564 l 647 1564 q 675 1536 675 1564 l 650 1375 q 638 1351 649 1360 q 613 1343 628 1343 l 488 1343 m 761 1343 q 741 1350 749 1343 q 733 1369 733 1357 l 760 1529 q 796 1564 764 1564 l 921 1564 q 949 1536 949 1564 l 924 1375 q 912 1351 922 1360 q 886 1343 901 1343 l 761 1343 z "},"Ȭ":{"ha":978,"x_min":115,"x_max":1024,"o":"m 486 -8 q 287 19 367 -8 q 161 122 207 47 q 115 332 115 197 q 136 553 115 428 q 227 846 167 740 q 390 996 288 951 q 653 1040 492 1040 q 849 1012 769 1040 q 976 905 929 983 q 1024 683 1024 826 q 1003 467 1024 594 q 912 172 972 274 q 752 31 851 69 q 486 -8 653 -8 m 528 235 q 635 264 594 235 q 697 349 675 293 q 735 501 719 406 q 754 681 754 624 q 723 774 754 750 q 615 799 692 799 q 509 774 549 799 q 446 690 469 750 q 404 518 422 631 q 385 346 385 401 q 417 259 385 283 q 528 235 449 235 m 511 1493 l 917 1493 l 892 1335 l 486 1335 l 511 1493 m 392 1090 q 464 1237 417 1193 q 576 1281 511 1281 q 635 1274 608 1281 q 697 1257 661 1268 q 767 1240 740 1240 q 815 1290 806 1240 l 949 1290 q 878 1139 921 1185 q 767 1093 835 1093 q 708 1099 736 1093 q 638 1118 679 1106 q 575 1133 592 1133 q 525 1090 542 1133 l 392 1090 z "},"Œ":{"ha":1418,"x_min":115,"x_max":1503,"o":"m 1122 783 q 1063 765 1081 783 q 1038 704 1044 746 l 1028 639 l 1369 625 l 1336 411 l 990 397 q 985 372 988 381 l 976 317 q 975 299 975 310 q 1040 244 975 244 l 1382 244 l 1346 17 q 1126 -2 1218 4 q 929 -8 1033 -8 q 763 35 825 -8 q 486 -8 665 -8 q 287 19 367 -8 q 161 122 207 47 q 115 332 115 197 q 136 553 115 428 q 227 846 167 740 q 390 996 288 951 q 653 1040 492 1040 q 900 986 815 1040 q 1081 1032 969 1032 q 1503 1011 1257 1032 l 1467 783 l 1122 783 m 528 235 q 635 264 594 235 q 697 349 675 293 q 735 501 719 406 q 754 681 754 624 q 723 774 754 750 q 615 799 692 799 q 509 774 549 799 q 446 690 469 750 q 404 518 422 631 q 385 346 385 401 q 417 259 385 283 q 528 235 449 235 z "},"P":{"ha":856,"x_min":76,"x_max":957,"o":"m 240 1032 l 665 1032 q 879 964 801 1032 q 957 729 957 896 q 943 615 957 703 q 824 363 915 443 q 611 283 732 283 q 488 292 550 283 q 396 314 426 301 l 346 0 l 76 0 l 240 1032 m 572 525 q 642 560 615 525 q 675 646 668 594 q 682 703 682 685 q 665 770 682 750 q 613 790 649 790 l 471 790 l 429 525 l 572 525 z "},"Ṗ":{"ha":856,"x_min":76,"x_max":957,"o":"m 240 1032 l 665 1032 q 879 964 801 1032 q 957 729 957 896 q 943 615 957 703 q 824 363 915 443 q 611 283 732 283 q 488 292 550 283 q 396 314 426 301 l 346 0 l 76 0 l 240 1032 m 572 525 q 642 560 615 525 q 675 646 668 594 q 682 703 682 685 q 665 770 682 750 q 613 790 649 790 l 471 790 l 429 525 l 572 525 m 510 1103 q 490 1110 497 1103 q 482 1129 482 1117 l 482 1135 l 507 1289 q 544 1324 511 1324 l 669 1324 q 697 1296 697 1324 l 697 1289 l 672 1135 q 660 1111 671 1119 q 635 1103 650 1103 l 510 1103 z "},"Þ":{"ha":808,"x_min":76,"x_max":888,"o":"m 582 871 q 806 808 724 871 q 888 590 888 744 q 874 476 888 564 q 756 246 849 319 q 542 172 663 172 q 376 194 474 172 l 346 0 l 76 0 l 240 1032 l 510 1032 l 485 871 l 582 871 m 606 507 q 613 564 613 546 q 592 615 613 600 q 529 629 572 629 l 446 629 l 411 414 l 503 414 q 573 440 546 414 q 606 507 600 467 z "},"Q":{"ha":978,"x_min":115,"x_max":1024,"o":"m 486 -8 q 287 19 367 -8 q 161 122 207 47 q 115 332 115 197 q 136 553 115 428 q 227 846 167 740 q 390 996 288 951 q 653 1040 492 1040 q 849 1012 769 1040 q 976 905 929 983 q 1024 683 1024 826 q 1003 467 1024 594 q 912 172 972 274 q 752 31 851 69 q 486 -8 653 -8 m 528 235 q 635 264 594 235 q 697 349 675 293 q 735 501 719 406 q 754 681 754 624 q 723 774 754 750 q 615 799 692 799 q 509 774 549 799 q 446 690 469 750 q 404 518 422 631 q 385 346 385 401 q 417 259 385 283 q 528 235 449 235 m 694 -294 q 493 -236 569 -294 q 417 -57 417 -178 l 603 -57 q 626 -97 604 -85 q 693 -108 647 -108 q 813 -94 740 -108 l 782 -289 q 694 -294 749 -294 z "},"R":{"ha":894,"x_min":76,"x_max":946,"o":"m 240 1032 l 646 1032 q 871 967 796 1032 q 946 763 946 901 q 938 671 946 721 q 892 531 925 586 q 826 450 860 476 q 751 400 793 424 l 867 0 l 593 0 l 506 356 l 403 356 l 346 0 l 76 0 l 240 1032 m 549 569 q 633 596 610 569 q 667 686 657 622 q 669 724 669 700 q 651 774 669 757 q 592 790 633 790 l 471 790 l 436 569 l 549 569 z "},"Ŕ":{"ha":894,"x_min":76,"x_max":946,"o":"m 240 1032 l 646 1032 q 871 967 796 1032 q 946 763 946 901 q 938 671 946 721 q 892 531 925 586 q 826 450 860 476 q 751 400 793 424 l 867 0 l 593 0 l 506 356 l 403 356 l 346 0 l 76 0 l 240 1032 m 549 569 q 633 596 610 569 q 667 686 657 622 q 669 724 669 700 q 651 774 669 757 q 592 790 633 790 l 471 790 l 436 569 l 549 569 m 613 1297 l 840 1297 l 672 1099 l 500 1099 l 613 1297 z "},"Ř":{"ha":894,"x_min":76,"x_max":946,"o":"m 240 1032 l 646 1032 q 871 967 796 1032 q 946 763 946 901 q 938 671 946 721 q 892 531 925 586 q 826 450 860 476 q 751 400 793 424 l 867 0 l 593 0 l 506 356 l 403 356 l 346 0 l 76 0 l 240 1032 m 549 569 q 633 596 610 569 q 667 686 657 622 q 669 724 669 700 q 651 774 669 757 q 592 790 633 790 l 471 790 l 436 569 l 549 569 m 421 1301 l 575 1301 l 629 1217 l 713 1301 l 868 1301 l 697 1099 l 515 1099 l 421 1301 z "},"Ŗ":{"ha":894,"x_min":76,"x_max":946,"o":"m 240 1032 l 646 1032 q 871 967 796 1032 q 946 763 946 901 q 938 671 946 721 q 892 531 925 586 q 826 450 860 476 q 751 400 793 424 l 867 0 l 593 0 l 506 356 l 403 356 l 346 0 l 76 0 l 240 1032 m 549 569 q 633 596 610 569 q 667 686 657 622 q 669 724 669 700 q 651 774 669 757 q 592 790 633 790 l 471 790 l 436 569 l 549 569 m 226 -203 l 264 -190 q 313 -164 300 -179 q 331 -110 325 -149 l 493 -110 q 432 -265 476 -218 q 293 -312 388 -312 l 208 -312 l 226 -203 z "},"Ȑ":{"ha":894,"x_min":76,"x_max":946,"o":"m 240 1032 l 646 1032 q 871 967 796 1032 q 946 763 946 901 q 938 671 946 721 q 892 531 925 586 q 826 450 860 476 q 751 400 793 424 l 867 0 l 593 0 l 506 356 l 403 356 l 346 0 l 76 0 l 240 1032 m 549 569 q 633 596 610 569 q 667 686 657 622 q 669 724 669 700 q 651 774 669 757 q 592 790 633 790 l 471 790 l 436 569 l 549 569 m 268 1297 l 482 1297 l 544 1099 l 386 1099 l 268 1297 m 546 1297 l 760 1297 l 822 1099 l 664 1099 l 546 1297 z "},"Ṛ":{"ha":894,"x_min":76,"x_max":946,"o":"m 240 1032 l 646 1032 q 871 967 796 1032 q 946 763 946 901 q 938 671 946 721 q 892 531 925 586 q 826 450 860 476 q 751 400 793 424 l 867 0 l 593 0 l 506 356 l 403 356 l 346 0 l 76 0 l 240 1032 m 549 569 q 633 596 610 569 q 667 686 657 622 q 669 724 669 700 q 651 774 669 757 q 592 790 633 790 l 471 790 l 436 569 l 549 569 m 338 -328 q 317 -321 325 -328 q 310 -301 310 -314 l 310 -296 l 335 -142 q 372 -107 339 -107 l 497 -107 q 525 -135 525 -107 l 525 -142 l 500 -296 q 488 -319 499 -311 q 463 -328 478 -328 l 338 -328 z "},"Ȓ":{"ha":894,"x_min":76,"x_max":946,"o":"m 240 1032 l 646 1032 q 871 967 796 1032 q 946 763 946 901 q 938 671 946 721 q 892 531 925 586 q 826 450 860 476 q 751 400 793 424 l 867 0 l 593 0 l 506 356 l 403 356 l 346 0 l 76 0 l 240 1032 m 549 569 q 633 596 610 569 q 667 686 657 622 q 669 724 669 700 q 651 774 669 757 q 592 790 633 790 l 471 790 l 436 569 l 549 569 m 397 1088 q 474 1251 414 1196 q 635 1306 533 1306 q 763 1265 719 1306 q 806 1146 806 1225 q 800 1088 806 1129 l 676 1088 q 679 1115 679 1107 q 661 1168 679 1151 q 615 1185 643 1185 q 524 1088 539 1185 l 397 1088 z "},"Ṟ":{"ha":894,"x_min":76,"x_max":946,"o":"m 240 1032 l 646 1032 q 871 967 796 1032 q 946 763 946 901 q 938 671 946 721 q 892 531 925 586 q 826 450 860 476 q 751 400 793 424 l 867 0 l 593 0 l 506 356 l 403 356 l 346 0 l 76 0 l 240 1032 m 549 569 q 633 596 610 569 q 667 686 657 622 q 669 724 669 700 q 651 774 669 757 q 592 790 633 790 l 471 790 l 436 569 l 549 569 m 213 -160 l 618 -160 l 593 -318 l 188 -318 l 213 -160 z "},"S":{"ha":800,"x_min":78,"x_max":888,"o":"m 429 -8 q 78 32 225 -8 l 111 246 q 422 233 240 233 q 533 248 501 233 q 571 300 564 263 l 574 315 q 575 333 575 322 q 552 372 575 361 q 478 383 529 383 l 422 383 q 227 451 299 383 q 156 626 156 519 q 160 686 156 656 l 172 765 q 294 975 196 910 q 565 1040 393 1040 q 888 1000 728 1040 l 854 786 q 531 799 724 799 q 424 733 435 799 l 421 718 q 418 694 418 701 q 489 638 418 638 l 550 638 q 762 572 686 638 q 838 400 838 506 q 833 346 838 375 l 818 249 q 765 106 804 161 q 644 21 725 50 q 429 -8 563 -8 z "},"Ś":{"ha":800,"x_min":78,"x_max":888,"o":"m 429 -8 q 78 32 225 -8 l 111 246 q 422 233 240 233 q 533 248 501 233 q 571 300 564 263 l 574 315 q 575 333 575 322 q 552 372 575 361 q 478 383 529 383 l 422 383 q 227 451 299 383 q 156 626 156 519 q 160 686 156 656 l 172 765 q 294 975 196 910 q 565 1040 393 1040 q 888 1000 728 1040 l 854 786 q 531 799 724 799 q 424 733 435 799 l 421 718 q 418 694 418 701 q 489 638 418 638 l 550 638 q 762 572 686 638 q 838 400 838 506 q 833 346 838 375 l 818 249 q 765 106 804 161 q 644 21 725 50 q 429 -8 563 -8 m 589 1297 l 817 1297 l 649 1099 l 476 1099 l 589 1297 z "},"Ṥ":{"ha":800,"x_min":78,"x_max":888,"o":"m 429 -8 q 78 32 225 -8 l 111 246 q 422 233 240 233 q 533 248 501 233 q 571 300 564 263 l 574 315 q 575 333 575 322 q 552 372 575 361 q 478 383 529 383 l 422 383 q 227 451 299 383 q 156 626 156 519 q 160 686 156 656 l 172 765 q 294 975 196 910 q 565 1040 393 1040 q 888 1000 728 1040 l 854 786 q 531 799 724 799 q 424 733 435 799 l 421 718 q 418 694 418 701 q 489 638 418 638 l 550 638 q 762 572 686 638 q 838 400 838 506 q 833 346 838 375 l 818 249 q 765 106 804 161 q 644 21 725 50 q 429 -8 563 -8 m 547 1297 l 775 1297 l 607 1099 l 435 1099 l 547 1297 m 583 1353 q 563 1360 571 1353 q 556 1379 556 1367 l 556 1385 l 581 1539 q 618 1574 585 1574 l 743 1574 q 771 1546 771 1574 l 771 1539 l 746 1385 q 734 1361 744 1369 q 708 1353 724 1353 l 583 1353 z "},"Š":{"ha":800,"x_min":78,"x_max":888,"o":"m 429 -8 q 78 32 225 -8 l 111 246 q 422 233 240 233 q 533 248 501 233 q 571 300 564 263 l 574 315 q 575 333 575 322 q 552 372 575 361 q 478 383 529 383 l 422 383 q 227 451 299 383 q 156 626 156 519 q 160 686 156 656 l 172 765 q 294 975 196 910 q 565 1040 393 1040 q 888 1000 728 1040 l 854 786 q 531 799 724 799 q 424 733 435 799 l 421 718 q 418 694 418 701 q 489 638 418 638 l 550 638 q 762 572 686 638 q 838 400 838 506 q 833 346 838 375 l 818 249 q 765 106 804 161 q 644 21 725 50 q 429 -8 563 -8 m 397 1301 l 551 1301 l 606 1217 l 689 1301 l 844 1301 l 674 1099 l 492 1099 l 397 1301 z "},"Ṧ":{"ha":800,"x_min":78,"x_max":888,"o":"m 429 -8 q 78 32 225 -8 l 111 246 q 422 233 240 233 q 533 248 501 233 q 571 300 564 263 l 574 315 q 575 333 575 322 q 552 372 575 361 q 478 383 529 383 l 422 383 q 227 451 299 383 q 156 626 156 519 q 160 686 156 656 l 172 765 q 294 975 196 910 q 565 1040 393 1040 q 888 1000 728 1040 l 854 786 q 531 799 724 799 q 424 733 435 799 l 421 718 q 418 694 418 701 q 489 638 418 638 l 550 638 q 762 572 686 638 q 838 400 838 506 q 833 346 838 375 l 818 249 q 765 106 804 161 q 644 21 725 50 q 429 -8 563 -8 m 397 1301 l 551 1301 l 606 1217 l 689 1301 l 844 1301 l 674 1099 l 492 1099 l 397 1301 m 556 1353 q 535 1360 543 1353 q 528 1379 528 1367 l 528 1385 l 553 1539 q 590 1574 557 1574 l 715 1574 q 743 1546 743 1574 l 743 1539 l 718 1385 q 706 1361 717 1369 q 681 1353 696 1353 l 556 1353 z "},"Ş":{"ha":800,"x_min":78,"x_max":888,"o":"m 421 718 q 418 694 418 701 q 489 638 418 638 l 550 638 q 762 572 686 638 q 838 400 838 506 q 833 346 838 375 l 818 249 q 765 106 804 161 q 646 21 725 50 q 436 -8 567 -8 l 390 -68 q 444 -95 424 -74 q 465 -157 465 -117 q 421 -247 465 -211 q 288 -282 376 -282 l 206 -282 l 222 -172 l 244 -168 q 294 -124 294 -160 q 257 -86 294 -97 l 319 -6 q 78 32 179 3 l 111 246 q 422 233 240 233 q 533 248 501 233 q 571 300 564 263 l 574 315 q 575 333 575 322 q 552 372 575 361 q 478 383 529 383 l 422 383 q 227 451 299 383 q 156 626 156 519 q 160 686 156 656 l 172 765 q 294 975 196 910 q 565 1040 393 1040 q 888 1000 728 1040 l 854 786 q 531 799 724 799 q 424 733 435 799 l 421 718 z "},"Ŝ":{"ha":800,"x_min":78,"x_max":888,"o":"m 429 -8 q 78 32 225 -8 l 111 246 q 422 233 240 233 q 533 248 501 233 q 571 300 564 263 l 574 315 q 575 333 575 322 q 552 372 575 361 q 478 383 529 383 l 422 383 q 227 451 299 383 q 156 626 156 519 q 160 686 156 656 l 172 765 q 294 975 196 910 q 565 1040 393 1040 q 888 1000 728 1040 l 854 786 q 531 799 724 799 q 424 733 435 799 l 421 718 q 418 694 418 701 q 489 638 418 638 l 550 638 q 762 572 686 638 q 838 400 838 506 q 833 346 838 375 l 818 249 q 765 106 804 161 q 644 21 725 50 q 429 -8 563 -8 m 501 1301 l 683 1301 l 778 1099 l 624 1099 l 569 1183 l 486 1099 l 331 1099 l 501 1301 z "},"Ș":{"ha":800,"x_min":78,"x_max":888,"o":"m 429 -8 q 78 32 225 -8 l 111 246 q 422 233 240 233 q 533 248 501 233 q 571 300 564 263 l 574 315 q 575 333 575 322 q 552 372 575 361 q 478 383 529 383 l 422 383 q 227 451 299 383 q 156 626 156 519 q 160 686 156 656 l 172 765 q 294 975 196 910 q 565 1040 393 1040 q 888 1000 728 1040 l 854 786 q 531 799 724 799 q 424 733 435 799 l 421 718 q 418 694 418 701 q 489 638 418 638 l 550 638 q 762 572 686 638 q 838 400 838 506 q 833 346 838 375 l 818 249 q 765 106 804 161 q 644 21 725 50 q 429 -8 563 -8 m 203 -203 l 240 -190 q 289 -164 276 -179 q 307 -110 301 -149 l 469 -110 q 408 -265 453 -218 q 269 -312 364 -312 l 185 -312 l 203 -203 z "},"Ṡ":{"ha":800,"x_min":78,"x_max":888,"o":"m 429 -8 q 78 32 225 -8 l 111 246 q 422 233 240 233 q 533 248 501 233 q 571 300 564 263 l 574 315 q 575 333 575 322 q 552 372 575 361 q 478 383 529 383 l 422 383 q 227 451 299 383 q 156 626 156 519 q 160 686 156 656 l 172 765 q 294 975 196 910 q 565 1040 393 1040 q 888 1000 728 1040 l 854 786 q 531 799 724 799 q 424 733 435 799 l 421 718 q 418 694 418 701 q 489 638 418 638 l 550 638 q 762 572 686 638 q 838 400 838 506 q 833 346 838 375 l 818 249 q 765 106 804 161 q 644 21 725 50 q 429 -8 563 -8 m 500 1103 q 480 1110 488 1103 q 472 1129 472 1117 l 472 1135 l 497 1289 q 535 1324 501 1324 l 660 1324 q 688 1296 688 1324 l 688 1289 l 663 1135 q 651 1111 661 1119 q 625 1103 640 1103 l 500 1103 z "},"Ṣ":{"ha":800,"x_min":78,"x_max":888,"o":"m 429 -8 q 78 32 225 -8 l 111 246 q 422 233 240 233 q 533 248 501 233 q 571 300 564 263 l 574 315 q 575 333 575 322 q 552 372 575 361 q 478 383 529 383 l 422 383 q 227 451 299 383 q 156 626 156 519 q 160 686 156 656 l 172 765 q 294 975 196 910 q 565 1040 393 1040 q 888 1000 728 1040 l 854 786 q 531 799 724 799 q 424 733 435 799 l 421 718 q 418 694 418 701 q 489 638 418 638 l 550 638 q 762 572 686 638 q 838 400 838 506 q 833 346 838 375 l 818 249 q 765 106 804 161 q 644 21 725 50 q 429 -8 563 -8 m 272 -328 q 252 -321 260 -328 q 244 -301 244 -314 l 244 -296 l 269 -142 q 307 -107 274 -107 l 432 -107 q 460 -135 460 -107 l 460 -142 l 435 -296 q 423 -319 433 -311 q 397 -328 413 -328 l 272 -328 z "},"Ṩ":{"ha":800,"x_min":78,"x_max":888,"o":"m 429 -8 q 78 32 225 -8 l 111 246 q 422 233 240 233 q 533 248 501 233 q 571 300 564 263 l 574 315 q 575 333 575 322 q 552 372 575 361 q 478 383 529 383 l 422 383 q 227 451 299 383 q 156 626 156 519 q 160 686 156 656 l 172 765 q 294 975 196 910 q 565 1040 393 1040 q 888 1000 728 1040 l 854 786 q 531 799 724 799 q 424 733 435 799 l 421 718 q 418 694 418 701 q 489 638 418 638 l 550 638 q 762 572 686 638 q 838 400 838 506 q 833 346 838 375 l 818 249 q 765 106 804 161 q 644 21 725 50 q 429 -8 563 -8 m 272 -328 q 252 -321 260 -328 q 244 -301 244 -314 l 244 -296 l 269 -142 q 307 -107 274 -107 l 432 -107 q 460 -135 460 -107 l 460 -142 l 435 -296 q 423 -319 433 -311 q 397 -328 413 -328 l 272 -328 m 500 1103 q 480 1110 488 1103 q 472 1129 472 1117 l 472 1135 l 497 1289 q 535 1324 501 1324 l 660 1324 q 688 1296 688 1324 l 688 1289 l 663 1135 q 651 1111 661 1119 q 625 1103 640 1103 l 500 1103 z "},"ẞ":{"ha":1051,"x_min":76,"x_max":1068,"o":"m 842 586 q 1003 528 943 578 q 1063 383 1063 478 q 1047 271 1063 349 q 976 97 1026 158 q 851 14 926 36 q 663 -8 775 -8 q 544 -1 607 -8 q 432 21 481 7 l 471 263 q 660 233 588 233 q 745 249 717 233 q 779 303 774 264 q 782 325 782 319 q 764 363 782 350 q 706 375 746 375 l 521 375 l 554 589 l 729 790 l 550 790 q 488 772 510 790 q 461 725 465 754 l 346 0 l 76 0 l 190 721 q 322 957 215 882 q 578 1032 428 1032 q 824 1027 718 1032 q 1068 1014 929 1022 l 1035 804 l 842 586 z "},"Ə":{"ha":894,"x_min":108,"x_max":943,"o":"m 438 -8 q 195 71 282 -8 q 108 319 108 150 q 119 450 108 375 l 146 617 l 672 617 q 675 653 675 642 q 622 767 675 735 q 461 800 569 800 q 225 788 328 800 l 258 997 q 563 1042 381 1042 q 844 964 744 1042 q 943 690 943 886 q 928 514 943 618 q 826 193 896 308 q 660 35 756 78 q 438 -8 565 -8 m 472 233 q 572 271 531 233 q 635 403 614 308 l 386 403 q 381 343 381 374 q 401 261 381 289 q 472 233 421 233 z "},"T":{"ha":850,"x_min":153,"x_max":972,"o":"m 408 790 l 153 790 l 192 1032 l 972 1032 l 933 790 l 678 790 l 553 0 l 283 0 l 408 790 z "},"Ŧ":{"ha":833,"x_min":133,"x_max":972,"o":"m 678 790 l 647 593 l 869 593 l 849 463 l 626 463 l 553 0 l 283 0 l 357 463 l 133 463 l 154 593 l 378 593 l 408 790 l 153 790 l 192 1032 l 972 1032 l 933 790 l 678 790 z "},"Ť":{"ha":850,"x_min":153,"x_max":972,"o":"m 408 790 l 153 790 l 192 1032 l 972 1032 l 933 790 l 678 790 l 553 0 l 283 0 l 408 790 m 421 1301 l 575 1301 l 629 1217 l 713 1301 l 868 1301 l 697 1099 l 515 1099 l 421 1301 z "},"Ţ":{"ha":850,"x_min":153,"x_max":972,"o":"m 972 1032 l 933 790 l 678 790 l 553 0 l 467 0 l 414 -68 q 468 -95 447 -74 q 489 -157 489 -117 q 444 -247 489 -211 q 311 -282 400 -282 l 229 -282 l 246 -172 l 268 -168 q 318 -124 318 -160 q 281 -86 318 -97 l 347 0 l 283 0 l 408 790 l 153 790 l 192 1032 l 972 1032 z "},"Ț":{"ha":850,"x_min":153,"x_max":972,"o":"m 408 790 l 153 790 l 192 1032 l 972 1032 l 933 790 l 678 790 l 553 0 l 283 0 l 408 790 m 226 -203 l 264 -190 q 313 -164 300 -179 q 331 -110 325 -149 l 493 -110 q 432 -265 476 -218 q 293 -312 388 -312 l 208 -312 l 226 -203 z "},"Ṫ":{"ha":850,"x_min":153,"x_max":972,"o":"m 408 790 l 153 790 l 192 1032 l 972 1032 l 933 790 l 678 790 l 553 0 l 283 0 l 408 790 m 524 1103 q 503 1110 511 1103 q 496 1129 496 1117 l 496 1135 l 521 1289 q 558 1324 525 1324 l 683 1324 q 711 1296 711 1324 l 711 1289 l 686 1135 q 674 1111 685 1119 q 649 1103 664 1103 l 524 1103 z "},"Ṭ":{"ha":850,"x_min":153,"x_max":972,"o":"m 408 790 l 153 790 l 192 1032 l 972 1032 l 933 790 l 678 790 l 553 0 l 283 0 l 408 790 m 296 -328 q 276 -321 283 -328 q 268 -301 268 -314 l 268 -296 l 293 -142 q 331 -107 297 -107 l 456 -107 q 483 -135 483 -107 l 483 -142 l 458 -296 q 447 -319 457 -311 q 421 -328 436 -328 l 296 -328 z "},"Ṯ":{"ha":850,"x_min":146,"x_max":972,"o":"m 408 790 l 153 790 l 192 1032 l 972 1032 l 933 790 l 678 790 l 553 0 l 283 0 l 408 790 m 171 -160 l 576 -160 l 551 -318 l 146 -318 l 171 -160 z "},"U":{"ha":967,"x_min":135,"x_max":1054,"o":"m 486 -8 q 222 70 308 -8 q 135 317 135 149 q 153 486 135 372 l 240 1032 l 510 1032 l 417 444 q 410 397 415 431 q 404 340 404 363 q 432 260 404 286 q 525 233 460 233 q 606 252 575 233 q 658 316 638 271 q 692 444 679 361 l 785 1032 l 1054 1032 l 954 403 q 869 144 928 233 q 719 24 810 56 q 486 -8 629 -8 z "},"Ú":{"ha":967,"x_min":135,"x_max":1054,"o":"m 486 -8 q 222 70 308 -8 q 135 317 135 149 q 153 486 135 372 l 240 1032 l 510 1032 l 417 444 q 410 397 415 431 q 404 340 404 363 q 432 260 404 286 q 525 233 460 233 q 606 252 575 233 q 658 316 638 271 q 692 444 679 361 l 785 1032 l 1054 1032 l 954 403 q 869 144 928 233 q 719 24 810 56 q 486 -8 629 -8 m 671 1297 l 899 1297 l 731 1099 l 558 1099 l 671 1297 z "},"Ŭ":{"ha":967,"x_min":135,"x_max":1054,"o":"m 486 -8 q 222 70 308 -8 q 135 317 135 149 q 153 486 135 372 l 240 1032 l 510 1032 l 417 444 q 410 397 415 431 q 404 340 404 363 q 432 260 404 286 q 525 233 460 233 q 606 252 575 233 q 658 316 638 271 q 692 444 679 361 l 785 1032 l 1054 1032 l 954 403 q 869 144 928 233 q 719 24 810 56 q 486 -8 629 -8 m 643 1083 q 515 1124 558 1083 q 472 1243 472 1164 q 478 1301 472 1260 l 601 1301 q 599 1274 599 1282 q 617 1221 599 1238 q 663 1204 635 1204 q 754 1301 739 1204 l 881 1301 q 804 1138 864 1193 q 643 1083 744 1083 z "},"Û":{"ha":967,"x_min":135,"x_max":1054,"o":"m 486 -8 q 222 70 308 -8 q 135 317 135 149 q 153 486 135 372 l 240 1032 l 510 1032 l 417 444 q 410 397 415 431 q 404 340 404 363 q 432 260 404 286 q 525 233 460 233 q 606 252 575 233 q 658 316 638 271 q 692 444 679 361 l 785 1032 l 1054 1032 l 954 403 q 869 144 928 233 q 719 24 810 56 q 486 -8 629 -8 m 583 1301 l 765 1301 l 860 1099 l 706 1099 l 651 1183 l 568 1099 l 413 1099 l 583 1301 z "},"Ȕ":{"ha":967,"x_min":135,"x_max":1054,"o":"m 486 -8 q 222 70 308 -8 q 135 317 135 149 q 153 486 135 372 l 240 1032 l 510 1032 l 417 444 q 410 397 415 431 q 404 340 404 363 q 432 260 404 286 q 525 233 460 233 q 606 252 575 233 q 658 316 638 271 q 692 444 679 361 l 785 1032 l 1054 1032 l 954 403 q 869 144 928 233 q 719 24 810 56 q 486 -8 629 -8 m 326 1297 l 540 1297 l 603 1099 l 444 1099 l 326 1297 m 604 1297 l 818 1297 l 881 1099 l 722 1099 l 604 1297 z "},"Ü":{"ha":967,"x_min":135,"x_max":1054,"o":"m 486 -8 q 222 70 308 -8 q 135 317 135 149 q 153 486 135 372 l 240 1032 l 510 1032 l 417 444 q 410 397 415 431 q 404 340 404 363 q 432 260 404 286 q 525 233 460 233 q 606 252 575 233 q 658 316 638 271 q 692 444 679 361 l 785 1032 l 1054 1032 l 954 403 q 869 144 928 233 q 719 24 810 56 q 486 -8 629 -8 m 447 1093 q 427 1100 435 1093 q 419 1119 419 1107 l 446 1279 q 482 1314 450 1314 l 607 1314 q 635 1286 635 1314 l 610 1125 q 598 1101 608 1110 q 572 1093 588 1093 l 447 1093 m 721 1093 q 701 1100 708 1093 q 693 1119 693 1107 l 719 1279 q 756 1314 724 1314 l 881 1314 q 908 1286 908 1314 l 883 1125 q 872 1101 882 1110 q 846 1093 861 1093 l 721 1093 z "},"Ụ":{"ha":967,"x_min":135,"x_max":1054,"o":"m 486 -8 q 222 70 308 -8 q 135 317 135 149 q 153 486 135 372 l 240 1032 l 510 1032 l 417 444 q 410 397 415 431 q 404 340 404 363 q 432 260 404 286 q 525 233 460 233 q 606 252 575 233 q 658 316 638 271 q 692 444 679 361 l 785 1032 l 1054 1032 l 954 403 q 869 144 928 233 q 719 24 810 56 q 486 -8 629 -8 m 354 -328 q 334 -321 342 -328 q 326 -301 326 -314 l 326 -296 l 351 -142 q 389 -107 356 -107 l 514 -107 q 542 -135 542 -107 l 542 -142 l 517 -296 q 505 -319 515 -311 q 479 -328 494 -328 l 354 -328 z "},"Ù":{"ha":967,"x_min":135,"x_max":1054,"o":"m 486 -8 q 222 70 308 -8 q 135 317 135 149 q 153 486 135 372 l 240 1032 l 510 1032 l 417 444 q 410 397 415 431 q 404 340 404 363 q 432 260 404 286 q 525 233 460 233 q 606 252 575 233 q 658 316 638 271 q 692 444 679 361 l 785 1032 l 1054 1032 l 954 403 q 869 144 928 233 q 719 24 810 56 q 486 -8 629 -8 m 479 1297 l 693 1297 l 756 1099 l 597 1099 l 479 1297 z "},"Ủ":{"ha":967,"x_min":135,"x_max":1054,"o":"m 486 -8 q 222 70 308 -8 q 135 317 135 149 q 153 486 135 372 l 240 1032 l 510 1032 l 417 444 q 410 397 415 431 q 404 340 404 363 q 432 260 404 286 q 525 233 460 233 q 606 252 575 233 q 658 316 638 271 q 692 444 679 361 l 785 1032 l 1054 1032 l 954 403 q 869 144 928 233 q 719 24 810 56 q 486 -8 629 -8 m 640 1169 q 688 1213 688 1182 q 657 1231 688 1231 q 614 1222 644 1231 l 631 1325 q 711 1338 671 1338 q 831 1236 831 1338 q 622 1053 831 1110 l 640 1169 z "},"Ư":{"ha":961,"x_min":135,"x_max":1188,"o":"m 1188 1182 q 1133 1020 1172 1088 q 1036 919 1094 953 l 954 403 q 869 144 928 233 q 719 24 810 56 q 486 -8 629 -8 q 222 70 308 -8 q 135 317 135 149 q 153 486 135 372 l 240 1032 l 510 1032 l 417 444 q 410 397 415 431 q 404 340 404 363 q 432 260 404 286 q 525 233 460 233 q 606 252 575 233 q 658 316 638 271 q 692 444 679 361 l 785 1032 l 886 1032 q 963 1066 933 1032 q 1004 1182 992 1100 l 1188 1182 z "},"Ứ":{"ha":961,"x_min":135,"x_max":1188,"o":"m 1188 1182 q 1133 1020 1172 1088 q 1036 919 1094 953 l 954 403 q 869 144 928 233 q 719 24 810 56 q 486 -8 629 -8 q 222 70 308 -8 q 135 317 135 149 q 153 486 135 372 l 240 1032 l 510 1032 l 417 444 q 410 397 415 431 q 404 340 404 363 q 432 260 404 286 q 525 233 460 233 q 606 252 575 233 q 658 316 638 271 q 692 444 679 361 l 785 1032 l 886 1032 q 963 1066 933 1032 q 1004 1182 992 1100 l 1188 1182 m 649 1297 l 876 1297 l 708 1099 l 536 1099 l 649 1297 z "},"Ự":{"ha":961,"x_min":135,"x_max":1188,"o":"m 1188 1182 q 1133 1020 1172 1088 q 1036 919 1094 953 l 954 403 q 869 144 928 233 q 719 24 810 56 q 486 -8 629 -8 q 222 70 308 -8 q 135 317 135 149 q 153 486 135 372 l 240 1032 l 510 1032 l 417 444 q 410 397 415 431 q 404 340 404 363 q 432 260 404 286 q 525 233 460 233 q 606 252 575 233 q 658 316 638 271 q 692 444 679 361 l 785 1032 l 886 1032 q 963 1066 933 1032 q 1004 1182 992 1100 l 1188 1182 m 390 -328 q 370 -321 378 -328 q 363 -301 363 -314 l 363 -296 l 388 -142 q 425 -107 392 -107 l 550 -107 q 578 -135 578 -107 l 578 -142 l 553 -296 q 541 -319 551 -311 q 515 -328 531 -328 l 390 -328 z "},"Ừ":{"ha":961,"x_min":135,"x_max":1188,"o":"m 1188 1182 q 1133 1020 1172 1088 q 1036 919 1094 953 l 954 403 q 869 144 928 233 q 719 24 810 56 q 486 -8 629 -8 q 222 70 308 -8 q 135 317 135 149 q 153 486 135 372 l 240 1032 l 510 1032 l 417 444 q 410 397 415 431 q 404 340 404 363 q 432 260 404 286 q 525 233 460 233 q 606 252 575 233 q 658 316 638 271 q 692 444 679 361 l 785 1032 l 886 1032 q 963 1066 933 1032 q 1004 1182 992 1100 l 1188 1182 m 457 1297 l 671 1297 l 733 1099 l 575 1099 l 457 1297 z "},"Ử":{"ha":961,"x_min":135,"x_max":1188,"o":"m 1188 1182 q 1133 1020 1172 1088 q 1036 919 1094 953 l 954 403 q 869 144 928 233 q 719 24 810 56 q 486 -8 629 -8 q 222 70 308 -8 q 135 317 135 149 q 153 486 135 372 l 240 1032 l 510 1032 l 417 444 q 410 397 415 431 q 404 340 404 363 q 432 260 404 286 q 525 233 460 233 q 606 252 575 233 q 658 316 638 271 q 692 444 679 361 l 785 1032 l 886 1032 q 963 1066 933 1032 q 1004 1182 992 1100 l 1188 1182 m 618 1169 q 665 1213 665 1182 q 635 1231 665 1231 q 592 1222 622 1231 l 608 1325 q 689 1338 649 1338 q 808 1236 808 1338 q 600 1053 808 1110 l 618 1169 z "},"Ữ":{"ha":961,"x_min":135,"x_max":1188,"o":"m 1188 1182 q 1133 1020 1172 1088 q 1036 919 1094 953 l 954 403 q 869 144 928 233 q 719 24 810 56 q 486 -8 629 -8 q 222 70 308 -8 q 135 317 135 149 q 153 486 135 372 l 240 1032 l 510 1032 l 417 444 q 410 397 415 431 q 404 340 404 363 q 432 260 404 286 q 525 233 460 233 q 606 252 575 233 q 658 316 638 271 q 692 444 679 361 l 785 1032 l 886 1032 q 963 1066 933 1032 q 1004 1182 992 1100 l 1188 1182 m 357 1090 q 429 1237 382 1193 q 542 1281 476 1281 q 600 1274 574 1281 q 663 1257 626 1268 q 732 1240 706 1240 q 781 1290 771 1240 l 914 1290 q 843 1139 886 1185 q 732 1093 800 1093 q 673 1099 701 1093 q 603 1118 644 1106 q 540 1133 557 1133 q 490 1090 507 1133 l 357 1090 z "},"Ű":{"ha":967,"x_min":135,"x_max":1054,"o":"m 486 -8 q 222 70 308 -8 q 135 317 135 149 q 153 486 135 372 l 240 1032 l 510 1032 l 417 444 q 410 397 415 431 q 404 340 404 363 q 432 260 404 286 q 525 233 460 233 q 606 252 575 233 q 658 316 638 271 q 692 444 679 361 l 785 1032 l 1054 1032 l 954 403 q 869 144 928 233 q 719 24 810 56 q 486 -8 629 -8 m 546 1297 l 746 1297 l 592 1099 l 433 1099 l 546 1297 m 786 1297 l 986 1297 l 832 1099 l 674 1099 l 786 1297 z "},"Ȗ":{"ha":967,"x_min":135,"x_max":1054,"o":"m 486 -8 q 222 70 308 -8 q 135 317 135 149 q 153 486 135 372 l 240 1032 l 510 1032 l 417 444 q 410 397 415 431 q 404 340 404 363 q 432 260 404 286 q 525 233 460 233 q 606 252 575 233 q 658 316 638 271 q 692 444 679 361 l 785 1032 l 1054 1032 l 954 403 q 869 144 928 233 q 719 24 810 56 q 486 -8 629 -8 m 456 1088 q 532 1251 472 1196 q 693 1306 592 1306 q 821 1265 778 1306 q 864 1146 864 1225 q 858 1088 864 1129 l 735 1088 q 738 1115 738 1107 q 719 1168 738 1151 q 674 1185 701 1185 q 582 1088 597 1185 l 456 1088 z "},"Ū":{"ha":967,"x_min":135,"x_max":1054,"o":"m 486 -8 q 222 70 308 -8 q 135 317 135 149 q 153 486 135 372 l 240 1032 l 510 1032 l 417 444 q 410 397 415 431 q 404 340 404 363 q 432 260 404 286 q 525 233 460 233 q 606 252 575 233 q 658 316 638 271 q 692 444 679 361 l 785 1032 l 1054 1032 l 954 403 q 869 144 928 233 q 719 24 810 56 q 486 -8 629 -8 m 471 1257 l 876 1257 l 851 1099 l 446 1099 l 471 1257 z "},"Ṻ":{"ha":967,"x_min":135,"x_max":1054,"o":"m 486 -8 q 222 70 308 -8 q 135 317 135 149 q 153 486 135 372 l 240 1032 l 510 1032 l 417 444 q 410 397 415 431 q 404 340 404 363 q 432 260 404 286 q 525 233 460 233 q 606 252 575 233 q 658 316 638 271 q 692 444 679 361 l 785 1032 l 1054 1032 l 954 403 q 869 144 928 233 q 719 24 810 56 q 486 -8 629 -8 m 471 1257 l 876 1257 l 851 1099 l 446 1099 l 471 1257 m 478 1315 q 458 1322 465 1315 q 450 1342 450 1329 l 476 1501 q 513 1536 481 1536 l 638 1536 q 665 1508 665 1536 l 640 1347 q 628 1324 639 1332 q 603 1315 618 1315 l 478 1315 m 751 1315 q 731 1322 739 1315 q 724 1342 724 1329 l 750 1501 q 786 1536 754 1536 l 911 1536 q 939 1508 939 1536 l 914 1347 q 902 1324 913 1332 q 876 1315 892 1315 l 751 1315 z "},"Ų":{"ha":967,"x_min":135,"x_max":1054,"o":"m 1054 1032 l 954 403 q 889 180 932 264 q 781 54 846 96 q 622 0 717 13 q 570 -47 586 -22 q 554 -92 554 -72 q 569 -127 554 -114 q 604 -140 583 -140 l 618 -140 l 599 -265 q 547 -272 582 -272 q 447 -242 478 -272 q 417 -167 417 -211 q 442 -75 417 -115 q 513 -8 468 -35 l 486 -8 q 222 70 308 -8 q 135 317 135 149 q 153 486 135 372 l 240 1032 l 510 1032 l 417 444 q 410 397 415 431 q 404 340 404 363 q 432 260 404 286 q 525 233 460 233 q 606 252 575 233 q 658 316 638 271 q 692 444 679 361 l 785 1032 l 1054 1032 z "},"Ů":{"ha":967,"x_min":135,"x_max":1054,"o":"m 486 -8 q 222 70 308 -8 q 135 317 135 149 q 153 486 135 372 l 240 1032 l 510 1032 l 417 444 q 410 397 415 431 q 404 340 404 363 q 432 260 404 286 q 525 233 460 233 q 606 252 575 233 q 658 316 638 271 q 692 444 679 361 l 785 1032 l 1054 1032 l 954 403 q 869 144 928 233 q 719 24 810 56 q 486 -8 629 -8 m 651 1056 q 526 1089 567 1056 q 485 1199 485 1122 q 540 1330 485 1278 q 692 1382 594 1382 q 817 1349 776 1382 q 857 1239 857 1315 q 803 1107 857 1158 q 651 1056 749 1056 m 664 1151 q 716 1175 699 1151 q 733 1235 733 1199 q 681 1286 733 1286 q 626 1262 644 1286 q 608 1203 608 1238 q 664 1151 608 1151 z "},"Ũ":{"ha":967,"x_min":135,"x_max":1054,"o":"m 486 -8 q 222 70 308 -8 q 135 317 135 149 q 153 486 135 372 l 240 1032 l 510 1032 l 417 444 q 410 397 415 431 q 404 340 404 363 q 432 260 404 286 q 525 233 460 233 q 606 252 575 233 q 658 316 638 271 q 692 444 679 361 l 785 1032 l 1054 1032 l 954 403 q 869 144 928 233 q 719 24 810 56 q 486 -8 629 -8 m 379 1090 q 451 1237 404 1193 q 564 1281 499 1281 q 622 1274 596 1281 q 685 1257 649 1268 q 754 1240 728 1240 q 803 1290 793 1240 l 936 1290 q 865 1139 908 1185 q 754 1093 822 1093 q 695 1099 724 1093 q 625 1118 667 1106 q 563 1133 579 1133 q 513 1090 529 1133 l 379 1090 z "},"Ṹ":{"ha":967,"x_min":135,"x_max":1054,"o":"m 486 -8 q 222 70 308 -8 q 135 317 135 149 q 153 486 135 372 l 240 1032 l 510 1032 l 417 444 q 410 397 415 431 q 404 340 404 363 q 432 260 404 286 q 525 233 460 233 q 606 252 575 233 q 658 316 638 271 q 692 444 679 361 l 785 1032 l 1054 1032 l 954 403 q 869 144 928 233 q 719 24 810 56 q 486 -8 629 -8 m 379 1090 q 451 1237 404 1193 q 564 1281 499 1281 q 622 1274 596 1281 q 685 1257 649 1268 q 754 1240 728 1240 q 803 1290 793 1240 l 936 1290 q 865 1139 908 1185 q 754 1093 822 1093 q 695 1099 724 1093 q 625 1118 667 1106 q 563 1133 579 1133 q 513 1090 529 1133 l 379 1090 m 713 1547 l 940 1547 l 772 1349 l 600 1349 l 713 1547 z "},"V":{"ha":986,"x_min":183,"x_max":1131,"o":"m 183 1032 l 463 1032 l 540 293 l 854 1032 l 1131 1032 l 661 0 l 325 0 l 183 1032 z "},"W":{"ha":1458,"x_min":185,"x_max":1547,"o":"m 185 1032 l 464 1032 l 492 404 l 746 1032 l 988 1032 l 1040 404 l 1268 1032 l 1547 1032 l 1147 0 l 878 0 l 803 631 l 526 0 l 257 0 l 185 1032 z "},"Ẃ":{"ha":1458,"x_min":185,"x_max":1547,"o":"m 185 1032 l 464 1032 l 492 404 l 746 1032 l 988 1032 l 1040 404 l 1268 1032 l 1547 1032 l 1147 0 l 878 0 l 803 631 l 526 0 l 257 0 l 185 1032 m 917 1297 l 1144 1297 l 976 1099 l 804 1099 l 917 1297 z "},"Ŵ":{"ha":1458,"x_min":185,"x_max":1547,"o":"m 185 1032 l 464 1032 l 492 404 l 746 1032 l 988 1032 l 1040 404 l 1268 1032 l 1547 1032 l 1147 0 l 878 0 l 803 631 l 526 0 l 257 0 l 185 1032 m 829 1301 l 1011 1301 l 1106 1099 l 951 1099 l 897 1183 l 814 1099 l 658 1099 l 829 1301 z "},"Ẅ":{"ha":1458,"x_min":185,"x_max":1547,"o":"m 185 1032 l 464 1032 l 492 404 l 746 1032 l 988 1032 l 1040 404 l 1268 1032 l 1547 1032 l 1147 0 l 878 0 l 803 631 l 526 0 l 257 0 l 185 1032 m 693 1093 q 673 1100 681 1093 q 665 1119 665 1107 l 692 1279 q 728 1314 696 1314 l 853 1314 q 881 1286 881 1314 l 856 1125 q 844 1101 854 1110 q 818 1093 833 1093 l 693 1093 m 967 1093 q 947 1100 954 1093 q 939 1119 939 1107 l 965 1279 q 1001 1314 969 1314 l 1126 1314 q 1154 1286 1154 1314 l 1129 1125 q 1117 1101 1128 1110 q 1092 1093 1107 1093 l 967 1093 z "},"Ẁ":{"ha":1458,"x_min":185,"x_max":1547,"o":"m 185 1032 l 464 1032 l 492 404 l 746 1032 l 988 1032 l 1040 404 l 1268 1032 l 1547 1032 l 1147 0 l 878 0 l 803 631 l 526 0 l 257 0 l 185 1032 m 725 1297 l 939 1297 l 1001 1099 l 843 1099 l 725 1297 z "},"X":{"ha":944,"x_min":11,"x_max":1115,"o":"m 708 501 l 944 0 l 653 0 l 518 297 l 308 0 l 11 0 l 413 524 l 169 1032 l 463 1032 l 603 726 l 818 1032 l 1115 1032 l 708 501 z "},"Y":{"ha":917,"x_min":178,"x_max":1067,"o":"m 360 278 l 178 1032 l 471 1032 l 539 567 l 763 1032 l 1067 1032 l 629 278 l 585 0 l 315 0 l 360 278 z "},"Ý":{"ha":917,"x_min":178,"x_max":1067,"o":"m 360 278 l 178 1032 l 471 1032 l 539 567 l 763 1032 l 1067 1032 l 629 278 l 585 0 l 315 0 l 360 278 m 654 1297 l 882 1297 l 714 1099 l 542 1099 l 654 1297 z "},"Ŷ":{"ha":917,"x_min":178,"x_max":1067,"o":"m 360 278 l 178 1032 l 471 1032 l 539 567 l 763 1032 l 1067 1032 l 629 278 l 585 0 l 315 0 l 360 278 m 567 1301 l 749 1301 l 843 1099 l 689 1099 l 635 1183 l 551 1099 l 396 1099 l 567 1301 z "},"Ÿ":{"ha":917,"x_min":178,"x_max":1067,"o":"m 360 278 l 178 1032 l 471 1032 l 539 567 l 763 1032 l 1067 1032 l 629 278 l 585 0 l 315 0 l 360 278 m 431 1093 q 410 1100 418 1093 q 403 1119 403 1107 l 429 1279 q 465 1314 433 1314 l 590 1314 q 618 1286 618 1314 l 593 1125 q 581 1101 592 1110 q 556 1093 571 1093 l 431 1093 m 704 1093 q 684 1100 692 1093 q 676 1119 676 1107 l 703 1279 q 739 1314 707 1314 l 864 1314 q 892 1286 892 1314 l 867 1125 q 855 1101 865 1110 q 829 1093 844 1093 l 704 1093 z "},"Ẏ":{"ha":917,"x_min":178,"x_max":1067,"o":"m 360 278 l 178 1032 l 471 1032 l 539 567 l 763 1032 l 1067 1032 l 629 278 l 585 0 l 315 0 l 360 278 m 338 -328 q 317 -321 325 -328 q 310 -301 310 -314 l 310 -296 l 335 -142 q 372 -107 339 -107 l 497 -107 q 525 -135 525 -107 l 525 -142 l 500 -296 q 488 -319 499 -311 q 463 -328 478 -328 l 338 -328 z "},"Ỵ":{"ha":917,"x_min":178,"x_max":1067,"o":"m 360 278 l 178 1032 l 471 1032 l 539 567 l 763 1032 l 1067 1032 l 629 278 l 585 0 l 315 0 l 360 278 m 338 -328 q 317 -321 325 -328 q 310 -301 310 -314 l 310 -296 l 335 -142 q 372 -107 339 -107 l 497 -107 q 525 -135 525 -107 l 525 -142 l 500 -296 q 488 -319 499 -311 q 463 -328 478 -328 l 338 -328 z "},"Ỳ":{"ha":917,"x_min":178,"x_max":1067,"o":"m 360 278 l 178 1032 l 471 1032 l 539 567 l 763 1032 l 1067 1032 l 629 278 l 585 0 l 315 0 l 360 278 m 463 1297 l 676 1297 l 739 1099 l 581 1099 l 463 1297 z "},"Ỷ":{"ha":917,"x_min":178,"x_max":1067,"o":"m 360 278 l 178 1032 l 471 1032 l 539 567 l 763 1032 l 1067 1032 l 629 278 l 585 0 l 315 0 l 360 278 m 624 1169 q 671 1213 671 1182 q 640 1231 671 1231 q 597 1222 628 1231 l 614 1325 q 694 1338 654 1338 q 814 1236 814 1338 q 606 1053 814 1110 l 624 1169 z "},"Ȳ":{"ha":917,"x_min":178,"x_max":1067,"o":"m 360 278 l 178 1032 l 471 1032 l 539 567 l 763 1032 l 1067 1032 l 629 278 l 585 0 l 315 0 l 360 278 m 454 1257 l 860 1257 l 835 1099 l 429 1099 l 454 1257 z "},"Ỹ":{"ha":917,"x_min":178,"x_max":1067,"o":"m 360 278 l 178 1032 l 471 1032 l 539 567 l 763 1032 l 1067 1032 l 629 278 l 585 0 l 315 0 l 360 278 m 363 1090 q 435 1237 388 1193 q 547 1281 482 1281 q 606 1274 579 1281 q 668 1257 632 1268 q 738 1240 711 1240 q 786 1290 776 1240 l 919 1290 q 849 1139 892 1185 q 738 1093 806 1093 q 678 1099 707 1093 q 608 1118 650 1106 q 546 1133 563 1133 q 496 1090 513 1133 l 363 1090 z "},"Z":{"ha":796,"x_min":42,"x_max":904,"o":"m 78 228 l 557 790 l 167 790 l 206 1032 l 904 1032 l 868 804 l 390 242 l 793 242 l 754 0 l 42 0 l 78 228 z "},"Ź":{"ha":796,"x_min":42,"x_max":904,"o":"m 78 228 l 557 790 l 167 790 l 206 1032 l 904 1032 l 868 804 l 390 242 l 793 242 l 754 0 l 42 0 l 78 228 m 599 1297 l 826 1297 l 658 1099 l 486 1099 l 599 1297 z "},"Ž":{"ha":796,"x_min":42,"x_max":904,"o":"m 78 228 l 557 790 l 167 790 l 206 1032 l 904 1032 l 868 804 l 390 242 l 793 242 l 754 0 l 42 0 l 78 228 m 407 1301 l 561 1301 l 615 1217 l 699 1301 l 854 1301 l 683 1099 l 501 1099 l 407 1301 z "},"Ż":{"ha":796,"x_min":42,"x_max":904,"o":"m 78 228 l 557 790 l 167 790 l 206 1032 l 904 1032 l 868 804 l 390 242 l 793 242 l 754 0 l 42 0 l 78 228 m 510 1103 q 490 1110 497 1103 q 482 1129 482 1117 l 482 1135 l 507 1289 q 544 1324 511 1324 l 669 1324 q 697 1296 697 1324 l 697 1289 l 672 1135 q 660 1111 671 1119 q 635 1103 650 1103 l 510 1103 z "},"Ẓ":{"ha":796,"x_min":42,"x_max":904,"o":"m 78 228 l 557 790 l 167 790 l 206 1032 l 904 1032 l 868 804 l 390 242 l 793 242 l 754 0 l 42 0 l 78 228 m 282 -328 q 262 -321 269 -328 q 254 -301 254 -314 l 254 -296 l 279 -142 q 317 -107 283 -107 l 442 -107 q 469 -135 469 -107 l 469 -142 l 444 -296 q 433 -319 443 -311 q 407 -328 422 -328 l 282 -328 z "},"a":{"ha":799,"x_min":90,"x_max":846,"o":"m 282 -8 q 144 57 199 -8 q 90 253 90 122 q 107 415 90 303 q 232 672 135 588 q 510 757 329 757 q 702 731 613 757 q 846 665 792 706 l 740 0 l 499 0 l 482 72 q 394 16 450 40 q 282 -8 338 -8 m 419 207 q 508 247 471 207 l 554 532 q 530 538 546 535 q 497 542 514 542 q 413 504 444 542 q 371 400 382 467 q 360 303 360 338 q 419 207 360 207 z "},"á":{"ha":799,"x_min":90,"x_max":846,"o":"m 282 -8 q 144 57 199 -8 q 90 253 90 122 q 107 415 90 303 q 232 672 135 588 q 510 757 329 757 q 702 731 613 757 q 846 665 792 706 l 740 0 l 499 0 l 482 72 q 394 16 450 40 q 282 -8 338 -8 m 419 207 q 508 247 471 207 l 554 532 q 530 538 546 535 q 497 542 514 542 q 413 504 444 542 q 371 400 382 467 q 360 303 360 338 q 419 207 360 207 m 557 1075 l 785 1075 l 617 876 l 444 876 l 557 1075 z "},"ă":{"ha":799,"x_min":90,"x_max":846,"o":"m 282 -8 q 144 57 199 -8 q 90 253 90 122 q 107 415 90 303 q 232 672 135 588 q 510 757 329 757 q 702 731 613 757 q 846 665 792 706 l 740 0 l 499 0 l 482 72 q 394 16 450 40 q 282 -8 338 -8 m 419 207 q 508 247 471 207 l 554 532 q 530 538 546 535 q 497 542 514 542 q 413 504 444 542 q 371 400 382 467 q 360 303 360 338 q 419 207 360 207 m 529 861 q 401 901 444 861 q 358 1021 358 942 q 364 1079 358 1038 l 488 1079 q 485 1051 485 1060 q 503 999 485 1015 q 549 982 521 982 q 640 1079 625 982 l 767 1079 q 690 916 750 971 q 529 861 631 861 z "},"ắ":{"ha":799,"x_min":90,"x_max":846,"o":"m 282 -8 q 144 57 199 -8 q 90 253 90 122 q 107 415 90 303 q 232 672 135 588 q 510 757 329 757 q 702 731 613 757 q 846 665 792 706 l 740 0 l 499 0 l 482 72 q 394 16 450 40 q 282 -8 338 -8 m 419 207 q 508 247 471 207 l 554 532 q 530 538 546 535 q 497 542 514 542 q 413 504 444 542 q 371 400 382 467 q 360 303 360 338 q 419 207 360 207 m 557 1256 l 785 1256 l 617 1057 l 444 1057 l 557 1256 m 504 833 q 329 971 329 833 q 332 1010 329 996 l 456 1010 q 454 994 454 1004 q 473 953 454 965 q 521 940 492 940 q 608 1010 597 940 l 735 1010 q 504 833 707 833 z "},"ặ":{"ha":799,"x_min":90,"x_max":846,"o":"m 282 -8 q 144 57 199 -8 q 90 253 90 122 q 107 415 90 303 q 232 672 135 588 q 510 757 329 757 q 702 731 613 757 q 846 665 792 706 l 740 0 l 499 0 l 482 72 q 394 16 450 40 q 282 -8 338 -8 m 419 207 q 508 247 471 207 l 554 532 q 530 538 546 535 q 497 542 514 542 q 413 504 444 542 q 371 400 382 467 q 360 303 360 338 q 419 207 360 207 m 529 861 q 401 901 444 861 q 358 1021 358 942 q 364 1079 358 1038 l 488 1079 q 485 1051 485 1060 q 503 999 485 1015 q 549 982 521 982 q 640 1079 625 982 l 767 1079 q 690 916 750 971 q 529 861 631 861 m 290 -328 q 270 -321 278 -328 q 263 -301 263 -314 l 263 -296 l 288 -142 q 325 -107 292 -107 l 450 -107 q 478 -135 478 -107 l 478 -142 l 453 -296 q 441 -319 451 -311 q 415 -328 431 -328 l 290 -328 z "},"ằ":{"ha":799,"x_min":90,"x_max":846,"o":"m 282 -8 q 144 57 199 -8 q 90 253 90 122 q 107 415 90 303 q 232 672 135 588 q 510 757 329 757 q 702 731 613 757 q 846 665 792 706 l 740 0 l 499 0 l 482 72 q 394 16 450 40 q 282 -8 338 -8 m 419 207 q 508 247 471 207 l 554 532 q 530 538 546 535 q 497 542 514 542 q 413 504 444 542 q 371 400 382 467 q 360 303 360 338 q 419 207 360 207 m 338 1256 l 551 1256 l 614 1057 l 456 1057 l 338 1256 m 504 833 q 329 971 329 833 q 332 1010 329 996 l 456 1010 q 454 994 454 1004 q 473 953 454 965 q 521 940 492 940 q 608 1010 597 940 l 735 1010 q 504 833 707 833 z "},"ẳ":{"ha":799,"x_min":90,"x_max":846,"o":"m 282 -8 q 144 57 199 -8 q 90 253 90 122 q 107 415 90 303 q 232 672 135 588 q 510 757 329 757 q 702 731 613 757 q 846 665 792 706 l 740 0 l 499 0 l 482 72 q 394 16 450 40 q 282 -8 338 -8 m 419 207 q 508 247 471 207 l 554 532 q 530 538 546 535 q 497 542 514 542 q 413 504 444 542 q 371 400 382 467 q 360 303 360 338 q 419 207 360 207 m 507 1114 q 554 1157 554 1126 q 524 1175 554 1175 q 481 1167 511 1175 l 497 1269 q 578 1282 538 1282 q 697 1181 697 1282 q 489 997 697 1054 l 507 1114 m 504 833 q 329 971 329 833 q 332 1010 329 996 l 456 1010 q 454 994 454 1004 q 473 953 454 965 q 521 940 492 940 q 608 1010 597 940 l 735 1010 q 504 833 707 833 z "},"ẵ":{"ha":799,"x_min":90,"x_max":846,"o":"m 282 -8 q 144 57 199 -8 q 90 253 90 122 q 107 415 90 303 q 232 672 135 588 q 510 757 329 757 q 702 731 613 757 q 846 665 792 706 l 740 0 l 499 0 l 482 72 q 394 16 450 40 q 282 -8 338 -8 m 419 207 q 508 247 471 207 l 554 532 q 530 538 546 535 q 497 542 514 542 q 413 504 444 542 q 371 400 382 467 q 360 303 360 338 q 419 207 360 207 m 307 1063 q 373 1187 331 1156 q 485 1218 415 1218 q 572 1203 517 1218 q 622 1192 608 1192 q 668 1228 664 1192 l 801 1228 q 738 1099 778 1132 q 626 1065 699 1065 q 567 1073 597 1065 q 532 1082 538 1081 q 488 1092 500 1092 q 456 1083 468 1092 q 440 1063 444 1074 l 307 1063 m 508 833 q 377 867 422 833 q 332 969 332 901 q 336 1010 332 989 l 460 1010 q 458 993 458 1004 q 477 953 458 965 q 525 940 496 940 q 613 1010 601 940 l 739 1010 q 508 833 710 833 z "},"â":{"ha":799,"x_min":90,"x_max":846,"o":"m 282 -8 q 144 57 199 -8 q 90 253 90 122 q 107 415 90 303 q 232 672 135 588 q 510 757 329 757 q 702 731 613 757 q 846 665 792 706 l 740 0 l 499 0 l 482 72 q 394 16 450 40 q 282 -8 338 -8 m 419 207 q 508 247 471 207 l 554 532 q 530 538 546 535 q 497 542 514 542 q 413 504 444 542 q 371 400 382 467 q 360 303 360 338 q 419 207 360 207 m 468 1079 l 650 1079 l 744 876 l 590 876 l 536 961 l 453 876 l 297 876 l 468 1079 z "},"ấ":{"ha":799,"x_min":90,"x_max":935,"o":"m 282 -8 q 144 57 199 -8 q 90 253 90 122 q 107 415 90 303 q 232 672 135 588 q 510 757 329 757 q 702 731 613 757 q 846 665 792 706 l 740 0 l 499 0 l 482 72 q 394 16 450 40 q 282 -8 338 -8 m 419 207 q 508 247 471 207 l 554 532 q 530 538 546 535 q 497 542 514 542 q 413 504 444 542 q 371 400 382 467 q 360 303 360 338 q 419 207 360 207 m 735 1172 l 935 1172 l 826 1001 l 682 1001 l 735 1172 m 463 1038 l 644 1038 l 746 876 l 592 876 l 531 919 l 454 876 l 299 876 l 463 1038 z "},"ậ":{"ha":799,"x_min":90,"x_max":846,"o":"m 282 -8 q 144 57 199 -8 q 90 253 90 122 q 107 415 90 303 q 232 672 135 588 q 510 757 329 757 q 702 731 613 757 q 846 665 792 706 l 740 0 l 499 0 l 482 72 q 394 16 450 40 q 282 -8 338 -8 m 419 207 q 508 247 471 207 l 554 532 q 530 538 546 535 q 497 542 514 542 q 413 504 444 542 q 371 400 382 467 q 360 303 360 338 q 419 207 360 207 m 468 1079 l 650 1079 l 744 876 l 590 876 l 536 961 l 453 876 l 297 876 l 468 1079 m 290 -328 q 270 -321 278 -328 q 263 -301 263 -314 l 263 -296 l 288 -142 q 325 -107 292 -107 l 450 -107 q 478 -135 478 -107 l 478 -142 l 453 -296 q 441 -319 451 -311 q 415 -328 431 -328 l 290 -328 z "},"ầ":{"ha":799,"x_min":90,"x_max":846,"o":"m 282 -8 q 144 57 199 -8 q 90 253 90 122 q 107 415 90 303 q 232 672 135 588 q 510 757 329 757 q 702 731 613 757 q 846 665 792 706 l 740 0 l 499 0 l 482 72 q 394 16 450 40 q 282 -8 338 -8 m 419 207 q 508 247 471 207 l 554 532 q 530 538 546 535 q 497 542 514 542 q 413 504 444 542 q 371 400 382 467 q 360 303 360 338 q 419 207 360 207 m 210 1172 l 410 1172 l 407 1001 l 263 1001 l 210 1172 m 463 1038 l 644 1038 l 746 876 l 592 876 l 531 919 l 454 876 l 299 876 l 463 1038 z "},"ẩ":{"ha":799,"x_min":90,"x_max":889,"o":"m 282 -8 q 144 57 199 -8 q 90 253 90 122 q 107 415 90 303 q 232 672 135 588 q 510 757 329 757 q 702 731 613 757 q 846 665 792 706 l 740 0 l 499 0 l 482 72 q 394 16 450 40 q 282 -8 338 -8 m 419 207 q 508 247 471 207 l 554 532 q 530 538 546 535 q 497 542 514 542 q 413 504 444 542 q 371 400 382 467 q 360 303 360 338 q 419 207 360 207 m 726 1058 q 751 1076 744 1068 q 758 1096 758 1085 q 742 1108 758 1108 q 697 1100 725 1108 l 714 1203 q 793 1215 754 1215 q 865 1194 842 1215 q 889 1131 889 1174 q 847 1026 889 1069 q 710 956 804 982 l 726 1058 m 463 1038 l 644 1038 l 746 876 l 592 876 l 531 919 l 454 876 l 299 876 l 463 1038 z "},"ẫ":{"ha":799,"x_min":90,"x_max":846,"o":"m 282 -8 q 144 57 199 -8 q 90 253 90 122 q 107 415 90 303 q 232 672 135 588 q 510 757 329 757 q 702 731 613 757 q 846 665 792 706 l 740 0 l 499 0 l 482 72 q 394 16 450 40 q 282 -8 338 -8 m 419 207 q 508 247 471 207 l 554 532 q 530 538 546 535 q 497 542 514 542 q 413 504 444 542 q 371 400 382 467 q 360 303 360 338 q 419 207 360 207 m 311 1090 q 377 1215 335 1183 q 489 1246 419 1246 q 576 1231 521 1246 q 626 1219 613 1219 q 674 1256 667 1219 l 807 1256 q 742 1126 782 1160 q 631 1093 703 1093 q 572 1101 601 1093 q 536 1110 542 1108 q 492 1119 504 1119 q 460 1110 472 1119 q 444 1090 449 1101 l 311 1090 m 464 1038 l 646 1038 l 746 876 l 592 876 l 531 919 l 454 876 l 299 876 l 464 1038 z "},"ȁ":{"ha":799,"x_min":90,"x_max":846,"o":"m 282 -8 q 144 57 199 -8 q 90 253 90 122 q 107 415 90 303 q 232 672 135 588 q 510 757 329 757 q 702 731 613 757 q 846 665 792 706 l 740 0 l 499 0 l 482 72 q 394 16 450 40 q 282 -8 338 -8 m 419 207 q 508 247 471 207 l 554 532 q 530 538 546 535 q 497 542 514 542 q 413 504 444 542 q 371 400 382 467 q 360 303 360 338 q 419 207 360 207 m 200 1075 l 414 1075 l 476 876 l 318 876 l 200 1075 m 478 1075 l 692 1075 l 754 876 l 596 876 l 478 1075 z "},"ä":{"ha":799,"x_min":90,"x_max":846,"o":"m 282 -8 q 144 57 199 -8 q 90 253 90 122 q 107 415 90 303 q 232 672 135 588 q 510 757 329 757 q 702 731 613 757 q 846 665 792 706 l 740 0 l 499 0 l 482 72 q 394 16 450 40 q 282 -8 338 -8 m 419 207 q 508 247 471 207 l 554 532 q 530 538 546 535 q 497 542 514 542 q 413 504 444 542 q 371 400 382 467 q 360 303 360 338 q 419 207 360 207 m 331 871 q 310 878 318 871 q 303 897 303 885 l 329 1057 q 365 1092 333 1092 l 490 1092 q 518 1064 518 1092 l 493 903 q 481 879 492 888 q 456 871 471 871 l 331 871 m 604 871 q 584 878 592 871 q 576 897 576 885 l 603 1057 q 639 1092 607 1092 l 764 1092 q 792 1064 792 1092 l 767 903 q 755 879 765 888 q 729 871 744 871 l 604 871 z "},"ạ":{"ha":799,"x_min":90,"x_max":846,"o":"m 282 -8 q 144 57 199 -8 q 90 253 90 122 q 107 415 90 303 q 232 672 135 588 q 510 757 329 757 q 702 731 613 757 q 846 665 792 706 l 740 0 l 499 0 l 482 72 q 394 16 450 40 q 282 -8 338 -8 m 419 207 q 508 247 471 207 l 554 532 q 530 538 546 535 q 497 542 514 542 q 413 504 444 542 q 371 400 382 467 q 360 303 360 338 q 419 207 360 207 m 290 -328 q 270 -321 278 -328 q 263 -301 263 -314 l 263 -296 l 288 -142 q 325 -107 292 -107 l 450 -107 q 478 -135 478 -107 l 478 -142 l 453 -296 q 441 -319 451 -311 q 415 -328 431 -328 l 290 -328 z "},"à":{"ha":799,"x_min":90,"x_max":846,"o":"m 282 -8 q 144 57 199 -8 q 90 253 90 122 q 107 415 90 303 q 232 672 135 588 q 510 757 329 757 q 702 731 613 757 q 846 665 792 706 l 740 0 l 499 0 l 482 72 q 394 16 450 40 q 282 -8 338 -8 m 419 207 q 508 247 471 207 l 554 532 q 530 538 546 535 q 497 542 514 542 q 413 504 444 542 q 371 400 382 467 q 360 303 360 338 q 419 207 360 207 m 351 1075 l 565 1075 l 628 876 l 469 876 l 351 1075 z "},"ả":{"ha":799,"x_min":90,"x_max":846,"o":"m 282 -8 q 144 57 199 -8 q 90 253 90 122 q 107 415 90 303 q 232 672 135 588 q 510 757 329 757 q 702 731 613 757 q 846 665 792 706 l 740 0 l 499 0 l 482 72 q 394 16 450 40 q 282 -8 338 -8 m 419 207 q 508 247 471 207 l 554 532 q 530 538 546 535 q 497 542 514 542 q 413 504 444 542 q 371 400 382 467 q 360 303 360 338 q 419 207 360 207 m 485 933 q 532 976 532 946 q 501 994 532 994 q 458 986 489 994 l 475 1089 q 556 1101 515 1101 q 675 1000 675 1101 q 467 817 675 874 l 485 933 z "},"ȃ":{"ha":799,"x_min":90,"x_max":846,"o":"m 282 -8 q 144 57 199 -8 q 90 253 90 122 q 107 415 90 303 q 232 672 135 588 q 510 757 329 757 q 702 731 613 757 q 846 665 792 706 l 740 0 l 499 0 l 482 72 q 394 16 450 40 q 282 -8 338 -8 m 419 207 q 508 247 471 207 l 554 532 q 530 538 546 535 q 497 542 514 542 q 413 504 444 542 q 371 400 382 467 q 360 303 360 338 q 419 207 360 207 m 328 865 q 404 1028 344 974 q 565 1083 464 1083 q 693 1043 650 1083 q 736 924 736 1003 q 731 865 736 907 l 607 865 q 610 893 610 885 q 592 946 610 929 q 546 963 574 963 q 454 865 469 963 l 328 865 z "},"ā":{"ha":799,"x_min":90,"x_max":846,"o":"m 282 -8 q 144 57 199 -8 q 90 253 90 122 q 107 415 90 303 q 232 672 135 588 q 510 757 329 757 q 702 731 613 757 q 846 665 792 706 l 740 0 l 499 0 l 482 72 q 394 16 450 40 q 282 -8 338 -8 m 419 207 q 508 247 471 207 l 554 532 q 530 538 546 535 q 497 542 514 542 q 413 504 444 542 q 371 400 382 467 q 360 303 360 338 q 419 207 360 207 m 357 1035 l 763 1035 l 738 876 l 332 876 l 357 1035 z "},"ą":{"ha":799,"x_min":90,"x_max":846,"o":"m 740 0 q 688 -47 704 -22 q 672 -92 672 -72 q 687 -127 672 -114 q 722 -140 701 -140 l 736 -140 l 717 -265 q 665 -272 700 -272 q 565 -242 596 -272 q 535 -167 535 -211 q 565 -69 535 -111 q 644 0 594 -26 l 499 0 l 482 72 q 394 16 450 40 q 282 -8 338 -8 q 144 57 199 -8 q 90 253 90 122 q 107 415 90 303 q 232 672 135 588 q 510 757 329 757 q 702 731 613 757 q 846 665 792 706 l 740 0 m 554 532 q 530 538 546 535 q 497 542 514 542 q 413 504 444 542 q 371 400 382 467 q 360 303 360 338 q 419 207 360 207 q 508 247 471 207 l 554 532 z "},"å":{"ha":799,"x_min":90,"x_max":846,"o":"m 282 -8 q 144 57 199 -8 q 90 253 90 122 q 107 415 90 303 q 232 672 135 588 q 510 757 329 757 q 702 731 613 757 q 846 665 792 706 l 740 0 l 499 0 l 482 72 q 394 16 450 40 q 282 -8 338 -8 m 419 207 q 508 247 471 207 l 554 532 q 530 538 546 535 q 497 542 514 542 q 413 504 444 542 q 371 400 382 467 q 360 303 360 338 q 419 207 360 207 m 538 806 q 412 839 453 806 q 371 949 371 872 q 426 1080 371 1028 q 578 1132 481 1132 q 703 1099 663 1132 q 743 989 743 1065 q 689 857 743 908 q 538 806 635 806 m 550 901 q 602 925 585 901 q 619 985 619 949 q 567 1036 619 1036 q 513 1012 531 1036 q 494 953 494 988 q 550 901 494 901 z "},"ǻ":{"ha":799,"x_min":90,"x_max":846,"o":"m 282 -8 q 144 57 199 -8 q 90 253 90 122 q 107 415 90 303 q 232 672 135 588 q 510 757 329 757 q 702 731 613 757 q 846 665 792 706 l 740 0 l 499 0 l 482 72 q 394 16 450 40 q 282 -8 338 -8 m 419 207 q 508 247 471 207 l 554 532 q 530 538 546 535 q 497 542 514 542 q 413 504 444 542 q 371 400 382 467 q 360 303 360 338 q 419 207 360 207 m 538 806 q 412 839 453 806 q 371 949 371 872 q 426 1080 371 1028 q 578 1132 481 1132 q 703 1099 663 1132 q 743 989 743 1065 q 689 857 743 908 q 538 806 635 806 m 550 901 q 602 925 585 901 q 619 985 619 949 q 567 1036 619 1036 q 513 1012 531 1036 q 494 953 494 988 q 550 901 494 901 m 614 1353 l 842 1353 l 674 1154 l 501 1154 l 614 1353 z "},"ã":{"ha":799,"x_min":90,"x_max":846,"o":"m 282 -8 q 144 57 199 -8 q 90 253 90 122 q 107 415 90 303 q 232 672 135 588 q 510 757 329 757 q 702 731 613 757 q 846 665 792 706 l 740 0 l 499 0 l 482 72 q 394 16 450 40 q 282 -8 338 -8 m 419 207 q 508 247 471 207 l 554 532 q 530 538 546 535 q 497 542 514 542 q 413 504 444 542 q 371 400 382 467 q 360 303 360 338 q 419 207 360 207 m 251 868 q 324 1015 276 971 q 436 1058 371 1058 q 494 1052 468 1058 q 557 1035 521 1046 q 626 1018 600 1018 q 675 1068 665 1018 l 808 1068 q 738 917 781 963 q 626 871 694 871 q 567 877 596 871 q 497 896 539 883 q 435 911 451 911 q 385 868 401 911 l 251 868 z "},"æ":{"ha":1196,"x_min":93,"x_max":1233,"o":"m 292 -8 q 149 53 204 -8 q 93 249 93 115 q 206 644 93 532 q 493 757 318 757 q 722 714 635 757 q 818 745 749 733 q 917 757 888 757 q 1156 699 1078 757 q 1233 517 1233 642 q 1162 328 1233 392 q 931 264 1090 264 q 849 267 894 264 q 790 275 804 271 q 788 249 788 261 q 819 203 788 219 q 925 188 850 188 l 1174 188 l 1149 31 q 992 3 1088 14 q 808 -8 896 -8 q 665 17 732 -8 q 575 88 599 43 q 431 14 496 36 q 292 -8 365 -8 m 875 410 q 960 431 938 410 q 983 488 983 453 q 919 553 983 553 q 847 519 871 553 q 808 415 822 485 q 875 410 836 410 m 419 210 q 481 227 450 210 q 525 264 513 244 l 525 300 q 568 535 525 419 q 546 540 561 538 q 519 542 531 542 q 400 480 439 542 q 361 300 361 418 q 375 234 361 258 q 419 210 389 210 z "},"ǽ":{"ha":1196,"x_min":93,"x_max":1233,"o":"m 292 -8 q 149 53 204 -8 q 93 249 93 115 q 206 644 93 532 q 493 757 318 757 q 722 714 635 757 q 818 745 749 733 q 917 757 888 757 q 1156 699 1078 757 q 1233 517 1233 642 q 1162 328 1233 392 q 931 264 1090 264 q 849 267 894 264 q 790 275 804 271 q 788 249 788 261 q 819 203 788 219 q 925 188 850 188 l 1174 188 l 1149 31 q 992 3 1088 14 q 808 -8 896 -8 q 665 17 732 -8 q 575 88 599 43 q 431 14 496 36 q 292 -8 365 -8 m 875 410 q 960 431 938 410 q 983 488 983 453 q 919 553 983 553 q 847 519 871 553 q 808 415 822 485 q 875 410 836 410 m 419 210 q 481 227 450 210 q 525 264 513 244 l 525 300 q 568 535 525 419 q 546 540 561 538 q 519 542 531 542 q 400 480 439 542 q 361 300 361 418 q 375 234 361 258 q 419 210 389 210 m 765 1075 l 993 1075 l 825 876 l 653 876 l 765 1075 z "},"b":{"ha":818,"x_min":61,"x_max":844,"o":"m 553 -8 q 435 12 490 -8 q 343 68 381 32 l 303 0 l 61 0 l 229 1060 l 499 1060 l 444 715 q 528 745 483 733 q 606 757 572 757 q 781 686 718 757 q 844 488 844 615 q 825 310 844 433 q 730 74 801 156 q 553 -8 658 -8 m 465 207 q 531 244 506 207 q 569 379 557 282 q 575 444 575 432 q 513 542 575 542 q 460 536 488 542 q 414 521 432 531 l 369 238 q 407 214 386 221 q 465 207 428 207 z "},"ḃ":{"ha":818,"x_min":61,"x_max":844,"o":"m 553 -8 q 435 12 490 -8 q 343 68 381 32 l 303 0 l 61 0 l 229 1060 l 499 1060 l 444 715 q 528 745 483 733 q 606 757 572 757 q 781 686 718 757 q 844 488 844 615 q 825 310 844 433 q 730 74 801 156 q 553 -8 658 -8 m 465 207 q 531 244 506 207 q 569 379 557 282 q 575 444 575 432 q 513 542 575 542 q 460 536 488 542 q 414 521 432 531 l 369 238 q 407 214 386 221 q 465 207 428 207 m 324 1158 q 303 1165 311 1158 q 296 1185 296 1172 l 296 1190 l 321 1344 q 358 1379 325 1379 l 483 1379 q 511 1351 511 1379 l 511 1344 l 486 1190 q 474 1167 485 1175 q 449 1158 464 1158 l 324 1158 z "},"c":{"ha":654,"x_min":96,"x_max":721,"o":"m 375 -8 q 167 59 238 -8 q 96 283 96 126 q 108 417 96 340 q 457 757 160 757 q 721 707 564 757 l 696 553 l 522 553 q 418 509 450 553 q 371 375 386 465 q 364 310 364 331 q 464 193 364 193 l 649 193 l 625 42 q 513 4 571 17 q 375 -8 454 -8 z "},"ć":{"ha":654,"x_min":96,"x_max":757,"o":"m 375 -8 q 167 59 238 -8 q 96 283 96 126 q 108 417 96 340 q 457 757 160 757 q 721 707 564 757 l 696 553 l 522 553 q 418 509 450 553 q 371 375 386 465 q 364 310 364 331 q 464 193 364 193 l 649 193 l 625 42 q 513 4 571 17 q 375 -8 454 -8 m 529 1075 l 757 1075 l 589 876 l 417 876 l 529 1075 z "},"č":{"ha":654,"x_min":96,"x_max":771,"o":"m 375 -8 q 167 59 238 -8 q 96 283 96 126 q 108 417 96 340 q 457 757 160 757 q 721 707 564 757 l 696 553 l 522 553 q 418 509 450 553 q 371 375 386 465 q 364 310 364 331 q 464 193 364 193 l 649 193 l 625 42 q 513 4 571 17 q 375 -8 454 -8 m 324 1079 l 478 1079 l 532 994 l 615 1079 l 771 1079 l 600 876 l 418 876 l 324 1079 z "},"ç":{"ha":654,"x_min":96,"x_max":721,"o":"m 522 553 q 418 509 450 553 q 371 375 386 465 q 364 310 364 331 q 464 193 364 193 l 649 193 l 625 42 q 522 6 575 19 q 401 -8 469 -7 l 356 -68 q 410 -95 389 -74 q 431 -157 431 -117 q 386 -247 431 -211 q 253 -282 342 -282 l 171 -282 l 188 -172 l 210 -168 q 260 -124 260 -160 q 222 -86 260 -97 l 288 -1 q 144 85 193 18 q 96 283 96 153 q 108 417 96 340 q 457 757 160 757 q 721 707 564 757 l 696 553 l 522 553 z "},"ḉ":{"ha":654,"x_min":96,"x_max":757,"o":"m 589 876 l 417 876 l 529 1075 l 757 1075 l 589 876 m 108 417 q 457 757 160 757 q 721 707 564 757 l 696 553 l 522 553 q 418 509 450 553 q 371 375 386 465 q 364 310 364 331 q 464 193 364 193 l 649 193 l 625 42 q 522 6 575 19 q 401 -8 469 -7 l 356 -68 q 410 -95 389 -74 q 431 -157 431 -117 q 386 -247 431 -211 q 253 -282 342 -282 l 171 -282 l 188 -172 l 210 -168 q 260 -124 260 -160 q 222 -86 260 -97 l 288 -1 q 144 85 193 18 q 96 283 96 153 q 108 417 96 340 z "},"ĉ":{"ha":654,"x_min":96,"x_max":721,"o":"m 375 -8 q 167 59 238 -8 q 96 283 96 126 q 108 417 96 340 q 457 757 160 757 q 721 707 564 757 l 696 553 l 522 553 q 418 509 450 553 q 371 375 386 465 q 364 310 364 331 q 464 193 364 193 l 649 193 l 625 42 q 513 4 571 17 q 375 -8 454 -8 m 440 1079 l 622 1079 l 717 876 l 563 876 l 508 961 l 425 876 l 269 876 l 440 1079 z "},"ċ":{"ha":654,"x_min":96,"x_max":721,"o":"m 375 -8 q 167 59 238 -8 q 96 283 96 126 q 108 417 96 340 q 457 757 160 757 q 721 707 564 757 l 696 553 l 522 553 q 418 509 450 553 q 371 375 386 465 q 364 310 364 331 q 464 193 364 193 l 649 193 l 625 42 q 513 4 571 17 q 375 -8 454 -8 m 440 881 q 420 888 428 881 q 413 907 413 894 l 413 913 l 438 1067 q 475 1101 442 1101 l 600 1101 q 628 1074 628 1101 l 628 1067 l 603 913 q 591 889 601 897 q 565 881 581 881 l 440 881 z "},"d":{"ha":806,"x_min":94,"x_max":911,"o":"m 299 -8 q 145 61 196 -8 q 94 258 94 131 q 111 421 94 336 q 173 607 133 535 q 288 718 213 679 q 488 757 364 757 q 593 751 553 757 l 642 1060 l 911 1060 l 743 0 l 501 0 l 485 72 q 397 13 446 35 q 299 -8 349 -8 m 424 207 q 513 247 472 207 l 558 532 q 501 542 536 542 q 422 510 456 542 q 369 376 388 478 q 363 301 363 332 q 424 207 363 207 z "},"ð":{"ha":804,"x_min":94,"x_max":858,"o":"m 747 931 q 843 628 843 831 q 814 326 843 513 q 745 119 794 192 q 614 19 696 47 q 401 -8 532 -8 q 171 60 247 -8 q 94 257 94 128 q 101 374 94 331 q 168 598 125 521 q 278 702 211 675 q 450 729 344 729 q 624 678 547 729 q 597 780 619 739 q 533 844 575 821 l 310 753 l 286 835 l 400 881 q 267 888 351 888 l 294 1060 q 669 990 543 1060 l 836 1058 l 858 976 l 747 931 m 550 394 q 557 474 557 446 q 540 509 557 499 q 482 519 522 519 q 421 505 442 519 q 388 453 400 490 q 365 336 376 415 q 361 269 361 310 q 376 221 361 235 q 429 207 392 207 q 490 219 469 207 q 523 265 511 232 q 546 364 535 297 l 550 394 z "},"ď":{"ha":806,"x_min":94,"x_max":1221,"o":"m 299 -8 q 145 61 196 -8 q 94 258 94 131 q 111 421 94 336 q 173 607 133 535 q 288 718 213 679 q 488 757 364 757 q 593 751 553 757 l 642 1060 l 911 1060 l 743 0 l 501 0 l 485 72 q 397 13 446 35 q 299 -8 349 -8 m 424 207 q 513 247 472 207 l 558 532 q 501 542 536 542 q 422 510 456 542 q 369 376 388 478 q 363 301 363 332 q 424 207 363 207 m 963 994 l 978 1088 l 1221 1088 l 1206 994 l 1163 808 l 949 808 l 963 994 z "},"đ":{"ha":806,"x_min":94,"x_max":965,"o":"m 949 842 l 876 842 l 743 0 l 501 0 l 485 72 q 397 13 446 35 q 299 -8 349 -8 q 145 61 196 -8 q 94 258 94 131 q 111 421 94 336 q 173 607 133 535 q 288 718 213 679 q 488 757 364 757 q 593 751 553 757 l 607 842 l 465 842 l 482 944 l 624 944 l 642 1060 l 911 1060 l 893 944 l 965 944 l 949 842 m 558 532 q 501 542 536 542 q 422 510 456 542 q 369 376 388 478 q 363 301 363 332 q 424 207 363 207 q 513 247 472 207 l 558 532 z "},"ḋ":{"ha":806,"x_min":94,"x_max":924,"o":"m 299 -8 q 145 61 196 -8 q 94 258 94 131 q 111 421 94 336 q 173 607 133 535 q 288 718 213 679 q 488 757 364 757 q 593 751 553 757 l 642 1060 l 911 1060 l 743 0 l 501 0 l 485 72 q 397 13 446 35 q 299 -8 349 -8 m 424 207 q 513 247 472 207 l 558 532 q 501 542 536 542 q 422 510 456 542 q 369 376 388 478 q 363 301 363 332 q 424 207 363 207 m 736 1158 q 716 1165 724 1158 q 708 1185 708 1172 l 708 1190 l 733 1344 q 771 1379 738 1379 l 896 1379 q 924 1351 924 1379 l 924 1344 l 899 1190 q 887 1167 897 1175 q 861 1158 876 1158 l 736 1158 z "},"ḍ":{"ha":806,"x_min":94,"x_max":911,"o":"m 299 -8 q 145 61 196 -8 q 94 258 94 131 q 111 421 94 336 q 173 607 133 535 q 288 718 213 679 q 488 757 364 757 q 593 751 553 757 l 642 1060 l 911 1060 l 743 0 l 501 0 l 485 72 q 397 13 446 35 q 299 -8 349 -8 m 424 207 q 513 247 472 207 l 558 532 q 501 542 536 542 q 422 510 456 542 q 369 376 388 478 q 363 301 363 332 q 424 207 363 207 m 308 -328 q 288 -321 296 -328 q 281 -301 281 -314 l 281 -296 l 306 -142 q 343 -107 310 -107 l 468 -107 q 496 -135 496 -107 l 496 -142 l 471 -296 q 459 -319 469 -311 q 433 -328 449 -328 l 308 -328 z "},"ḏ":{"ha":806,"x_min":94,"x_max":911,"o":"m 299 -8 q 145 61 196 -8 q 94 258 94 131 q 111 421 94 336 q 173 607 133 535 q 288 718 213 679 q 488 757 364 757 q 593 751 553 757 l 642 1060 l 911 1060 l 743 0 l 501 0 l 485 72 q 397 13 446 35 q 299 -8 349 -8 m 424 207 q 513 247 472 207 l 558 532 q 501 542 536 542 q 422 510 456 542 q 369 376 388 478 q 363 301 363 332 q 424 207 363 207 m 200 -160 l 606 -160 l 581 -318 l 175 -318 l 200 -160 z "},"e":{"ha":761,"x_min":94,"x_max":803,"o":"m 386 -8 q 162 65 229 -8 q 94 282 94 139 q 107 415 94 340 q 236 678 136 599 q 506 757 336 757 q 718 706 633 757 q 803 522 803 654 q 723 318 803 372 q 496 264 643 264 q 361 275 410 264 q 358 247 358 258 q 392 202 358 217 q 496 188 425 188 l 744 188 l 719 31 q 386 -8 564 -8 m 432 410 q 528 430 504 410 q 553 493 553 450 q 536 537 553 521 q 488 553 519 553 q 417 519 443 553 q 378 415 390 485 q 432 410 414 410 z "},"é":{"ha":761,"x_min":94,"x_max":803,"o":"m 386 -8 q 162 65 229 -8 q 94 282 94 139 q 107 415 94 340 q 236 678 136 599 q 506 757 336 757 q 718 706 633 757 q 803 522 803 654 q 723 318 803 372 q 496 264 643 264 q 361 275 410 264 q 358 247 358 258 q 392 202 358 217 q 496 188 425 188 l 744 188 l 719 31 q 386 -8 564 -8 m 432 410 q 528 430 504 410 q 553 493 553 450 q 536 537 553 521 q 488 553 519 553 q 417 519 443 553 q 378 415 390 485 q 432 410 414 410 m 556 1075 l 783 1075 l 615 876 l 443 876 l 556 1075 z "},"ĕ":{"ha":761,"x_min":94,"x_max":803,"o":"m 386 -8 q 162 65 229 -8 q 94 282 94 139 q 107 415 94 340 q 236 678 136 599 q 506 757 336 757 q 718 706 633 757 q 803 522 803 654 q 723 318 803 372 q 496 264 643 264 q 361 275 410 264 q 358 247 358 258 q 392 202 358 217 q 496 188 425 188 l 744 188 l 719 31 q 386 -8 564 -8 m 432 410 q 528 430 504 410 q 553 493 553 450 q 536 537 553 521 q 488 553 519 553 q 417 519 443 553 q 378 415 390 485 q 432 410 414 410 m 528 861 q 400 901 443 861 q 357 1021 357 942 q 363 1079 357 1038 l 486 1079 q 483 1051 483 1060 q 501 999 483 1015 q 547 982 519 982 q 639 1079 624 982 l 765 1079 q 689 916 749 971 q 528 861 629 861 z "},"ě":{"ha":761,"x_min":94,"x_max":803,"o":"m 386 -8 q 162 65 229 -8 q 94 282 94 139 q 107 415 94 340 q 236 678 136 599 q 506 757 336 757 q 718 706 633 757 q 803 522 803 654 q 723 318 803 372 q 496 264 643 264 q 361 275 410 264 q 358 247 358 258 q 392 202 358 217 q 496 188 425 188 l 744 188 l 719 31 q 386 -8 564 -8 m 432 410 q 528 430 504 410 q 553 493 553 450 q 536 537 553 521 q 488 553 519 553 q 417 519 443 553 q 378 415 390 485 q 432 410 414 410 m 350 1079 l 504 1079 l 558 994 l 642 1079 l 797 1079 l 626 876 l 444 876 l 350 1079 z "},"ḝ":{"ha":761,"x_min":94,"x_max":803,"o":"m 528 861 q 400 901 443 861 q 357 1021 357 942 q 363 1079 357 1038 l 486 1079 q 483 1051 483 1060 q 501 999 483 1015 q 547 982 519 982 q 639 1079 624 982 l 765 1079 q 689 916 749 971 q 528 861 629 861 m 358 247 q 392 202 358 217 q 496 188 425 188 l 744 188 l 719 31 q 457 -7 597 0 l 410 -68 q 464 -95 443 -74 q 485 -157 485 -117 q 440 -247 485 -211 q 307 -282 396 -282 l 225 -282 l 242 -172 l 264 -168 q 314 -124 314 -160 q 276 -86 314 -97 l 338 -7 q 151 78 207 6 q 94 282 94 150 q 107 415 94 340 q 236 678 136 599 q 506 757 336 757 q 718 706 633 757 q 803 522 803 654 q 723 318 803 372 q 496 264 643 264 q 361 275 410 264 q 358 247 358 258 m 488 553 q 417 519 443 553 q 378 415 390 485 q 432 410 414 410 q 528 430 504 410 q 553 493 553 450 q 536 537 553 521 q 488 553 519 553 z "},"ê":{"ha":761,"x_min":94,"x_max":803,"o":"m 386 -8 q 162 65 229 -8 q 94 282 94 139 q 107 415 94 340 q 236 678 136 599 q 506 757 336 757 q 718 706 633 757 q 803 522 803 654 q 723 318 803 372 q 496 264 643 264 q 361 275 410 264 q 358 247 358 258 q 392 202 358 217 q 496 188 425 188 l 744 188 l 719 31 q 386 -8 564 -8 m 432 410 q 528 430 504 410 q 553 493 553 450 q 536 537 553 521 q 488 553 519 553 q 417 519 443 553 q 378 415 390 485 q 432 410 414 410 m 467 1079 l 649 1079 l 743 876 l 589 876 l 535 961 l 451 876 l 296 876 l 467 1079 z "},"ế":{"ha":761,"x_min":94,"x_max":933,"o":"m 386 -8 q 162 65 229 -8 q 94 282 94 139 q 107 415 94 340 q 236 678 136 599 q 506 757 336 757 q 718 706 633 757 q 803 522 803 654 q 723 318 803 372 q 496 264 643 264 q 361 275 410 264 q 358 247 358 258 q 392 202 358 217 q 496 188 425 188 l 744 188 l 719 31 q 386 -8 564 -8 m 432 410 q 528 430 504 410 q 553 493 553 450 q 536 537 553 521 q 488 553 519 553 q 417 519 443 553 q 378 415 390 485 q 432 410 414 410 m 733 1172 l 933 1172 l 825 1001 l 681 1001 l 733 1172 m 461 1038 l 643 1038 l 744 876 l 590 876 l 529 919 l 453 876 l 297 876 l 461 1038 z "},"ệ":{"ha":761,"x_min":94,"x_max":803,"o":"m 386 -8 q 162 65 229 -8 q 94 282 94 139 q 107 415 94 340 q 236 678 136 599 q 506 757 336 757 q 718 706 633 757 q 803 522 803 654 q 723 318 803 372 q 496 264 643 264 q 361 275 410 264 q 358 247 358 258 q 392 202 358 217 q 496 188 425 188 l 744 188 l 719 31 q 386 -8 564 -8 m 432 410 q 528 430 504 410 q 553 493 553 450 q 536 537 553 521 q 488 553 519 553 q 417 519 443 553 q 378 415 390 485 q 432 410 414 410 m 467 1079 l 649 1079 l 743 876 l 589 876 l 535 961 l 451 876 l 296 876 l 467 1079 m 317 -328 q 297 -321 304 -328 q 289 -301 289 -314 l 289 -296 l 314 -142 q 351 -107 318 -107 l 476 -107 q 504 -135 504 -107 l 504 -142 l 479 -296 q 467 -319 478 -311 q 442 -328 457 -328 l 317 -328 z "},"ề":{"ha":761,"x_min":94,"x_max":803,"o":"m 386 -8 q 162 65 229 -8 q 94 282 94 139 q 107 415 94 340 q 236 678 136 599 q 506 757 336 757 q 718 706 633 757 q 803 522 803 654 q 723 318 803 372 q 496 264 643 264 q 361 275 410 264 q 358 247 358 258 q 392 202 358 217 q 496 188 425 188 l 744 188 l 719 31 q 386 -8 564 -8 m 432 410 q 528 430 504 410 q 553 493 553 450 q 536 537 553 521 q 488 553 519 553 q 417 519 443 553 q 378 415 390 485 q 432 410 414 410 m 208 1172 l 408 1172 l 406 1001 l 261 1001 l 208 1172 m 461 1038 l 643 1038 l 744 876 l 590 876 l 529 919 l 453 876 l 297 876 l 461 1038 z "},"ể":{"ha":761,"x_min":94,"x_max":888,"o":"m 386 -8 q 162 65 229 -8 q 94 282 94 139 q 107 415 94 340 q 236 678 136 599 q 506 757 336 757 q 718 706 633 757 q 803 522 803 654 q 723 318 803 372 q 496 264 643 264 q 361 275 410 264 q 358 247 358 258 q 392 202 358 217 q 496 188 425 188 l 744 188 l 719 31 q 386 -8 564 -8 m 432 410 q 528 430 504 410 q 553 493 553 450 q 536 537 553 521 q 488 553 519 553 q 417 519 443 553 q 378 415 390 485 q 432 410 414 410 m 725 1058 q 750 1076 743 1068 q 757 1096 757 1085 q 740 1108 757 1108 q 696 1100 724 1108 l 713 1203 q 792 1215 753 1215 q 864 1194 840 1215 q 888 1131 888 1174 q 845 1026 888 1069 q 708 956 803 982 l 725 1058 m 461 1038 l 643 1038 l 744 876 l 590 876 l 529 919 l 453 876 l 297 876 l 461 1038 z "},"ễ":{"ha":761,"x_min":94,"x_max":806,"o":"m 386 -8 q 162 65 229 -8 q 94 282 94 139 q 107 415 94 340 q 236 678 136 599 q 506 757 336 757 q 718 706 633 757 q 803 522 803 654 q 723 318 803 372 q 496 264 643 264 q 361 275 410 264 q 358 247 358 258 q 392 202 358 217 q 496 188 425 188 l 744 188 l 719 31 q 386 -8 564 -8 m 432 410 q 528 430 504 410 q 553 493 553 450 q 536 537 553 521 q 488 553 519 553 q 417 519 443 553 q 378 415 390 485 q 432 410 414 410 m 310 1090 q 376 1215 333 1183 q 488 1246 418 1246 q 575 1231 519 1246 q 625 1219 611 1219 q 672 1256 665 1219 l 806 1256 q 741 1126 781 1160 q 629 1093 701 1093 q 570 1101 600 1093 q 535 1110 540 1108 q 490 1119 503 1119 q 459 1110 471 1119 q 443 1090 447 1101 l 310 1090 m 463 1038 l 644 1038 l 744 876 l 590 876 l 529 919 l 453 876 l 297 876 l 463 1038 z "},"ȅ":{"ha":761,"x_min":94,"x_max":803,"o":"m 386 -8 q 162 65 229 -8 q 94 282 94 139 q 107 415 94 340 q 236 678 136 599 q 506 757 336 757 q 718 706 633 757 q 803 522 803 654 q 723 318 803 372 q 496 264 643 264 q 361 275 410 264 q 358 247 358 258 q 392 202 358 217 q 496 188 425 188 l 744 188 l 719 31 q 386 -8 564 -8 m 432 410 q 528 430 504 410 q 553 493 553 450 q 536 537 553 521 q 488 553 519 553 q 417 519 443 553 q 378 415 390 485 q 432 410 414 410 m 199 1075 l 413 1075 l 475 876 l 317 876 l 199 1075 m 476 1075 l 690 1075 l 753 876 l 594 876 l 476 1075 z "},"ë":{"ha":761,"x_min":94,"x_max":803,"o":"m 386 -8 q 162 65 229 -8 q 94 282 94 139 q 107 415 94 340 q 236 678 136 599 q 506 757 336 757 q 718 706 633 757 q 803 522 803 654 q 723 318 803 372 q 496 264 643 264 q 361 275 410 264 q 358 247 358 258 q 392 202 358 217 q 496 188 425 188 l 744 188 l 719 31 q 386 -8 564 -8 m 432 410 q 528 430 504 410 q 553 493 553 450 q 536 537 553 521 q 488 553 519 553 q 417 519 443 553 q 378 415 390 485 q 432 410 414 410 m 329 871 q 309 878 317 871 q 301 897 301 885 l 328 1057 q 364 1092 332 1092 l 489 1092 q 517 1064 517 1092 l 492 903 q 480 879 490 888 q 454 871 469 871 l 329 871 m 603 871 q 583 878 590 871 q 575 897 575 885 l 601 1057 q 638 1092 606 1092 l 763 1092 q 790 1064 790 1092 l 765 903 q 753 879 764 888 q 728 871 743 871 l 603 871 z "},"ė":{"ha":761,"x_min":94,"x_max":803,"o":"m 386 -8 q 162 65 229 -8 q 94 282 94 139 q 107 415 94 340 q 236 678 136 599 q 506 757 336 757 q 718 706 633 757 q 803 522 803 654 q 723 318 803 372 q 496 264 643 264 q 361 275 410 264 q 358 247 358 258 q 392 202 358 217 q 496 188 425 188 l 744 188 l 719 31 q 386 -8 564 -8 m 432 410 q 528 430 504 410 q 553 493 553 450 q 536 537 553 521 q 488 553 519 553 q 417 519 443 553 q 378 415 390 485 q 432 410 414 410 m 467 881 q 447 888 454 881 q 439 907 439 894 l 439 913 l 464 1067 q 501 1101 468 1101 l 626 1101 q 654 1074 654 1101 l 654 1067 l 629 913 q 617 889 628 897 q 592 881 607 881 l 467 881 z "},"ẹ":{"ha":761,"x_min":94,"x_max":803,"o":"m 386 -8 q 162 65 229 -8 q 94 282 94 139 q 107 415 94 340 q 236 678 136 599 q 506 757 336 757 q 718 706 633 757 q 803 522 803 654 q 723 318 803 372 q 496 264 643 264 q 361 275 410 264 q 358 247 358 258 q 392 202 358 217 q 496 188 425 188 l 744 188 l 719 31 q 386 -8 564 -8 m 432 410 q 528 430 504 410 q 553 493 553 450 q 536 537 553 521 q 488 553 519 553 q 417 519 443 553 q 378 415 390 485 q 432 410 414 410 m 317 -328 q 297 -321 304 -328 q 289 -301 289 -314 l 289 -296 l 314 -142 q 351 -107 318 -107 l 476 -107 q 504 -135 504 -107 l 504 -142 l 479 -296 q 467 -319 478 -311 q 442 -328 457 -328 l 317 -328 z "},"è":{"ha":761,"x_min":94,"x_max":803,"o":"m 386 -8 q 162 65 229 -8 q 94 282 94 139 q 107 415 94 340 q 236 678 136 599 q 506 757 336 757 q 718 706 633 757 q 803 522 803 654 q 723 318 803 372 q 496 264 643 264 q 361 275 410 264 q 358 247 358 258 q 392 202 358 217 q 496 188 425 188 l 744 188 l 719 31 q 386 -8 564 -8 m 432 410 q 528 430 504 410 q 553 493 553 450 q 536 537 553 521 q 488 553 519 553 q 417 519 443 553 q 378 415 390 485 q 432 410 414 410 m 350 1075 l 564 1075 l 626 876 l 468 876 l 350 1075 z "},"ẻ":{"ha":761,"x_min":94,"x_max":803,"o":"m 386 -8 q 162 65 229 -8 q 94 282 94 139 q 107 415 94 340 q 236 678 136 599 q 506 757 336 757 q 718 706 633 757 q 803 522 803 654 q 723 318 803 372 q 496 264 643 264 q 361 275 410 264 q 358 247 358 258 q 392 202 358 217 q 496 188 425 188 l 744 188 l 719 31 q 386 -8 564 -8 m 432 410 q 528 430 504 410 q 553 493 553 450 q 536 537 553 521 q 488 553 519 553 q 417 519 443 553 q 378 415 390 485 q 432 410 414 410 m 483 933 q 531 976 531 946 q 500 994 531 994 q 457 986 488 994 l 474 1089 q 554 1101 514 1101 q 674 1000 674 1101 q 465 817 674 874 l 483 933 z "},"ȇ":{"ha":761,"x_min":94,"x_max":803,"o":"m 386 -8 q 162 65 229 -8 q 94 282 94 139 q 107 415 94 340 q 236 678 136 599 q 506 757 336 757 q 718 706 633 757 q 803 522 803 654 q 723 318 803 372 q 496 264 643 264 q 361 275 410 264 q 358 247 358 258 q 392 202 358 217 q 496 188 425 188 l 744 188 l 719 31 q 386 -8 564 -8 m 432 410 q 528 430 504 410 q 553 493 553 450 q 536 537 553 521 q 488 553 519 553 q 417 519 443 553 q 378 415 390 485 q 432 410 414 410 m 326 865 q 403 1028 343 974 q 564 1083 463 1083 q 692 1043 649 1083 q 735 924 735 1003 q 729 865 735 907 l 606 865 q 608 893 608 885 q 590 946 608 929 q 544 963 572 963 q 453 865 468 963 l 326 865 z "},"ē":{"ha":761,"x_min":94,"x_max":803,"o":"m 386 -8 q 162 65 229 -8 q 94 282 94 139 q 107 415 94 340 q 236 678 136 599 q 506 757 336 757 q 718 706 633 757 q 803 522 803 654 q 723 318 803 372 q 496 264 643 264 q 361 275 410 264 q 358 247 358 258 q 392 202 358 217 q 496 188 425 188 l 744 188 l 719 31 q 386 -8 564 -8 m 432 410 q 528 430 504 410 q 553 493 553 450 q 536 537 553 521 q 488 553 519 553 q 417 519 443 553 q 378 415 390 485 q 432 410 414 410 m 356 1035 l 761 1035 l 736 876 l 331 876 l 356 1035 z "},"ḗ":{"ha":761,"x_min":94,"x_max":811,"o":"m 386 -8 q 162 65 229 -8 q 94 282 94 139 q 107 415 94 340 q 236 678 136 599 q 506 757 336 757 q 718 706 633 757 q 803 522 803 654 q 723 318 803 372 q 496 264 643 264 q 361 275 410 264 q 358 247 358 258 q 392 202 358 217 q 496 188 425 188 l 744 188 l 719 31 q 386 -8 564 -8 m 432 410 q 528 430 504 410 q 553 493 553 450 q 536 537 553 521 q 488 553 519 553 q 417 519 443 553 q 378 415 390 485 q 432 410 414 410 m 356 1035 l 761 1035 l 736 876 l 331 876 l 356 1035 m 583 1297 l 811 1297 l 643 1099 l 471 1099 l 583 1297 z "},"ḕ":{"ha":761,"x_min":94,"x_max":803,"o":"m 386 -8 q 162 65 229 -8 q 94 282 94 139 q 107 415 94 340 q 236 678 136 599 q 506 757 336 757 q 718 706 633 757 q 803 522 803 654 q 723 318 803 372 q 496 264 643 264 q 361 275 410 264 q 358 247 358 258 q 392 202 358 217 q 496 188 425 188 l 744 188 l 719 31 q 386 -8 564 -8 m 432 410 q 528 430 504 410 q 553 493 553 450 q 536 537 553 521 q 488 553 519 553 q 417 519 443 553 q 378 415 390 485 q 432 410 414 410 m 356 1035 l 761 1035 l 736 876 l 331 876 l 356 1035 m 350 1297 l 564 1297 l 626 1099 l 468 1099 l 350 1297 z "},"ę":{"ha":761,"x_min":94,"x_max":803,"o":"m 358 247 q 392 202 358 217 q 496 188 425 188 l 744 188 l 719 31 q 667 -17 683 8 q 651 -61 651 -42 q 666 -97 651 -83 q 701 -110 681 -110 l 715 -110 l 696 -235 q 644 -242 679 -242 q 544 -211 575 -242 q 514 -136 514 -181 q 585 6 514 -54 q 386 -8 485 -8 q 162 65 229 -8 q 94 282 94 139 q 107 415 94 340 q 236 678 136 599 q 506 757 336 757 q 718 706 633 757 q 803 522 803 654 q 723 318 803 372 q 496 264 643 264 q 361 275 410 264 q 358 247 358 258 m 488 553 q 417 519 443 553 q 378 415 390 485 q 432 410 414 410 q 528 430 504 410 q 553 493 553 450 q 536 537 553 521 q 488 553 519 553 z "},"ẽ":{"ha":761,"x_min":94,"x_max":807,"o":"m 386 -8 q 162 65 229 -8 q 94 282 94 139 q 107 415 94 340 q 236 678 136 599 q 506 757 336 757 q 718 706 633 757 q 803 522 803 654 q 723 318 803 372 q 496 264 643 264 q 361 275 410 264 q 358 247 358 258 q 392 202 358 217 q 496 188 425 188 l 744 188 l 719 31 q 386 -8 564 -8 m 432 410 q 528 430 504 410 q 553 493 553 450 q 536 537 553 521 q 488 553 519 553 q 417 519 443 553 q 378 415 390 485 q 432 410 414 410 m 250 868 q 322 1015 275 971 q 435 1058 369 1058 q 493 1052 467 1058 q 556 1035 519 1046 q 625 1018 599 1018 q 674 1068 664 1018 l 807 1068 q 736 917 779 963 q 625 871 693 871 q 566 877 594 871 q 496 896 538 883 q 433 911 450 911 q 383 868 400 911 l 250 868 z "},"ə":{"ha":761,"x_min":85,"x_max":793,"o":"m 501 761 q 726 688 658 761 q 793 471 793 614 q 781 338 793 413 q 651 75 751 154 q 382 -4 551 -4 q 169 47 254 -4 q 85 231 85 99 q 165 435 85 381 q 392 489 244 489 q 526 478 478 489 q 529 506 529 494 q 496 551 529 536 q 392 565 463 565 l 143 565 l 168 722 q 501 761 324 761 m 456 343 q 359 323 383 343 q 335 260 335 303 q 351 216 335 232 q 400 200 368 200 q 471 234 444 200 q 510 338 497 268 q 456 343 474 343 z "},"f":{"ha":557,"x_min":97,"x_max":717,"o":"m 196 535 l 97 535 l 125 707 l 229 749 l 247 856 q 339 1022 267 975 q 544 1068 411 1068 q 717 1053 643 1068 l 685 854 l 597 854 q 528 838 550 854 q 501 778 506 822 l 499 749 l 650 749 l 617 535 l 465 535 l 381 0 l 111 0 l 196 535 z "},"ḟ":{"ha":557,"x_min":97,"x_max":717,"o":"m 196 535 l 97 535 l 125 707 l 229 749 l 247 856 q 339 1022 267 975 q 544 1068 411 1068 q 717 1053 643 1068 l 685 854 l 597 854 q 528 838 550 854 q 501 778 506 822 l 499 749 l 650 749 l 617 535 l 465 535 l 381 0 l 111 0 l 196 535 m 442 1158 q 422 1165 429 1158 q 414 1185 414 1172 l 414 1190 l 439 1344 q 476 1379 443 1379 l 601 1379 q 629 1351 629 1379 l 629 1344 l 604 1190 q 592 1167 603 1175 q 567 1158 582 1158 l 442 1158 z "},"g":{"ha":808,"x_min":36,"x_max":853,"o":"m 36 -307 l 65 -121 l 307 -121 q 421 -103 383 -121 q 467 -33 458 -85 l 483 72 q 395 17 456 42 q 282 -8 335 -8 q 138 67 185 -8 q 92 254 92 143 q 111 435 92 306 q 506 757 163 757 q 697 741 607 757 q 853 701 786 725 l 729 -75 q 617 -268 708 -207 q 344 -329 526 -329 q 210 -322 290 -329 l 36 -307 m 424 207 q 510 247 472 207 l 556 532 q 493 542 528 542 q 419 508 453 542 q 374 404 386 475 q 364 345 367 368 q 361 301 361 322 q 424 207 361 207 z "},"ğ":{"ha":808,"x_min":36,"x_max":853,"o":"m 36 -307 l 65 -121 l 307 -121 q 421 -103 383 -121 q 467 -33 458 -85 l 483 72 q 395 17 456 42 q 282 -8 335 -8 q 138 67 185 -8 q 92 254 92 143 q 111 435 92 306 q 506 757 163 757 q 697 741 607 757 q 853 701 786 725 l 729 -75 q 617 -268 708 -207 q 344 -329 526 -329 q 210 -322 290 -329 l 36 -307 m 424 207 q 510 247 472 207 l 556 532 q 493 542 528 542 q 419 508 453 542 q 374 404 386 475 q 364 345 367 368 q 361 301 361 322 q 424 207 361 207 m 529 861 q 401 901 444 861 q 358 1021 358 942 q 364 1079 358 1038 l 488 1079 q 485 1051 485 1060 q 503 999 485 1015 q 549 982 521 982 q 640 1079 625 982 l 767 1079 q 690 916 750 971 q 529 861 631 861 z "},"ǧ":{"ha":808,"x_min":36,"x_max":853,"o":"m 36 -307 l 65 -121 l 307 -121 q 421 -103 383 -121 q 467 -33 458 -85 l 483 72 q 395 17 456 42 q 282 -8 335 -8 q 138 67 185 -8 q 92 254 92 143 q 111 435 92 306 q 506 757 163 757 q 697 741 607 757 q 853 701 786 725 l 729 -75 q 617 -268 708 -207 q 344 -329 526 -329 q 210 -322 290 -329 l 36 -307 m 424 207 q 510 247 472 207 l 556 532 q 493 542 528 542 q 419 508 453 542 q 374 404 386 475 q 364 345 367 368 q 361 301 361 322 q 424 207 361 207 m 351 1079 l 506 1079 l 560 994 l 643 1079 l 799 1079 l 628 876 l 446 876 l 351 1079 z "},"ĝ":{"ha":808,"x_min":36,"x_max":853,"o":"m 36 -307 l 65 -121 l 307 -121 q 421 -103 383 -121 q 467 -33 458 -85 l 483 72 q 395 17 456 42 q 282 -8 335 -8 q 138 67 185 -8 q 92 254 92 143 q 111 435 92 306 q 506 757 163 757 q 697 741 607 757 q 853 701 786 725 l 729 -75 q 617 -268 708 -207 q 344 -329 526 -329 q 210 -322 290 -329 l 36 -307 m 424 207 q 510 247 472 207 l 556 532 q 493 542 528 542 q 419 508 453 542 q 374 404 386 475 q 364 345 367 368 q 361 301 361 322 q 424 207 361 207 m 468 1079 l 650 1079 l 744 876 l 590 876 l 536 961 l 453 876 l 297 876 l 468 1079 z "},"ģ":{"ha":808,"x_min":36,"x_max":853,"o":"m 36 -307 l 65 -121 l 307 -121 q 421 -103 383 -121 q 467 -33 458 -85 l 483 72 q 395 17 456 42 q 282 -8 335 -8 q 138 67 185 -8 q 92 254 92 143 q 111 435 92 306 q 506 757 163 757 q 697 741 607 757 q 853 701 786 725 l 729 -75 q 617 -268 708 -207 q 344 -329 526 -329 q 210 -322 290 -329 l 36 -307 m 424 207 q 510 247 472 207 l 556 532 q 493 542 528 542 q 419 508 453 542 q 374 404 386 475 q 364 345 367 368 q 361 301 361 322 q 424 207 361 207 m 415 882 q 476 1038 432 990 q 615 1085 521 1085 l 700 1085 l 682 975 l 644 963 q 596 936 608 951 q 578 882 583 921 l 415 882 z "},"ġ":{"ha":808,"x_min":36,"x_max":853,"o":"m 36 -307 l 65 -121 l 307 -121 q 421 -103 383 -121 q 467 -33 458 -85 l 483 72 q 395 17 456 42 q 282 -8 335 -8 q 138 67 185 -8 q 92 254 92 143 q 111 435 92 306 q 506 757 163 757 q 697 741 607 757 q 853 701 786 725 l 729 -75 q 617 -268 708 -207 q 344 -329 526 -329 q 210 -322 290 -329 l 36 -307 m 424 207 q 510 247 472 207 l 556 532 q 493 542 528 542 q 419 508 453 542 q 374 404 386 475 q 364 345 367 368 q 361 301 361 322 q 424 207 361 207 m 468 881 q 448 888 456 881 q 440 907 440 894 l 440 913 l 465 1067 q 503 1101 469 1101 l 628 1101 q 656 1074 656 1101 l 656 1067 l 631 913 q 619 889 629 897 q 593 881 608 881 l 468 881 z "},"ḡ":{"ha":808,"x_min":36,"x_max":853,"o":"m 36 -307 l 65 -121 l 307 -121 q 421 -103 383 -121 q 467 -33 458 -85 l 483 72 q 395 17 456 42 q 282 -8 335 -8 q 138 67 185 -8 q 92 254 92 143 q 111 435 92 306 q 506 757 163 757 q 697 741 607 757 q 853 701 786 725 l 729 -75 q 617 -268 708 -207 q 344 -329 526 -329 q 210 -322 290 -329 l 36 -307 m 424 207 q 510 247 472 207 l 556 532 q 493 542 528 542 q 419 508 453 542 q 374 404 386 475 q 364 345 367 368 q 361 301 361 322 q 424 207 361 207 m 357 1035 l 763 1035 l 738 876 l 332 876 l 357 1035 z "},"h":{"ha":833,"x_min":61,"x_max":858,"o":"m 229 1060 l 499 1060 l 438 676 q 539 734 478 711 q 675 757 600 757 q 812 713 765 757 q 858 568 858 668 q 850 472 858 526 l 775 0 l 506 0 l 575 442 q 576 463 576 449 q 519 515 576 515 q 404 464 453 515 l 331 0 l 61 0 l 229 1060 z "},"ħ":{"ha":835,"x_min":61,"x_max":858,"o":"m 675 757 q 812 713 765 757 q 858 568 858 668 q 850 472 858 526 l 775 0 l 506 0 l 575 442 q 576 463 576 449 q 519 515 576 515 q 404 464 453 515 l 331 0 l 61 0 l 194 842 l 133 842 l 150 944 l 211 944 l 229 1060 l 499 1060 l 481 944 l 633 944 l 617 842 l 464 842 l 438 676 q 539 734 478 711 q 675 757 600 757 z "},"ḫ":{"ha":833,"x_min":61,"x_max":858,"o":"m 229 1060 l 499 1060 l 438 676 q 539 734 478 711 q 675 757 600 757 q 812 713 765 757 q 858 568 858 668 q 850 472 858 526 l 775 0 l 506 0 l 575 442 q 576 463 576 449 q 519 515 576 515 q 404 464 453 515 l 331 0 l 61 0 l 229 1060 m 354 -319 q 226 -279 269 -319 q 183 -160 183 -239 q 189 -101 183 -143 l 313 -101 q 310 -129 310 -121 q 328 -182 310 -165 q 374 -199 346 -199 q 465 -101 450 -199 l 592 -101 q 515 -265 575 -210 q 354 -319 456 -319 z "},"ĥ":{"ha":833,"x_min":61,"x_max":858,"o":"m 229 1060 l 499 1060 l 438 676 q 539 734 478 711 q 675 757 600 757 q 812 713 765 757 q 858 568 858 668 q 850 472 858 526 l 775 0 l 506 0 l 575 442 q 576 463 576 449 q 519 515 576 515 q 404 464 453 515 l 331 0 l 61 0 l 229 1060 m 431 1357 l 613 1357 l 707 1154 l 553 1154 l 499 1239 l 415 1154 l 260 1154 l 431 1357 z "},"ḥ":{"ha":833,"x_min":61,"x_max":858,"o":"m 229 1060 l 499 1060 l 438 676 q 539 734 478 711 q 675 757 600 757 q 812 713 765 757 q 858 568 858 668 q 850 472 858 526 l 775 0 l 506 0 l 575 442 q 576 463 576 449 q 519 515 576 515 q 404 464 453 515 l 331 0 l 61 0 l 229 1060 m 307 -328 q 287 -321 294 -328 q 279 -301 279 -314 l 279 -296 l 304 -142 q 342 -107 308 -107 l 467 -107 q 494 -135 494 -107 l 494 -142 l 469 -296 q 458 -319 468 -311 q 432 -328 447 -328 l 307 -328 z "},"i":{"ha":389,"x_min":61,"x_max":499,"o":"m 225 843 q 202 852 210 843 q 197 875 194 861 l 221 1029 q 260 1064 228 1064 l 471 1064 q 492 1054 486 1064 q 496 1029 499 1044 l 472 875 q 436 843 465 843 l 225 843 m 179 749 l 449 749 l 331 0 l 61 0 l 179 749 z "},"ı":{"ha":390,"x_min":63,"x_max":450,"o":"m 181 749 l 450 749 l 332 0 l 63 0 l 181 749 z "},"í":{"ha":390,"x_min":63,"x_max":594,"o":"m 181 749 l 450 749 l 332 0 l 63 0 l 181 749 m 367 1075 l 594 1075 l 426 876 l 254 876 l 367 1075 z "},"ĭ":{"ha":390,"x_min":63,"x_max":576,"o":"m 181 749 l 450 749 l 332 0 l 63 0 l 181 749 m 339 861 q 211 901 254 861 q 168 1021 168 942 q 174 1079 168 1038 l 297 1079 q 294 1051 294 1060 q 313 999 294 1015 q 358 982 331 982 q 450 1079 435 982 l 576 1079 q 500 916 560 971 q 339 861 440 861 z "},"î":{"ha":390,"x_min":63,"x_max":554,"o":"m 181 749 l 450 749 l 332 0 l 63 0 l 181 749 m 278 1079 l 460 1079 l 554 876 l 400 876 l 346 961 l 263 876 l 107 876 l 278 1079 z "},"ȉ":{"ha":390,"x_min":10,"x_max":564,"o":"m 181 749 l 450 749 l 332 0 l 63 0 l 181 749 m 10 1075 l 224 1075 l 286 876 l 128 876 l 10 1075 m 288 1075 l 501 1075 l 564 876 l 406 876 l 288 1075 z "},"ï":{"ha":390,"x_min":63,"x_max":601,"o":"m 181 749 l 450 749 l 332 0 l 63 0 l 181 749 m 140 871 q 120 878 128 871 q 113 897 113 885 l 139 1057 q 175 1092 143 1092 l 300 1092 q 328 1064 328 1092 l 303 903 q 291 879 301 888 q 265 871 281 871 l 140 871 m 414 871 q 394 878 401 871 q 386 897 386 885 l 413 1057 q 449 1092 417 1092 l 574 1092 q 601 1064 601 1092 l 576 903 q 565 879 575 888 q 539 871 554 871 l 414 871 z "},"ḯ":{"ha":390,"x_min":63,"x_max":622,"o":"m 181 749 l 450 749 l 332 0 l 63 0 l 181 749 m 140 871 q 120 878 128 871 q 113 897 113 885 l 139 1057 q 175 1092 143 1092 l 300 1092 q 328 1064 328 1092 l 303 903 q 291 879 301 888 q 265 871 281 871 l 140 871 m 414 871 q 394 878 401 871 q 386 897 386 885 l 413 1057 q 449 1092 417 1092 l 574 1092 q 601 1064 601 1092 l 576 903 q 565 879 575 888 q 539 871 554 871 l 414 871 m 394 1353 l 622 1353 l 454 1154 l 282 1154 l 394 1353 z "},"ị":{"ha":389,"x_min":61,"x_max":496,"o":"m 225 843 q 202 852 210 843 q 197 875 194 861 l 221 1029 q 260 1064 228 1064 l 471 1064 q 492 1054 486 1064 q 496 1029 499 1044 l 472 875 q 436 843 465 843 l 225 843 m 179 749 l 449 749 l 331 0 l 61 0 l 179 749 m 113 -328 q 92 -321 100 -328 q 85 -301 85 -314 l 85 -296 l 110 -142 q 147 -107 114 -107 l 272 -107 q 300 -135 300 -107 l 300 -142 l 275 -296 q 263 -319 274 -311 q 238 -328 253 -328 l 113 -328 z "},"ì":{"ha":390,"x_min":63,"x_max":450,"o":"m 181 749 l 450 749 l 332 0 l 63 0 l 181 749 m 161 1075 l 375 1075 l 438 876 l 279 876 l 161 1075 z "},"ỉ":{"ha":390,"x_min":63,"x_max":485,"o":"m 181 749 l 450 749 l 332 0 l 63 0 l 181 749 m 294 933 q 342 976 342 946 q 311 994 342 994 q 268 986 299 994 l 285 1089 q 365 1101 325 1101 q 485 1000 485 1101 q 276 817 485 874 l 294 933 z "},"ȋ":{"ha":390,"x_min":63,"x_max":546,"o":"m 181 749 l 450 749 l 332 0 l 63 0 l 181 749 m 138 865 q 214 1028 154 974 q 375 1083 274 1083 q 503 1043 460 1083 q 546 924 546 1003 q 540 865 546 907 l 417 865 q 419 893 419 885 q 401 946 419 929 q 356 963 383 963 q 264 865 279 963 l 138 865 z "},"ī":{"ha":390,"x_min":63,"x_max":572,"o":"m 181 749 l 450 749 l 332 0 l 63 0 l 181 749 m 167 1035 l 572 1035 l 547 876 l 142 876 l 167 1035 z "},"į":{"ha":389,"x_min":61,"x_max":496,"o":"m 225 843 q 202 852 210 843 q 197 875 194 861 l 221 1029 q 260 1064 228 1064 l 471 1064 q 492 1054 486 1064 q 496 1029 499 1044 l 472 875 q 436 843 465 843 l 225 843 m 179 749 l 449 749 l 331 0 l 61 0 l 179 749 m 256 -272 q 156 -242 186 -272 q 125 -167 125 -211 q 155 -69 125 -111 q 235 0 185 -26 l 331 0 q 278 -47 294 -22 q 263 -92 263 -72 q 277 -127 263 -114 q 313 -140 292 -140 l 326 -140 l 307 -265 q 256 -272 290 -272 z "},"ĩ":{"ha":390,"x_min":61,"x_max":618,"o":"m 181 749 l 450 749 l 332 0 l 63 0 l 181 749 m 61 868 q 133 1015 86 971 q 246 1058 181 1058 q 304 1052 278 1058 q 367 1035 331 1046 q 436 1018 410 1018 q 485 1068 475 1018 l 618 1068 q 547 917 590 963 q 436 871 504 871 q 377 877 406 871 q 307 896 349 883 q 244 911 261 911 q 194 868 211 911 l 61 868 z "},"j":{"ha":389,"x_min":8,"x_max":499,"o":"m 225 843 q 202 852 210 843 q 197 875 194 861 l 221 1029 q 260 1064 228 1064 l 471 1064 q 492 1054 486 1064 q 496 1029 499 1044 l 472 875 q 436 843 465 843 l 225 843 m 179 749 l 449 749 l 329 -6 q 208 -329 307 -149 l 8 -329 l 179 749 z "},"ȷ":{"ha":390,"x_min":10,"x_max":450,"o":"m 181 749 l 450 749 l 331 -6 q 210 -329 308 -149 l 10 -329 l 181 749 z "},"ĵ":{"ha":390,"x_min":10,"x_max":554,"o":"m 181 749 l 450 749 l 331 -6 q 210 -329 308 -149 l 10 -329 l 181 749 m 278 1079 l 460 1079 l 554 876 l 400 876 l 346 961 l 263 876 l 107 876 l 278 1079 z "},"k":{"ha":815,"x_min":61,"x_max":885,"o":"m 229 1060 l 499 1060 l 411 508 q 615 749 569 551 l 885 749 q 658 400 817 496 l 840 0 l 565 0 l 435 317 q 379 308 401 308 l 331 0 l 61 0 l 229 1060 z "},"ķ":{"ha":815,"x_min":61,"x_max":885,"o":"m 229 1060 l 499 1060 l 411 508 q 615 749 569 551 l 885 749 q 658 400 817 496 l 840 0 l 565 0 l 435 317 q 379 308 401 308 l 331 0 l 61 0 l 229 1060 m 275 -203 l 313 -190 q 361 -164 349 -179 q 379 -110 374 -149 l 542 -110 q 481 -265 525 -218 q 342 -312 436 -312 l 257 -312 l 275 -203 z "},"ĸ":{"ha":815,"x_min":60,"x_max":883,"o":"m 178 749 l 447 749 l 410 508 q 614 749 568 551 l 883 749 q 657 400 815 496 l 839 0 l 564 0 l 433 317 q 378 308 400 308 l 329 0 l 60 0 l 178 749 z "},"l":{"ha":475,"x_min":99,"x_max":499,"o":"m 356 0 q 165 49 231 0 q 99 179 99 99 q 103 263 99 238 l 229 1060 l 499 1060 l 388 358 q 376 263 376 286 q 391 220 376 232 q 440 203 406 208 l 481 196 l 450 0 l 356 0 z "},"ĺ":{"ha":475,"x_min":99,"x_max":635,"o":"m 356 0 q 165 49 231 0 q 99 179 99 99 q 103 263 99 238 l 229 1060 l 499 1060 l 388 358 q 376 263 376 286 q 391 220 376 232 q 440 203 406 208 l 481 196 l 450 0 l 356 0 m 407 1353 l 635 1353 l 467 1154 l 294 1154 l 407 1353 z "},"ľ":{"ha":475,"x_min":99,"x_max":810,"o":"m 356 0 q 165 49 231 0 q 99 179 99 99 q 103 263 99 238 l 229 1060 l 499 1060 l 388 358 q 376 263 376 286 q 391 220 376 232 q 440 203 406 208 l 481 196 l 450 0 l 356 0 m 551 994 l 567 1088 l 810 1088 l 794 994 l 751 808 l 538 808 l 551 994 z "},"ļ":{"ha":475,"x_min":76,"x_max":499,"o":"m 356 0 q 165 49 231 0 q 99 179 99 99 q 103 263 99 238 l 229 1060 l 499 1060 l 388 358 q 376 263 376 286 q 391 220 376 232 q 440 203 406 208 l 481 196 l 450 0 l 356 0 m 94 -203 l 132 -190 q 181 -164 168 -179 q 199 -110 193 -149 l 361 -110 q 300 -265 344 -218 q 161 -312 256 -312 l 76 -312 l 94 -203 z "},"ŀ":{"ha":550,"x_min":99,"x_max":689,"o":"m 356 0 q 165 49 231 0 q 99 179 99 99 q 103 263 99 238 l 229 1060 l 499 1060 l 388 358 q 376 263 376 286 q 391 220 376 232 q 440 203 406 208 l 481 196 l 450 0 l 356 0 m 465 424 q 442 433 450 424 q 436 456 435 442 l 463 618 q 475 643 465 633 q 501 653 485 653 l 658 653 q 688 618 694 653 l 661 456 q 622 424 656 424 l 465 424 z "},"ḷ":{"ha":475,"x_min":99,"x_max":499,"o":"m 356 0 q 165 49 231 0 q 99 179 99 99 q 103 263 99 238 l 229 1060 l 499 1060 l 388 358 q 376 263 376 286 q 391 220 376 232 q 440 203 406 208 l 481 196 l 450 0 l 356 0 m 154 -328 q 134 -321 142 -328 q 126 -301 126 -314 l 126 -296 l 151 -142 q 189 -107 156 -107 l 314 -107 q 342 -135 342 -107 l 342 -142 l 317 -296 q 305 -319 315 -311 q 279 -328 294 -328 l 154 -328 z "},"ḻ":{"ha":475,"x_min":21,"x_max":499,"o":"m 356 0 q 165 49 231 0 q 99 179 99 99 q 103 263 99 238 l 229 1060 l 499 1060 l 388 358 q 376 263 376 286 q 391 220 376 232 q 440 203 406 208 l 481 196 l 450 0 l 356 0 m 46 -160 l 451 -160 l 426 -318 l 21 -318 l 46 -160 z "},"ł":{"ha":475,"x_min":63,"x_max":561,"o":"m 388 358 q 376 263 376 286 q 391 220 376 232 q 440 203 406 208 l 481 196 l 450 0 l 356 0 q 165 49 231 0 q 99 179 99 99 q 103 263 99 238 l 138 482 l 63 453 l 85 593 l 160 622 l 229 1060 l 499 1060 l 443 713 l 561 760 l 539 619 l 421 572 l 388 358 z "},"m":{"ha":1279,"x_min":61,"x_max":1301,"o":"m 179 749 l 404 749 l 438 676 q 543 736 488 715 q 676 757 599 757 q 781 732 738 757 q 853 649 824 707 q 975 731 908 704 q 1103 757 1042 757 q 1256 710 1210 757 q 1301 579 1301 663 q 1290 447 1301 514 l 1219 0 l 950 0 l 1019 440 q 1021 460 1021 447 q 957 515 1021 515 q 849 464 900 515 l 844 438 l 775 0 l 506 0 l 575 440 q 576 461 576 449 q 560 503 576 490 q 514 515 544 515 q 453 501 479 515 q 404 464 428 488 l 331 0 l 61 0 l 179 749 z "},"ṁ":{"ha":1279,"x_min":61,"x_max":1301,"o":"m 179 749 l 404 749 l 438 676 q 543 736 488 715 q 676 757 599 757 q 781 732 738 757 q 853 649 824 707 q 975 731 908 704 q 1103 757 1042 757 q 1256 710 1210 757 q 1301 579 1301 663 q 1290 447 1301 514 l 1219 0 l 950 0 l 1019 440 q 1021 460 1021 447 q 957 515 1021 515 q 849 464 900 515 l 844 438 l 775 0 l 506 0 l 575 440 q 576 461 576 449 q 560 503 576 490 q 514 515 544 515 q 453 501 479 515 q 404 464 428 488 l 331 0 l 61 0 l 179 749 m 735 881 q 715 888 722 881 q 707 907 707 894 l 707 913 l 732 1067 q 769 1101 736 1101 l 894 1101 q 922 1074 922 1101 l 922 1067 l 897 913 q 885 889 896 897 q 860 881 875 881 l 735 881 z "},"ṃ":{"ha":1279,"x_min":61,"x_max":1301,"o":"m 179 749 l 404 749 l 438 676 q 543 736 488 715 q 676 757 599 757 q 781 732 738 757 q 853 649 824 707 q 975 731 908 704 q 1103 757 1042 757 q 1256 710 1210 757 q 1301 579 1301 663 q 1290 447 1301 514 l 1219 0 l 950 0 l 1019 440 q 1021 460 1021 447 q 957 515 1021 515 q 849 464 900 515 l 844 438 l 775 0 l 506 0 l 575 440 q 576 461 576 449 q 560 503 576 490 q 514 515 544 515 q 453 501 479 515 q 404 464 428 488 l 331 0 l 61 0 l 179 749 m 557 -328 q 537 -321 544 -328 q 529 -301 529 -314 l 529 -296 l 554 -142 q 592 -107 558 -107 l 717 -107 q 744 -135 744 -107 l 744 -142 l 719 -296 q 708 -319 718 -311 q 682 -328 697 -328 l 557 -328 z "},"n":{"ha":833,"x_min":61,"x_max":858,"o":"m 179 749 l 404 749 l 438 676 q 672 757 539 757 q 808 712 758 757 q 858 593 858 667 q 856 524 858 558 q 842 422 853 490 l 775 0 l 506 0 l 571 414 q 576 464 576 449 q 514 515 576 515 q 455 501 483 515 q 404 464 426 488 l 331 0 l 61 0 l 179 749 z "},"ń":{"ha":833,"x_min":61,"x_max":858,"o":"m 179 749 l 404 749 l 438 676 q 672 757 539 757 q 808 712 758 757 q 858 593 858 667 q 856 524 858 558 q 842 422 853 490 l 775 0 l 506 0 l 571 414 q 576 464 576 449 q 514 515 576 515 q 455 501 483 515 q 404 464 426 488 l 331 0 l 61 0 l 179 749 m 574 1075 l 801 1075 l 633 876 l 461 876 l 574 1075 z "},"ň":{"ha":833,"x_min":61,"x_max":858,"o":"m 179 749 l 404 749 l 438 676 q 672 757 539 757 q 808 712 758 757 q 858 593 858 667 q 856 524 858 558 q 842 422 853 490 l 775 0 l 506 0 l 571 414 q 576 464 576 449 q 514 515 576 515 q 455 501 483 515 q 404 464 426 488 l 331 0 l 61 0 l 179 749 m 368 1079 l 522 1079 l 576 994 l 660 1079 l 815 1079 l 644 876 l 463 876 l 368 1079 z "},"ņ":{"ha":833,"x_min":61,"x_max":858,"o":"m 179 749 l 404 749 l 438 676 q 672 757 539 757 q 808 712 758 757 q 858 593 858 667 q 856 524 858 558 q 842 422 853 490 l 775 0 l 506 0 l 571 414 q 576 464 576 449 q 514 515 576 515 q 455 501 483 515 q 404 464 426 488 l 331 0 l 61 0 l 179 749 m 247 -203 l 285 -190 q 333 -164 321 -179 q 351 -110 346 -149 l 514 -110 q 453 -265 497 -218 q 314 -312 408 -312 l 229 -312 l 247 -203 z "},"ṅ":{"ha":833,"x_min":61,"x_max":858,"o":"m 179 749 l 404 749 l 438 676 q 672 757 539 757 q 808 712 758 757 q 858 593 858 667 q 856 524 858 558 q 842 422 853 490 l 775 0 l 506 0 l 571 414 q 576 464 576 449 q 514 515 576 515 q 455 501 483 515 q 404 464 426 488 l 331 0 l 61 0 l 179 749 m 307 -328 q 287 -321 294 -328 q 279 -301 279 -314 l 279 -296 l 304 -142 q 342 -107 308 -107 l 467 -107 q 494 -135 494 -107 l 494 -142 l 469 -296 q 458 -319 468 -311 q 432 -328 447 -328 l 307 -328 z "},"ṇ":{"ha":833,"x_min":61,"x_max":858,"o":"m 179 749 l 404 749 l 438 676 q 672 757 539 757 q 808 712 758 757 q 858 593 858 667 q 856 524 858 558 q 842 422 853 490 l 775 0 l 506 0 l 571 414 q 576 464 576 449 q 514 515 576 515 q 455 501 483 515 q 404 464 426 488 l 331 0 l 61 0 l 179 749 m 307 -328 q 287 -321 294 -328 q 279 -301 279 -314 l 279 -296 l 304 -142 q 342 -107 308 -107 l 467 -107 q 494 -135 494 -107 l 494 -142 l 469 -296 q 458 -319 468 -311 q 432 -328 447 -328 l 307 -328 z "},"ŋ":{"ha":833,"x_min":61,"x_max":858,"o":"m 672 757 q 808 712 758 757 q 858 593 858 667 q 856 524 858 558 q 842 422 853 490 l 775 0 l 765 -62 q 699 -228 750 -160 q 581 -329 647 -296 l 367 -329 q 444 -228 410 -286 q 494 -69 478 -169 l 506 0 l 571 414 q 576 464 576 449 q 514 515 576 515 q 455 501 483 515 q 404 464 426 488 l 331 0 l 61 0 l 179 749 l 404 749 l 438 676 q 672 757 539 757 z "},"ṉ":{"ha":833,"x_min":61,"x_max":858,"o":"m 179 749 l 404 749 l 438 676 q 672 757 539 757 q 808 712 758 757 q 858 593 858 667 q 856 524 858 558 q 842 422 853 490 l 775 0 l 506 0 l 571 414 q 576 464 576 449 q 514 515 576 515 q 455 501 483 515 q 404 464 426 488 l 331 0 l 61 0 l 179 749 m 199 -160 l 604 -160 l 579 -318 l 174 -318 l 199 -160 z "},"ñ":{"ha":833,"x_min":61,"x_max":858,"o":"m 179 749 l 404 749 l 438 676 q 672 757 539 757 q 808 712 758 757 q 858 593 858 667 q 856 524 858 558 q 842 422 853 490 l 775 0 l 506 0 l 571 414 q 576 464 576 449 q 514 515 576 515 q 455 501 483 515 q 404 464 426 488 l 331 0 l 61 0 l 179 749 m 268 868 q 340 1015 293 971 q 453 1058 388 1058 q 511 1052 485 1058 q 574 1035 538 1046 q 643 1018 617 1018 q 692 1068 682 1018 l 825 1068 q 754 917 797 963 q 643 871 711 871 q 584 877 613 871 q 514 896 556 883 q 451 911 468 911 q 401 868 418 911 l 268 868 z "},"o":{"ha":804,"x_min":94,"x_max":826,"o":"m 401 -8 q 171 60 247 -8 q 94 257 94 128 q 106 401 94 332 q 178 626 129 550 q 306 730 226 703 q 521 757 386 757 q 712 728 646 757 q 802 639 778 699 q 826 478 826 579 q 814 326 826 408 q 744 119 793 192 q 613 19 694 47 q 401 -8 532 -8 m 429 207 q 490 219 469 207 q 523 265 511 232 q 546 364 535 297 q 558 490 558 458 q 542 535 558 522 q 486 547 525 547 q 425 533 446 547 q 392 481 404 518 q 369 364 381 443 q 361 269 361 308 q 376 221 361 235 q 429 207 392 207 z "},"ó":{"ha":804,"x_min":94,"x_max":826,"o":"m 401 -8 q 171 60 247 -8 q 94 257 94 128 q 106 401 94 332 q 178 626 129 550 q 306 730 226 703 q 521 757 386 757 q 712 728 646 757 q 802 639 778 699 q 826 478 826 579 q 814 326 826 408 q 744 119 793 192 q 613 19 694 47 q 401 -8 532 -8 m 429 207 q 490 219 469 207 q 523 265 511 232 q 546 364 535 297 q 558 490 558 458 q 542 535 558 522 q 486 547 525 547 q 425 533 446 547 q 392 481 404 518 q 369 364 381 443 q 361 269 361 308 q 376 221 361 235 q 429 207 392 207 m 556 1075 l 783 1075 l 615 876 l 443 876 l 556 1075 z "},"ŏ":{"ha":804,"x_min":94,"x_max":826,"o":"m 401 -8 q 171 60 247 -8 q 94 257 94 128 q 106 401 94 332 q 178 626 129 550 q 306 730 226 703 q 521 757 386 757 q 712 728 646 757 q 802 639 778 699 q 826 478 826 579 q 814 326 826 408 q 744 119 793 192 q 613 19 694 47 q 401 -8 532 -8 m 429 207 q 490 219 469 207 q 523 265 511 232 q 546 364 535 297 q 558 490 558 458 q 542 535 558 522 q 486 547 525 547 q 425 533 446 547 q 392 481 404 518 q 369 364 381 443 q 361 269 361 308 q 376 221 361 235 q 429 207 392 207 m 528 861 q 400 901 443 861 q 357 1021 357 942 q 363 1079 357 1038 l 486 1079 q 483 1051 483 1060 q 501 999 483 1015 q 547 982 519 982 q 639 1079 624 982 l 765 1079 q 689 916 749 971 q 528 861 629 861 z "},"ô":{"ha":804,"x_min":94,"x_max":826,"o":"m 401 -8 q 171 60 247 -8 q 94 257 94 128 q 106 401 94 332 q 178 626 129 550 q 306 730 226 703 q 521 757 386 757 q 712 728 646 757 q 802 639 778 699 q 826 478 826 579 q 814 326 826 408 q 744 119 793 192 q 613 19 694 47 q 401 -8 532 -8 m 429 207 q 490 219 469 207 q 523 265 511 232 q 546 364 535 297 q 558 490 558 458 q 542 535 558 522 q 486 547 525 547 q 425 533 446 547 q 392 481 404 518 q 369 364 381 443 q 361 269 361 308 q 376 221 361 235 q 429 207 392 207 m 467 1079 l 649 1079 l 743 876 l 589 876 l 535 961 l 451 876 l 296 876 l 467 1079 z "},"ố":{"ha":804,"x_min":94,"x_max":933,"o":"m 401 -8 q 171 60 247 -8 q 94 257 94 128 q 106 401 94 332 q 178 626 129 550 q 306 730 226 703 q 521 757 386 757 q 712 728 646 757 q 802 639 778 699 q 826 478 826 579 q 814 326 826 408 q 744 119 793 192 q 613 19 694 47 q 401 -8 532 -8 m 429 207 q 490 219 469 207 q 523 265 511 232 q 546 364 535 297 q 558 490 558 458 q 542 535 558 522 q 486 547 525 547 q 425 533 446 547 q 392 481 404 518 q 369 364 381 443 q 361 269 361 308 q 376 221 361 235 q 429 207 392 207 m 733 1172 l 933 1172 l 825 1001 l 681 1001 l 733 1172 m 461 1038 l 643 1038 l 744 876 l 590 876 l 529 919 l 453 876 l 297 876 l 461 1038 z "},"ộ":{"ha":804,"x_min":94,"x_max":826,"o":"m 401 -8 q 171 60 247 -8 q 94 257 94 128 q 106 401 94 332 q 178 626 129 550 q 306 730 226 703 q 521 757 386 757 q 712 728 646 757 q 802 639 778 699 q 826 478 826 579 q 814 326 826 408 q 744 119 793 192 q 613 19 694 47 q 401 -8 532 -8 m 429 207 q 490 219 469 207 q 523 265 511 232 q 546 364 535 297 q 558 490 558 458 q 542 535 558 522 q 486 547 525 547 q 425 533 446 547 q 392 481 404 518 q 369 364 381 443 q 361 269 361 308 q 376 221 361 235 q 429 207 392 207 m 467 1079 l 649 1079 l 743 876 l 589 876 l 535 961 l 451 876 l 296 876 l 467 1079 m 289 -328 q 269 -321 276 -328 q 261 -301 261 -314 l 261 -296 l 286 -142 q 324 -107 290 -107 l 449 -107 q 476 -135 476 -107 l 476 -142 l 451 -296 q 440 -319 450 -311 q 414 -328 429 -328 l 289 -328 z "},"ồ":{"ha":804,"x_min":94,"x_max":826,"o":"m 401 -8 q 171 60 247 -8 q 94 257 94 128 q 106 401 94 332 q 178 626 129 550 q 306 730 226 703 q 521 757 386 757 q 712 728 646 757 q 802 639 778 699 q 826 478 826 579 q 814 326 826 408 q 744 119 793 192 q 613 19 694 47 q 401 -8 532 -8 m 429 207 q 490 219 469 207 q 523 265 511 232 q 546 364 535 297 q 558 490 558 458 q 542 535 558 522 q 486 547 525 547 q 425 533 446 547 q 392 481 404 518 q 369 364 381 443 q 361 269 361 308 q 376 221 361 235 q 429 207 392 207 m 208 1172 l 408 1172 l 406 1001 l 261 1001 l 208 1172 m 461 1038 l 643 1038 l 744 876 l 590 876 l 529 919 l 453 876 l 297 876 l 461 1038 z "},"ổ":{"ha":804,"x_min":94,"x_max":888,"o":"m 401 -8 q 171 60 247 -8 q 94 257 94 128 q 106 401 94 332 q 178 626 129 550 q 306 730 226 703 q 521 757 386 757 q 712 728 646 757 q 802 639 778 699 q 826 478 826 579 q 814 326 826 408 q 744 119 793 192 q 613 19 694 47 q 401 -8 532 -8 m 429 207 q 490 219 469 207 q 523 265 511 232 q 546 364 535 297 q 558 490 558 458 q 542 535 558 522 q 486 547 525 547 q 425 533 446 547 q 392 481 404 518 q 369 364 381 443 q 361 269 361 308 q 376 221 361 235 q 429 207 392 207 m 725 1058 q 750 1076 743 1068 q 757 1096 757 1085 q 740 1108 757 1108 q 696 1100 724 1108 l 713 1203 q 792 1215 753 1215 q 864 1194 840 1215 q 888 1131 888 1174 q 845 1026 888 1069 q 708 956 803 982 l 725 1058 m 461 1038 l 643 1038 l 744 876 l 590 876 l 529 919 l 453 876 l 297 876 l 461 1038 z "},"ỗ":{"ha":804,"x_min":94,"x_max":826,"o":"m 401 -8 q 171 60 247 -8 q 94 257 94 128 q 106 401 94 332 q 178 626 129 550 q 306 730 226 703 q 521 757 386 757 q 712 728 646 757 q 802 639 778 699 q 826 478 826 579 q 814 326 826 408 q 744 119 793 192 q 613 19 694 47 q 401 -8 532 -8 m 429 207 q 490 219 469 207 q 523 265 511 232 q 546 364 535 297 q 558 490 558 458 q 542 535 558 522 q 486 547 525 547 q 425 533 446 547 q 392 481 404 518 q 369 364 381 443 q 361 269 361 308 q 376 221 361 235 q 429 207 392 207 m 310 1090 q 376 1215 333 1183 q 488 1246 418 1246 q 575 1231 519 1246 q 625 1219 611 1219 q 672 1256 665 1219 l 806 1256 q 741 1126 781 1160 q 629 1093 701 1093 q 570 1101 600 1093 q 535 1110 540 1108 q 490 1119 503 1119 q 459 1110 471 1119 q 443 1090 447 1101 l 310 1090 m 463 1038 l 644 1038 l 744 876 l 590 876 l 529 919 l 453 876 l 297 876 l 463 1038 z "},"ȍ":{"ha":804,"x_min":94,"x_max":826,"o":"m 401 -8 q 171 60 247 -8 q 94 257 94 128 q 106 401 94 332 q 178 626 129 550 q 306 730 226 703 q 521 757 386 757 q 712 728 646 757 q 802 639 778 699 q 826 478 826 579 q 814 326 826 408 q 744 119 793 192 q 613 19 694 47 q 401 -8 532 -8 m 429 207 q 490 219 469 207 q 523 265 511 232 q 546 364 535 297 q 558 490 558 458 q 542 535 558 522 q 486 547 525 547 q 425 533 446 547 q 392 481 404 518 q 369 364 381 443 q 361 269 361 308 q 376 221 361 235 q 429 207 392 207 m 199 1075 l 413 1075 l 475 876 l 317 876 l 199 1075 m 476 1075 l 690 1075 l 753 876 l 594 876 l 476 1075 z "},"ö":{"ha":804,"x_min":94,"x_max":826,"o":"m 401 -8 q 171 60 247 -8 q 94 257 94 128 q 106 401 94 332 q 178 626 129 550 q 306 730 226 703 q 521 757 386 757 q 712 728 646 757 q 802 639 778 699 q 826 478 826 579 q 814 326 826 408 q 744 119 793 192 q 613 19 694 47 q 401 -8 532 -8 m 429 207 q 490 219 469 207 q 523 265 511 232 q 546 364 535 297 q 558 490 558 458 q 542 535 558 522 q 486 547 525 547 q 425 533 446 547 q 392 481 404 518 q 369 364 381 443 q 361 269 361 308 q 376 221 361 235 q 429 207 392 207 m 329 871 q 309 878 317 871 q 301 897 301 885 l 328 1057 q 364 1092 332 1092 l 489 1092 q 517 1064 517 1092 l 492 903 q 480 879 490 888 q 454 871 469 871 l 329 871 m 603 871 q 583 878 590 871 q 575 897 575 885 l 601 1057 q 638 1092 606 1092 l 763 1092 q 790 1064 790 1092 l 765 903 q 753 879 764 888 q 728 871 743 871 l 603 871 z "},"ȫ":{"ha":804,"x_min":94,"x_max":826,"o":"m 401 -8 q 171 60 247 -8 q 94 257 94 128 q 106 401 94 332 q 178 626 129 550 q 306 730 226 703 q 521 757 386 757 q 712 728 646 757 q 802 639 778 699 q 826 478 826 579 q 814 326 826 408 q 744 119 793 192 q 613 19 694 47 q 401 -8 532 -8 m 429 207 q 490 219 469 207 q 523 265 511 232 q 546 364 535 297 q 558 490 558 458 q 542 535 558 522 q 486 547 525 547 q 425 533 446 547 q 392 481 404 518 q 369 364 381 443 q 361 269 361 308 q 376 221 361 235 q 429 207 392 207 m 325 843 q 305 850 313 843 q 297 869 297 857 l 324 1029 q 360 1064 328 1064 l 485 1064 q 513 1036 513 1064 l 488 875 q 476 851 486 860 q 450 843 465 843 l 325 843 m 599 843 q 578 850 586 843 q 571 869 571 857 l 597 1029 q 633 1064 601 1064 l 758 1064 q 786 1036 786 1064 l 761 875 q 749 851 760 860 q 724 843 739 843 l 599 843 m 386 1271 l 792 1271 l 767 1113 l 361 1113 l 386 1271 z "},"ȱ":{"ha":804,"x_min":94,"x_max":826,"o":"m 401 -8 q 171 60 247 -8 q 94 257 94 128 q 106 401 94 332 q 178 626 129 550 q 306 730 226 703 q 521 757 386 757 q 712 728 646 757 q 802 639 778 699 q 826 478 826 579 q 814 326 826 408 q 744 119 793 192 q 613 19 694 47 q 401 -8 532 -8 m 429 207 q 490 219 469 207 q 523 265 511 232 q 546 364 535 297 q 558 490 558 458 q 542 535 558 522 q 486 547 525 547 q 425 533 446 547 q 392 481 404 518 q 369 364 381 443 q 361 269 361 308 q 376 221 361 235 q 429 207 392 207 m 458 839 q 438 846 446 839 q 431 865 431 853 l 431 871 l 456 1025 q 493 1060 460 1060 l 618 1060 q 646 1032 646 1060 l 646 1025 l 621 871 q 609 847 619 856 q 583 839 599 839 l 458 839 m 374 1271 l 779 1271 l 754 1113 l 349 1113 l 374 1271 z "},"ọ":{"ha":804,"x_min":94,"x_max":826,"o":"m 401 -8 q 171 60 247 -8 q 94 257 94 128 q 106 401 94 332 q 178 626 129 550 q 306 730 226 703 q 521 757 386 757 q 712 728 646 757 q 802 639 778 699 q 826 478 826 579 q 814 326 826 408 q 744 119 793 192 q 613 19 694 47 q 401 -8 532 -8 m 429 207 q 490 219 469 207 q 523 265 511 232 q 546 364 535 297 q 558 490 558 458 q 542 535 558 522 q 486 547 525 547 q 425 533 446 547 q 392 481 404 518 q 369 364 381 443 q 361 269 361 308 q 376 221 361 235 q 429 207 392 207 m 289 -328 q 269 -321 276 -328 q 261 -301 261 -314 l 261 -296 l 286 -142 q 324 -107 290 -107 l 449 -107 q 476 -135 476 -107 l 476 -142 l 451 -296 q 440 -319 450 -311 q 414 -328 429 -328 l 289 -328 z "},"ò":{"ha":804,"x_min":94,"x_max":826,"o":"m 401 -8 q 171 60 247 -8 q 94 257 94 128 q 106 401 94 332 q 178 626 129 550 q 306 730 226 703 q 521 757 386 757 q 712 728 646 757 q 802 639 778 699 q 826 478 826 579 q 814 326 826 408 q 744 119 793 192 q 613 19 694 47 q 401 -8 532 -8 m 429 207 q 490 219 469 207 q 523 265 511 232 q 546 364 535 297 q 558 490 558 458 q 542 535 558 522 q 486 547 525 547 q 425 533 446 547 q 392 481 404 518 q 369 364 381 443 q 361 269 361 308 q 376 221 361 235 q 429 207 392 207 m 350 1075 l 564 1075 l 626 876 l 468 876 l 350 1075 z "},"ỏ":{"ha":804,"x_min":94,"x_max":826,"o":"m 401 -8 q 171 60 247 -8 q 94 257 94 128 q 106 401 94 332 q 178 626 129 550 q 306 730 226 703 q 521 757 386 757 q 712 728 646 757 q 802 639 778 699 q 826 478 826 579 q 814 326 826 408 q 744 119 793 192 q 613 19 694 47 q 401 -8 532 -8 m 429 207 q 490 219 469 207 q 523 265 511 232 q 546 364 535 297 q 558 490 558 458 q 542 535 558 522 q 486 547 525 547 q 425 533 446 547 q 392 481 404 518 q 369 364 381 443 q 361 269 361 308 q 376 221 361 235 q 429 207 392 207 m 483 933 q 531 976 531 946 q 500 994 531 994 q 457 986 488 994 l 474 1089 q 554 1101 514 1101 q 674 1000 674 1101 q 465 817 674 874 l 483 933 z "},"ơ":{"ha":804,"x_min":94,"x_max":925,"o":"m 925 899 q 878 751 911 814 q 797 650 846 688 q 826 478 826 593 q 814 326 826 408 q 744 119 793 192 q 613 19 694 47 q 401 -8 532 -8 q 171 60 247 -8 q 94 257 94 128 q 106 401 94 332 q 178 626 129 550 q 306 730 226 703 q 521 757 386 757 q 635 749 588 757 q 704 787 678 751 q 742 899 731 822 l 925 899 m 546 364 q 558 490 558 458 q 542 535 558 522 q 486 547 525 547 q 425 533 446 547 q 392 481 404 518 q 369 364 381 443 q 361 269 361 308 q 376 221 361 235 q 429 207 392 207 q 490 219 469 207 q 523 265 511 232 q 546 364 535 297 z "},"ớ":{"ha":804,"x_min":94,"x_max":925,"o":"m 925 899 q 878 751 911 814 q 797 650 846 688 q 826 478 826 593 q 814 326 826 408 q 744 119 793 192 q 613 19 694 47 q 401 -8 532 -8 q 171 60 247 -8 q 94 257 94 128 q 106 401 94 332 q 178 626 129 550 q 306 730 226 703 q 521 757 386 757 q 635 749 588 757 q 704 787 678 751 q 742 899 731 822 l 925 899 m 546 364 q 558 490 558 458 q 542 535 558 522 q 486 547 525 547 q 425 533 446 547 q 392 481 404 518 q 369 364 381 443 q 361 269 361 308 q 376 221 361 235 q 429 207 392 207 q 490 219 469 207 q 523 265 511 232 q 546 364 535 297 m 511 1075 l 739 1075 l 571 876 l 399 876 l 511 1075 z "},"ợ":{"ha":804,"x_min":94,"x_max":925,"o":"m 925 899 q 878 751 911 814 q 797 650 846 688 q 826 478 826 593 q 814 326 826 408 q 744 119 793 192 q 613 19 694 47 q 401 -8 532 -8 q 171 60 247 -8 q 94 257 94 128 q 106 401 94 332 q 178 626 129 550 q 306 730 226 703 q 521 757 386 757 q 635 749 588 757 q 704 787 678 751 q 742 899 731 822 l 925 899 m 546 364 q 558 490 558 458 q 542 535 558 522 q 486 547 525 547 q 425 533 446 547 q 392 481 404 518 q 369 364 381 443 q 361 269 361 308 q 376 221 361 235 q 429 207 392 207 q 490 219 469 207 q 523 265 511 232 q 546 364 535 297 m 308 -328 q 288 -321 296 -328 q 281 -301 281 -314 l 281 -296 l 306 -142 q 343 -107 310 -107 l 468 -107 q 496 -135 496 -107 l 496 -142 l 471 -296 q 459 -319 469 -311 q 433 -328 449 -328 l 308 -328 z "},"ờ":{"ha":804,"x_min":94,"x_max":925,"o":"m 925 899 q 878 751 911 814 q 797 650 846 688 q 826 478 826 593 q 814 326 826 408 q 744 119 793 192 q 613 19 694 47 q 401 -8 532 -8 q 171 60 247 -8 q 94 257 94 128 q 106 401 94 332 q 178 626 129 550 q 306 730 226 703 q 521 757 386 757 q 635 749 588 757 q 704 787 678 751 q 742 899 731 822 l 925 899 m 546 364 q 558 490 558 458 q 542 535 558 522 q 486 547 525 547 q 425 533 446 547 q 392 481 404 518 q 369 364 381 443 q 361 269 361 308 q 376 221 361 235 q 429 207 392 207 q 490 219 469 207 q 523 265 511 232 q 546 364 535 297 m 306 1075 l 519 1075 l 582 876 l 424 876 l 306 1075 z "},"ở":{"ha":804,"x_min":94,"x_max":925,"o":"m 925 899 q 878 751 911 814 q 797 650 846 688 q 826 478 826 593 q 814 326 826 408 q 744 119 793 192 q 613 19 694 47 q 401 -8 532 -8 q 171 60 247 -8 q 94 257 94 128 q 106 401 94 332 q 178 626 129 550 q 306 730 226 703 q 521 757 386 757 q 635 749 588 757 q 704 787 678 751 q 742 899 731 822 l 925 899 m 546 364 q 558 490 558 458 q 542 535 558 522 q 486 547 525 547 q 425 533 446 547 q 392 481 404 518 q 369 364 381 443 q 361 269 361 308 q 376 221 361 235 q 429 207 392 207 q 490 219 469 207 q 523 265 511 232 q 546 364 535 297 m 439 933 q 486 976 486 946 q 456 994 486 994 q 413 986 443 994 l 429 1089 q 510 1101 469 1101 q 629 1000 629 1101 q 421 817 629 874 l 439 933 z "},"ỡ":{"ha":804,"x_min":94,"x_max":925,"o":"m 925 899 q 878 751 911 814 q 797 650 846 688 q 826 478 826 593 q 814 326 826 408 q 744 119 793 192 q 613 19 694 47 q 401 -8 532 -8 q 171 60 247 -8 q 94 257 94 128 q 106 401 94 332 q 178 626 129 550 q 306 730 226 703 q 521 757 386 757 q 635 749 588 757 q 704 787 678 751 q 742 899 731 822 l 925 899 m 546 364 q 558 490 558 458 q 542 535 558 522 q 486 547 525 547 q 425 533 446 547 q 392 481 404 518 q 369 364 381 443 q 361 269 361 308 q 376 221 361 235 q 429 207 392 207 q 490 219 469 207 q 523 265 511 232 q 546 364 535 297 m 206 868 q 278 1015 231 971 q 390 1058 325 1058 q 449 1052 422 1058 q 511 1035 475 1046 q 581 1018 554 1018 q 629 1068 619 1018 l 763 1068 q 692 917 735 963 q 581 871 649 871 q 522 877 550 871 q 451 896 493 883 q 389 911 406 911 q 339 868 356 911 l 206 868 z "},"ő":{"ha":804,"x_min":94,"x_max":871,"o":"m 401 -8 q 171 60 247 -8 q 94 257 94 128 q 106 401 94 332 q 178 626 129 550 q 306 730 226 703 q 521 757 386 757 q 712 728 646 757 q 802 639 778 699 q 826 478 826 579 q 814 326 826 408 q 744 119 793 192 q 613 19 694 47 q 401 -8 532 -8 m 429 207 q 490 219 469 207 q 523 265 511 232 q 546 364 535 297 q 558 490 558 458 q 542 535 558 522 q 486 547 525 547 q 425 533 446 547 q 392 481 404 518 q 369 364 381 443 q 361 269 361 308 q 376 221 361 235 q 429 207 392 207 m 431 1075 l 631 1075 l 476 876 l 318 876 l 431 1075 m 671 1075 l 871 1075 l 717 876 l 558 876 l 671 1075 z "},"ȏ":{"ha":804,"x_min":94,"x_max":826,"o":"m 401 -8 q 171 60 247 -8 q 94 257 94 128 q 106 401 94 332 q 178 626 129 550 q 306 730 226 703 q 521 757 386 757 q 712 728 646 757 q 802 639 778 699 q 826 478 826 579 q 814 326 826 408 q 744 119 793 192 q 613 19 694 47 q 401 -8 532 -8 m 429 207 q 490 219 469 207 q 523 265 511 232 q 546 364 535 297 q 558 490 558 458 q 542 535 558 522 q 486 547 525 547 q 425 533 446 547 q 392 481 404 518 q 369 364 381 443 q 361 269 361 308 q 376 221 361 235 q 429 207 392 207 m 326 865 q 403 1028 343 974 q 564 1083 463 1083 q 692 1043 649 1083 q 735 924 735 1003 q 729 865 735 907 l 606 865 q 608 893 608 885 q 590 946 608 929 q 544 963 572 963 q 453 865 468 963 l 326 865 z "},"ō":{"ha":804,"x_min":94,"x_max":826,"o":"m 401 -8 q 171 60 247 -8 q 94 257 94 128 q 106 401 94 332 q 178 626 129 550 q 306 730 226 703 q 521 757 386 757 q 712 728 646 757 q 802 639 778 699 q 826 478 826 579 q 814 326 826 408 q 744 119 793 192 q 613 19 694 47 q 401 -8 532 -8 m 429 207 q 490 219 469 207 q 523 265 511 232 q 546 364 535 297 q 558 490 558 458 q 542 535 558 522 q 486 547 525 547 q 425 533 446 547 q 392 481 404 518 q 369 364 381 443 q 361 269 361 308 q 376 221 361 235 q 429 207 392 207 m 356 1035 l 761 1035 l 736 876 l 331 876 l 356 1035 z "},"ṓ":{"ha":804,"x_min":94,"x_max":826,"o":"m 401 -8 q 171 60 247 -8 q 94 257 94 128 q 106 401 94 332 q 178 626 129 550 q 306 730 226 703 q 521 757 386 757 q 712 728 646 757 q 802 639 778 699 q 826 478 826 579 q 814 326 826 408 q 744 119 793 192 q 613 19 694 47 q 401 -8 532 -8 m 429 207 q 490 219 469 207 q 523 265 511 232 q 546 364 535 297 q 558 490 558 458 q 542 535 558 522 q 486 547 525 547 q 425 533 446 547 q 392 481 404 518 q 369 364 381 443 q 361 269 361 308 q 376 221 361 235 q 429 207 392 207 m 356 1035 l 761 1035 l 736 876 l 331 876 l 356 1035 m 597 1297 l 825 1297 l 657 1099 l 485 1099 l 597 1297 z "},"ṑ":{"ha":804,"x_min":94,"x_max":826,"o":"m 401 -8 q 171 60 247 -8 q 94 257 94 128 q 106 401 94 332 q 178 626 129 550 q 306 730 226 703 q 521 757 386 757 q 712 728 646 757 q 802 639 778 699 q 826 478 826 579 q 814 326 826 408 q 744 119 793 192 q 613 19 694 47 q 401 -8 532 -8 m 429 207 q 490 219 469 207 q 523 265 511 232 q 546 364 535 297 q 558 490 558 458 q 542 535 558 522 q 486 547 525 547 q 425 533 446 547 q 392 481 404 518 q 369 364 381 443 q 361 269 361 308 q 376 221 361 235 q 429 207 392 207 m 356 1035 l 761 1035 l 736 876 l 331 876 l 356 1035 m 350 1297 l 564 1297 l 626 1099 l 468 1099 l 350 1297 z "},"ǫ":{"ha":804,"x_min":94,"x_max":826,"o":"m 521 757 q 712 728 646 757 q 802 639 778 699 q 826 478 826 579 q 814 326 826 408 q 723 92 789 165 q 532 0 657 18 q 480 -47 496 -22 q 464 -92 464 -72 q 478 -127 464 -114 q 514 -140 493 -140 l 528 -140 l 508 -265 q 457 -272 492 -272 q 357 -242 388 -272 q 326 -167 326 -211 q 352 -75 326 -115 q 422 -8 378 -35 l 401 -8 q 171 60 247 -8 q 94 257 94 128 q 106 401 94 332 q 178 626 129 550 q 306 730 226 703 q 521 757 386 757 m 546 364 q 558 490 558 458 q 542 535 558 522 q 486 547 525 547 q 425 533 446 547 q 392 481 404 518 q 369 364 381 443 q 361 269 361 308 q 376 221 361 235 q 429 207 392 207 q 490 219 469 207 q 523 265 511 232 q 546 364 535 297 z "},"ø":{"ha":797,"x_min":21,"x_max":894,"o":"m 796 651 q 826 478 826 594 q 814 326 826 408 q 744 119 793 192 q 613 19 694 47 q 401 -8 532 -8 q 188 47 264 -8 l 140 0 l 21 0 l 131 108 q 94 257 94 167 q 106 401 94 332 q 178 626 129 550 q 306 730 226 703 q 521 757 386 757 q 739 713 672 757 l 775 749 l 894 749 l 796 651 m 367 343 l 550 526 q 486 547 536 547 q 425 533 446 547 q 392 481 404 518 q 369 364 381 443 l 367 343 m 551 408 l 369 228 q 429 207 383 207 q 490 219 469 207 q 523 265 511 232 q 546 364 535 297 l 551 408 z "},"ǿ":{"ha":797,"x_min":21,"x_max":894,"o":"m 796 651 q 826 478 826 594 q 814 326 826 408 q 744 119 793 192 q 613 19 694 47 q 401 -8 532 -8 q 188 47 264 -8 l 140 0 l 21 0 l 131 108 q 94 257 94 167 q 106 401 94 332 q 178 626 129 550 q 306 730 226 703 q 521 757 386 757 q 739 713 672 757 l 775 749 l 894 749 l 796 651 m 367 343 l 550 526 q 486 547 536 547 q 425 533 446 547 q 392 481 404 518 q 369 364 381 443 l 367 343 m 551 408 l 369 228 q 429 207 383 207 q 490 219 469 207 q 523 265 511 232 q 546 364 535 297 l 551 408 m 511 1075 l 739 1075 l 571 876 l 399 876 l 511 1075 z "},"õ":{"ha":804,"x_min":94,"x_max":826,"o":"m 401 -8 q 171 60 247 -8 q 94 257 94 128 q 106 401 94 332 q 178 626 129 550 q 306 730 226 703 q 521 757 386 757 q 712 728 646 757 q 802 639 778 699 q 826 478 826 579 q 814 326 826 408 q 744 119 793 192 q 613 19 694 47 q 401 -8 532 -8 m 429 207 q 490 219 469 207 q 523 265 511 232 q 546 364 535 297 q 558 490 558 458 q 542 535 558 522 q 486 547 525 547 q 425 533 446 547 q 392 481 404 518 q 369 364 381 443 q 361 269 361 308 q 376 221 361 235 q 429 207 392 207 m 250 868 q 322 1015 275 971 q 435 1058 369 1058 q 493 1052 467 1058 q 556 1035 519 1046 q 625 1018 599 1018 q 674 1068 664 1018 l 807 1068 q 736 917 779 963 q 625 871 693 871 q 566 877 594 871 q 496 896 538 883 q 433 911 450 911 q 383 868 400 911 l 250 868 z "},"ṍ":{"ha":804,"x_min":94,"x_max":826,"o":"m 401 -8 q 171 60 247 -8 q 94 257 94 128 q 106 401 94 332 q 178 626 129 550 q 306 730 226 703 q 521 757 386 757 q 712 728 646 757 q 802 639 778 699 q 826 478 826 579 q 814 326 826 408 q 744 119 793 192 q 613 19 694 47 q 401 -8 532 -8 m 429 207 q 490 219 469 207 q 523 265 511 232 q 546 364 535 297 q 558 490 558 458 q 542 535 558 522 q 486 547 525 547 q 425 533 446 547 q 392 481 404 518 q 369 364 381 443 q 361 269 361 308 q 376 221 361 235 q 429 207 392 207 m 250 868 q 322 1015 275 971 q 435 1058 369 1058 q 493 1052 467 1058 q 556 1035 519 1046 q 625 1018 599 1018 q 674 1068 664 1018 l 807 1068 q 736 917 779 963 q 625 871 693 871 q 566 877 594 871 q 496 896 538 883 q 433 911 450 911 q 383 868 400 911 l 250 868 m 569 1297 l 797 1297 l 629 1099 l 457 1099 l 569 1297 z "},"ṏ":{"ha":804,"x_min":94,"x_max":826,"o":"m 401 -8 q 171 60 247 -8 q 94 257 94 128 q 106 401 94 332 q 178 626 129 550 q 306 730 226 703 q 521 757 386 757 q 712 728 646 757 q 802 639 778 699 q 826 478 826 579 q 814 326 826 408 q 744 119 793 192 q 613 19 694 47 q 401 -8 532 -8 m 429 207 q 490 219 469 207 q 523 265 511 232 q 546 364 535 297 q 558 490 558 458 q 542 535 558 522 q 486 547 525 547 q 425 533 446 547 q 392 481 404 518 q 369 364 381 443 q 361 269 361 308 q 376 221 361 235 q 429 207 392 207 m 250 868 q 322 1015 275 971 q 435 1058 369 1058 q 493 1052 467 1058 q 556 1035 519 1046 q 625 1018 599 1018 q 674 1068 664 1018 l 807 1068 q 736 917 779 963 q 625 871 693 871 q 566 877 594 871 q 496 896 538 883 q 433 911 450 911 q 383 868 400 911 l 250 868 m 346 1121 q 326 1128 333 1121 q 318 1147 318 1135 l 344 1307 q 381 1342 349 1342 l 506 1342 q 533 1314 533 1342 l 508 1153 q 497 1129 507 1138 q 471 1121 486 1121 l 346 1121 m 619 1121 q 599 1128 607 1121 q 592 1147 592 1135 l 618 1307 q 654 1342 622 1342 l 779 1342 q 807 1314 807 1342 l 782 1153 q 770 1129 781 1138 q 744 1121 760 1121 l 619 1121 z "},"ȭ":{"ha":804,"x_min":94,"x_max":826,"o":"m 401 -8 q 171 60 247 -8 q 94 257 94 128 q 106 401 94 332 q 178 626 129 550 q 306 730 226 703 q 521 757 386 757 q 712 728 646 757 q 802 639 778 699 q 826 478 826 579 q 814 326 826 408 q 744 119 793 192 q 613 19 694 47 q 401 -8 532 -8 m 429 207 q 490 219 469 207 q 523 265 511 232 q 546 364 535 297 q 558 490 558 458 q 542 535 558 522 q 486 547 525 547 q 425 533 446 547 q 392 481 404 518 q 369 364 381 443 q 361 269 361 308 q 376 221 361 235 q 429 207 392 207 m 369 1243 l 775 1243 l 750 1085 l 344 1085 l 369 1243 m 250 840 q 322 987 275 943 q 435 1031 369 1031 q 493 1024 467 1031 q 556 1007 519 1018 q 625 990 599 990 q 674 1040 664 990 l 807 1040 q 736 889 779 935 q 625 843 693 843 q 566 849 594 843 q 496 868 538 856 q 433 883 450 883 q 383 840 400 883 l 250 840 z "},"œ":{"ha":1208,"x_min":94,"x_max":1250,"o":"m 388 -8 q 167 60 240 -8 q 94 257 94 128 q 106 401 94 332 q 176 626 129 550 q 301 730 224 703 q 507 757 378 757 q 733 663 647 757 q 841 733 785 710 q 967 757 897 757 q 1169 706 1089 757 q 1250 522 1250 654 q 1169 318 1250 372 q 942 264 1089 264 q 808 275 857 264 q 806 247 806 261 q 943 188 806 188 l 1192 188 l 1167 31 q 881 -8 1006 -8 q 745 9 797 -8 q 651 63 693 26 q 526 10 589 29 q 388 -8 464 -8 m 879 410 q 976 430 951 410 q 1000 493 1000 450 q 983 537 1000 521 q 935 553 967 553 q 864 519 890 553 q 825 415 838 485 q 879 410 861 410 m 429 207 q 490 219 469 207 q 523 265 511 232 q 546 364 535 297 q 558 490 558 458 q 542 535 558 522 q 486 547 525 547 q 425 533 446 547 q 392 481 404 518 q 369 364 381 443 q 361 269 361 308 q 376 221 361 235 q 429 207 392 207 z "},"p":{"ha":800,"x_min":8,"x_max":825,"o":"m 174 710 q 390 745 301 733 q 572 757 479 757 q 767 690 710 757 q 825 483 825 624 q 811 331 825 424 q 689 75 783 158 q 463 -8 594 -8 q 385 -3 421 -8 q 332 13 349 3 l 278 -329 l 8 -329 l 174 710 m 429 219 q 508 256 478 219 q 554 381 539 293 q 560 435 560 419 q 544 517 560 492 q 494 542 529 542 l 415 542 l 365 229 q 429 219 385 219 z "},"ṗ":{"ha":800,"x_min":8,"x_max":825,"o":"m 174 710 q 390 745 301 733 q 572 757 479 757 q 767 690 710 757 q 825 483 825 624 q 811 331 825 424 q 689 75 783 158 q 463 -8 594 -8 q 385 -3 421 -8 q 332 13 349 3 l 278 -329 l 8 -329 l 174 710 m 429 219 q 508 256 478 219 q 554 381 539 293 q 560 435 560 419 q 544 517 560 492 q 494 542 529 542 l 415 542 l 365 229 q 429 219 385 219 m 481 881 q 460 888 468 881 q 453 907 453 894 l 453 913 l 478 1067 q 515 1101 482 1101 l 640 1101 q 668 1074 668 1101 l 668 1067 l 643 913 q 631 889 642 897 q 606 881 621 881 l 481 881 z "},"þ":{"ha":807,"x_min":7,"x_max":825,"o":"m 228 1060 l 499 1060 l 450 751 q 574 757 501 757 q 768 690 711 757 q 825 483 825 624 q 811 331 825 424 q 690 75 783 158 q 464 -8 596 -8 q 385 -3 422 -8 q 332 13 349 3 l 278 -329 l 7 -329 l 228 1060 m 428 219 q 508 256 478 219 q 554 381 539 292 q 560 435 560 419 q 544 516 560 490 q 493 542 529 542 l 415 542 l 365 229 q 428 219 385 219 z "},"q":{"ha":796,"x_min":92,"x_max":850,"o":"m 481 72 q 396 16 450 40 q 285 -8 342 -8 q 138 56 183 -8 q 92 249 92 121 q 106 403 92 310 q 239 679 138 601 q 489 757 340 757 q 696 741 597 757 q 850 701 794 725 l 686 -329 l 417 -329 l 481 72 m 419 207 q 469 219 446 207 q 508 247 492 231 l 554 532 q 493 542 521 542 q 410 504 436 542 q 368 385 383 467 q 358 303 358 332 q 419 207 358 207 z "},"r":{"ha":604,"x_min":63,"x_max":688,"o":"m 181 749 l 422 749 l 435 649 q 522 728 476 699 q 624 757 568 757 q 688 750 661 757 l 647 481 l 567 481 q 469 467 513 481 q 400 431 426 453 l 332 0 l 63 0 l 181 749 z "},"ŕ":{"ha":604,"x_min":63,"x_max":706,"o":"m 181 749 l 422 749 l 435 649 q 522 728 476 699 q 624 757 568 757 q 688 750 661 757 l 647 481 l 567 481 q 469 467 513 481 q 400 431 426 453 l 332 0 l 63 0 l 181 749 m 478 1078 l 706 1078 l 538 879 l 365 879 l 478 1078 z "},"ř":{"ha":604,"x_min":63,"x_max":719,"o":"m 181 749 l 422 749 l 435 649 q 522 728 476 699 q 624 757 568 757 q 688 750 661 757 l 647 481 l 567 481 q 469 467 513 481 q 400 431 426 453 l 332 0 l 63 0 l 181 749 m 272 1082 l 426 1082 l 481 997 l 564 1082 l 719 1082 l 549 879 l 367 879 l 272 1082 z "},"ŗ":{"ha":604,"x_min":22,"x_max":688,"o":"m 181 749 l 422 749 l 435 649 q 522 728 476 699 q 624 757 568 757 q 688 750 661 757 l 647 481 l 567 481 q 469 467 513 481 q 400 431 426 453 l 332 0 l 63 0 l 181 749 m 40 -203 l 78 -190 q 126 -164 114 -179 q 144 -110 139 -149 l 307 -110 q 246 -265 290 -218 q 107 -312 201 -312 l 22 -312 l 40 -203 z "},"ȑ":{"ha":604,"x_min":63,"x_max":688,"o":"m 181 749 l 422 749 l 435 649 q 522 728 476 699 q 624 757 568 757 q 688 750 661 757 l 647 481 l 567 481 q 469 467 513 481 q 400 431 426 453 l 332 0 l 63 0 l 181 749 m 121 1078 l 335 1078 l 397 879 l 239 879 l 121 1078 m 399 1078 l 613 1078 l 675 879 l 517 879 l 399 1078 z "},"ṛ":{"ha":604,"x_min":63,"x_max":688,"o":"m 181 749 l 422 749 l 435 649 q 522 728 476 699 q 624 757 568 757 q 688 750 661 757 l 647 481 l 567 481 q 469 467 513 481 q 400 431 426 453 l 332 0 l 63 0 l 181 749 m 100 -328 q 80 -321 88 -328 q 72 -301 72 -314 l 72 -296 l 97 -142 q 135 -107 101 -107 l 260 -107 q 288 -135 288 -107 l 288 -142 l 263 -296 q 251 -319 261 -311 q 225 -328 240 -328 l 100 -328 z "}}}
